{"glyphs":{"0":{"ha":833,"x_min":74,"x_max":760,"o":"m 417 -11 q 161 117 249 -11 q 74 489 74 244 q 161 863 74 735 q 417 990 249 990 q 672 863 585 990 q 760 490 760 736 q 672 117 760 244 q 417 -11 585 -11 m 417 85 q 589 183 533 85 q 644 490 644 282 q 590 797 644 700 q 417 893 535 893 q 244 796 300 893 q 189 490 189 699 q 244 183 189 282 q 417 85 300 85 z "},"1":{"ha":833,"x_min":171,"x_max":725,"o":"m 725 96 l 725 0 l 181 0 l 181 96 l 396 96 l 396 838 l 224 729 l 171 817 l 428 979 l 510 979 l 510 96 l 725 96 z "},"2":{"ha":833,"x_min":92,"x_max":749,"o":"m 749 96 l 749 0 l 118 0 l 118 86 l 461 464 q 562 603 531 542 q 593 728 593 665 q 546 851 593 808 q 413 894 499 894 q 135 782 271 894 l 92 869 q 238 958 150 925 q 415 990 326 990 q 628 921 550 990 q 707 733 707 851 q 669 571 707 649 q 543 397 631 493 l 265 96 l 749 96 z "},"3":{"ha":833,"x_min":78,"x_max":729,"o":"m 551 503 q 683 417 638 478 q 729 265 729 357 q 642 64 729 138 q 407 -10 556 -10 q 225 22 313 -10 q 78 111 138 54 l 121 199 q 404 86 254 86 q 563 133 508 86 q 617 269 617 179 q 392 449 617 449 l 279 449 l 279 544 l 369 544 q 536 592 478 544 q 594 731 594 640 q 547 852 594 810 q 413 894 500 894 q 135 782 271 894 l 92 869 q 238 958 151 926 q 417 990 324 990 q 628 923 550 990 q 707 742 707 856 q 666 594 707 657 q 551 503 625 531 z "},"4":{"ha":833,"x_min":71,"x_max":783,"o":"m 783 213 l 636 213 l 636 0 l 524 0 l 524 213 l 71 213 l 71 299 l 543 979 l 636 979 l 636 307 l 783 307 l 783 213 m 524 307 l 524 789 l 189 307 l 524 307 z "},"5":{"ha":833,"x_min":110,"x_max":764,"o":"m 458 614 q 620 575 551 614 q 726 466 689 536 q 764 304 764 396 q 723 140 764 211 q 607 30 682 69 q 432 -10 532 -10 q 256 23 343 -10 q 110 111 169 56 l 153 199 q 432 86 289 86 q 593 144 535 86 q 651 303 651 203 q 594 460 651 400 q 440 519 536 519 q 217 406 300 519 l 138 406 l 138 979 l 725 979 l 725 885 l 250 885 l 250 536 q 342 594 289 574 q 458 614 396 614 z "},"6":{"ha":832,"x_min":78,"x_max":764,"o":"m 458 615 q 617 576 547 615 q 725 467 686 538 q 764 304 764 396 q 724 142 764 214 q 611 29 683 69 q 449 -11 539 -11 q 174 113 271 -11 q 78 465 78 236 q 123 749 78 631 q 253 928 168 867 q 456 990 338 990 q 621 959 540 990 q 763 869 701 928 l 719 782 q 587 867 650 840 q 458 894 524 894 q 262 783 332 894 q 192 467 192 671 l 192 446 q 294 569 224 524 q 458 615 365 615 m 443 85 q 594 144 538 85 q 651 303 651 204 q 594 460 651 400 q 442 519 536 519 q 285 459 346 519 q 225 303 225 399 q 285 145 225 206 q 443 85 346 85 z "},"7":{"ha":833,"x_min":93,"x_max":740,"o":"m 740 979 l 740 894 l 282 0 l 158 0 l 615 883 l 93 883 l 93 979 l 740 979 z "},"8":{"ha":833,"x_min":65,"x_max":768,"o":"m 586 503 q 720 413 672 476 q 768 260 768 349 q 676 62 768 133 q 417 -10 585 -10 q 157 62 249 -10 q 65 260 65 133 q 114 414 65 350 q 249 503 163 478 q 132 590 175 531 q 89 731 89 650 q 176 920 89 850 q 417 990 263 990 q 658 920 571 990 q 744 731 744 850 q 701 590 744 650 q 586 503 658 529 m 201 722 q 256 590 201 636 q 417 544 311 544 q 577 590 522 544 q 632 722 632 636 q 577 850 632 804 q 417 896 522 896 q 256 850 311 896 q 201 722 201 804 m 417 85 q 656 267 656 85 q 417 449 656 449 q 178 267 178 449 q 417 85 178 85 z "},"9":{"ha":833,"x_min":71,"x_max":757,"o":"m 386 990 q 660 867 564 990 q 757 514 757 743 q 657 127 757 265 q 378 -11 557 -11 q 214 20 294 -11 q 72 110 133 51 l 115 197 q 248 112 185 139 q 376 85 311 85 q 572 197 503 85 q 642 513 642 308 l 642 531 q 538 408 610 453 q 376 364 467 364 q 218 403 288 364 q 110 513 149 442 q 71 675 71 583 q 111 838 71 765 q 224 950 151 910 q 386 990 296 990 m 393 460 q 549 520 489 460 q 610 676 610 581 q 549 834 610 774 q 392 894 489 894 q 240 835 297 894 q 183 676 183 775 q 241 519 183 578 q 393 460 299 460 z "},"\u0000":{"ha":0,"x_min":0,"x_max":0,"o":""},"\r":{"ha":358,"x_min":0,"x_max":0,"o":""}," ":{"ha":358,"x_min":0,"x_max":0,"o":""},"A":{"ha":1010,"x_min":25,"x_max":985,"o":"m 761 251 l 250 251 l 142 0 l 25 0 l 456 979 l 554 979 l 985 0 l 869 0 l 761 251 m 721 346 l 506 847 l 290 346 l 721 346 z "},"Á":{"ha":1010,"x_min":25,"x_max":985,"o":"m 761 251 l 250 251 l 142 0 l 25 0 l 456 979 l 554 979 l 985 0 l 869 0 l 761 251 m 721 346 l 506 847 l 290 346 l 721 346 m 467 1063 l 607 1274 l 729 1274 l 544 1063 l 467 1063 z "},"Ă":{"ha":1010,"x_min":25,"x_max":985,"o":"m 761 251 l 250 251 l 142 0 l 25 0 l 456 979 l 554 979 l 985 0 l 869 0 l 761 251 m 721 346 l 506 847 l 290 346 l 721 346 m 506 1079 q 369 1115 428 1079 q 279 1226 310 1150 l 350 1257 q 417 1181 381 1201 q 506 1160 454 1160 q 594 1181 557 1160 q 661 1257 631 1201 l 732 1226 q 642 1115 701 1150 q 506 1079 583 1079 z "},"Ắ":{"ha":1010,"x_min":25,"x_max":985,"o":"m 761 251 l 250 251 l 142 0 l 25 0 l 456 979 l 554 979 l 985 0 l 869 0 l 761 251 m 721 346 l 506 847 l 290 346 l 721 346 m 468 1206 l 607 1401 l 726 1401 l 543 1206 l 468 1206 m 506 1056 q 369 1091 428 1056 q 279 1203 310 1126 l 344 1231 q 415 1153 375 1175 q 506 1131 454 1131 q 597 1153 557 1131 q 667 1231 636 1175 l 732 1203 q 642 1091 701 1126 q 506 1056 583 1056 z "},"Ặ":{"ha":1010,"x_min":25,"x_max":985,"o":"m 761 251 l 250 251 l 142 0 l 25 0 l 456 979 l 554 979 l 985 0 l 869 0 l 761 251 m 721 346 l 506 847 l 290 346 l 721 346 m 569 -131 l 569 -253 l 442 -253 l 442 -131 l 569 -131 m 506 1079 q 369 1115 428 1079 q 279 1226 310 1150 l 350 1257 q 417 1181 381 1201 q 506 1160 454 1160 q 594 1181 557 1160 q 661 1257 631 1201 l 732 1226 q 642 1115 701 1150 q 506 1079 583 1079 z "},"Ằ":{"ha":1010,"x_min":25,"x_max":985,"o":"m 761 251 l 250 251 l 142 0 l 25 0 l 456 979 l 554 979 l 985 0 l 869 0 l 761 251 m 721 346 l 506 847 l 290 346 l 721 346 m 285 1401 l 404 1401 l 543 1206 l 468 1206 l 285 1401 m 506 1056 q 369 1091 428 1056 q 279 1203 310 1126 l 344 1231 q 415 1153 375 1175 q 506 1131 454 1131 q 597 1153 557 1131 q 667 1231 636 1175 l 732 1203 q 642 1091 701 1126 q 506 1056 583 1056 z "},"Ẳ":{"ha":1010,"x_min":25,"x_max":985,"o":"m 761 251 l 250 251 l 142 0 l 25 0 l 456 979 l 554 979 l 985 0 l 869 0 l 761 251 m 721 346 l 506 847 l 290 346 l 721 346 m 543 1206 l 469 1206 l 469 1229 q 485 1266 469 1253 q 528 1290 500 1279 q 554 1304 546 1299 q 563 1318 563 1310 q 547 1336 563 1329 q 506 1343 532 1343 q 421 1326 465 1343 l 401 1385 q 514 1410 458 1410 q 615 1385 578 1410 q 651 1322 651 1361 q 636 1285 651 1297 q 589 1257 621 1272 q 555 1239 567 1247 q 543 1218 543 1231 l 543 1206 m 506 1056 q 369 1091 428 1056 q 279 1203 310 1126 l 344 1231 q 415 1153 375 1175 q 506 1131 454 1131 q 597 1153 557 1131 q 667 1231 636 1175 l 732 1203 q 642 1091 701 1126 q 506 1056 583 1056 z "},"Ẵ":{"ha":1010,"x_min":25,"x_max":985,"o":"m 761 251 l 250 251 l 142 0 l 25 0 l 456 979 l 554 979 l 985 0 l 869 0 l 761 251 m 721 346 l 506 847 l 290 346 l 721 346 m 282 1269 q 316 1373 282 1333 q 406 1413 350 1413 q 460 1402 435 1413 q 522 1371 486 1392 q 570 1347 554 1354 q 603 1340 586 1340 q 650 1360 633 1340 q 667 1408 667 1379 l 729 1408 q 695 1305 729 1344 q 606 1265 661 1265 q 551 1276 576 1265 q 489 1307 525 1286 q 441 1331 457 1324 q 408 1338 425 1338 q 361 1318 378 1338 q 344 1269 344 1299 l 282 1269 m 506 1056 q 369 1091 428 1056 q 279 1203 310 1126 l 344 1231 q 415 1153 375 1175 q 506 1131 454 1131 q 597 1153 557 1131 q 667 1231 636 1175 l 732 1203 q 642 1091 701 1126 q 506 1056 583 1056 z "},"Â":{"ha":1010,"x_min":25,"x_max":985,"o":"m 761 251 l 250 251 l 142 0 l 25 0 l 456 979 l 554 979 l 985 0 l 869 0 l 761 251 m 721 346 l 506 847 l 290 346 l 721 346 m 303 1063 l 468 1274 l 543 1274 l 708 1063 l 607 1063 l 506 1206 l 404 1063 l 303 1063 z "},"Ấ":{"ha":1010,"x_min":25,"x_max":985,"o":"m 761 251 l 250 251 l 142 0 l 25 0 l 456 979 l 554 979 l 985 0 l 869 0 l 761 251 m 721 346 l 506 847 l 290 346 l 721 346 m 624 1206 l 750 1401 l 868 1401 l 692 1206 l 624 1206 m 303 1063 l 468 1267 l 543 1267 l 708 1063 l 607 1063 l 506 1200 l 404 1063 l 303 1063 z "},"Ậ":{"ha":1010,"x_min":25,"x_max":985,"o":"m 761 251 l 250 251 l 142 0 l 25 0 l 456 979 l 554 979 l 985 0 l 869 0 l 761 251 m 721 346 l 506 847 l 290 346 l 721 346 m 569 -131 l 569 -253 l 442 -253 l 442 -131 l 569 -131 m 303 1063 l 468 1274 l 543 1274 l 708 1063 l 607 1063 l 506 1206 l 404 1063 l 303 1063 z "},"Ầ":{"ha":1010,"x_min":25,"x_max":985,"o":"m 761 251 l 250 251 l 142 0 l 25 0 l 456 979 l 554 979 l 985 0 l 869 0 l 761 251 m 721 346 l 506 847 l 290 346 l 721 346 m 526 1401 l 644 1401 l 751 1206 l 682 1206 l 526 1401 m 303 1063 l 468 1267 l 543 1267 l 708 1063 l 607 1063 l 506 1200 l 404 1063 l 303 1063 z "},"Ẩ":{"ha":1010,"x_min":25,"x_max":985,"o":"m 761 251 l 250 251 l 142 0 l 25 0 l 456 979 l 554 979 l 985 0 l 869 0 l 761 251 m 721 346 l 506 847 l 290 346 l 721 346 m 696 1206 l 622 1206 l 622 1229 q 638 1266 622 1253 q 681 1290 653 1279 q 707 1304 699 1299 q 715 1318 715 1310 q 700 1336 715 1329 q 658 1343 685 1343 q 574 1326 618 1343 l 554 1385 q 667 1410 611 1410 q 767 1385 731 1410 q 804 1322 804 1361 q 789 1285 804 1297 q 742 1257 774 1272 q 708 1239 719 1247 q 696 1218 696 1231 l 696 1206 m 303 1063 l 468 1267 l 543 1267 l 708 1063 l 607 1063 l 506 1200 l 404 1063 l 303 1063 z "},"Ẫ":{"ha":1010,"x_min":25,"x_max":985,"o":"m 761 251 l 250 251 l 142 0 l 25 0 l 456 979 l 554 979 l 985 0 l 869 0 l 761 251 m 721 346 l 506 847 l 290 346 l 721 346 m 282 1288 q 316 1385 282 1347 q 406 1424 350 1424 q 461 1415 435 1424 q 522 1389 488 1406 q 565 1372 543 1379 q 603 1364 586 1364 q 649 1383 632 1364 q 667 1426 667 1401 l 729 1426 q 694 1328 729 1367 q 606 1289 660 1289 q 550 1298 576 1289 q 489 1324 524 1307 q 447 1341 468 1333 q 408 1349 425 1349 q 362 1331 379 1349 q 344 1288 344 1313 l 282 1288 m 303 1063 l 468 1267 l 543 1267 l 708 1063 l 607 1063 l 506 1200 l 404 1063 l 303 1063 z "},"Ȁ":{"ha":1010,"x_min":25,"x_max":985,"o":"m 761 251 l 250 251 l 142 0 l 25 0 l 456 979 l 554 979 l 985 0 l 869 0 l 761 251 m 721 346 l 506 847 l 290 346 l 721 346 m 257 1274 l 354 1274 l 453 1063 l 392 1063 l 257 1274 m 422 1274 l 521 1274 l 619 1063 l 558 1063 l 422 1274 z "},"Ä":{"ha":1010,"x_min":25,"x_max":985,"o":"m 761 251 l 250 251 l 142 0 l 25 0 l 456 979 l 554 979 l 985 0 l 869 0 l 761 251 m 721 346 l 506 847 l 290 346 l 721 346 m 449 1229 l 449 1110 l 325 1110 l 325 1229 l 449 1229 m 686 1229 l 686 1110 l 563 1110 l 563 1229 l 686 1229 z "},"Ạ":{"ha":1010,"x_min":25,"x_max":985,"o":"m 761 251 l 250 251 l 142 0 l 25 0 l 456 979 l 554 979 l 985 0 l 869 0 l 761 251 m 721 346 l 506 847 l 290 346 l 721 346 m 569 -131 l 569 -253 l 442 -253 l 442 -131 l 569 -131 z "},"À":{"ha":1010,"x_min":25,"x_max":985,"o":"m 761 251 l 250 251 l 142 0 l 25 0 l 456 979 l 554 979 l 985 0 l 869 0 l 761 251 m 721 346 l 506 847 l 290 346 l 721 346 m 282 1274 l 404 1274 l 544 1063 l 467 1063 l 282 1274 z "},"Ả":{"ha":1010,"x_min":25,"x_max":985,"o":"m 761 251 l 250 251 l 142 0 l 25 0 l 456 979 l 554 979 l 985 0 l 869 0 l 761 251 m 721 346 l 506 847 l 290 346 l 721 346 m 543 1063 l 469 1063 l 469 1088 q 485 1126 469 1111 q 526 1153 500 1140 q 554 1170 546 1164 q 563 1186 563 1176 q 547 1206 563 1199 q 506 1213 532 1213 q 421 1196 465 1213 l 401 1256 q 514 1279 456 1279 q 615 1255 578 1279 q 651 1190 651 1231 q 635 1149 651 1164 q 588 1119 618 1133 q 553 1099 564 1107 q 543 1076 543 1090 l 543 1063 z "},"Ȃ":{"ha":1010,"x_min":25,"x_max":985,"o":"m 761 251 l 250 251 l 142 0 l 25 0 l 456 979 l 554 979 l 985 0 l 869 0 l 761 251 m 721 346 l 506 847 l 290 346 l 721 346 m 506 1258 q 642 1223 583 1258 q 732 1111 701 1188 l 661 1081 q 594 1157 631 1136 q 506 1178 557 1178 q 417 1157 454 1178 q 350 1081 381 1136 l 279 1111 q 369 1223 310 1188 q 506 1258 428 1258 z "},"Ā":{"ha":1010,"x_min":25,"x_max":985,"o":"m 761 251 l 250 251 l 142 0 l 25 0 l 456 979 l 554 979 l 985 0 l 869 0 l 761 251 m 721 346 l 506 847 l 290 346 l 721 346 m 297 1211 l 714 1211 l 714 1126 l 297 1126 l 297 1211 z "},"Ą":{"ha":1010,"x_min":25,"x_max":1032,"o":"m 1032 -236 q 913 -268 978 -268 q 795 -227 840 -268 q 750 -122 750 -186 q 777 -31 750 -72 q 854 35 804 10 l 761 251 l 250 251 l 142 0 l 25 0 l 456 979 l 554 979 l 985 0 l 958 0 q 869 -31 900 0 q 838 -107 838 -61 q 862 -172 838 -149 q 929 -194 886 -194 q 1008 -171 965 -194 l 1032 -236 m 721 346 l 506 847 l 290 346 l 721 346 z "},"Å":{"ha":1010,"x_min":25,"x_max":985,"o":"m 761 251 l 250 251 l 142 0 l 25 0 l 443 950 q 387 1000 408 967 q 365 1074 365 1033 q 406 1172 365 1132 q 506 1211 447 1211 q 605 1172 564 1211 q 646 1074 646 1132 q 624 1000 646 1033 q 567 950 603 967 l 985 0 l 869 0 l 761 251 m 506 1143 q 458 1123 476 1143 q 439 1074 439 1103 q 458 1024 439 1044 q 506 1004 476 1004 q 553 1024 535 1004 q 572 1074 572 1044 q 553 1123 572 1103 q 506 1143 535 1143 m 721 346 l 506 847 l 290 346 l 721 346 z "},"Ǻ":{"ha":1010,"x_min":25,"x_max":985,"o":"m 761 251 l 250 251 l 142 0 l 25 0 l 443 950 q 387 1000 408 967 q 365 1074 365 1033 q 406 1172 365 1132 q 506 1211 447 1211 q 578 1192 546 1211 l 689 1307 l 815 1307 l 625 1146 q 646 1074 646 1115 q 624 1000 646 1033 q 567 950 603 967 l 985 0 l 869 0 l 761 251 m 506 1143 q 458 1123 476 1143 q 439 1074 439 1103 q 458 1024 439 1044 q 506 1004 476 1004 q 553 1024 535 1004 q 572 1074 572 1044 q 553 1123 572 1103 q 506 1143 535 1143 m 721 346 l 506 847 l 290 346 l 721 346 z "},"Ã":{"ha":1010,"x_min":25,"x_max":985,"o":"m 761 251 l 250 251 l 142 0 l 25 0 l 456 979 l 554 979 l 985 0 l 869 0 l 761 251 m 721 346 l 506 847 l 290 346 l 721 346 m 282 1092 q 316 1209 282 1167 q 406 1251 350 1251 q 461 1240 435 1251 q 522 1206 488 1228 q 569 1179 551 1188 q 603 1171 586 1171 q 650 1193 633 1171 q 667 1247 667 1215 l 729 1247 q 695 1130 729 1172 q 606 1088 661 1088 q 550 1099 576 1088 q 489 1133 524 1111 q 442 1160 460 1151 q 408 1168 425 1168 q 361 1146 378 1168 q 344 1092 344 1124 l 282 1092 z "},"Æ":{"ha":1376,"x_min":-3,"x_max":1308,"o":"m 713 883 l 786 544 l 1281 544 l 1281 450 l 806 450 l 882 96 l 1308 96 l 1308 0 l 796 0 l 743 251 l 269 251 l 121 0 l -3 0 l 593 979 l 1308 979 l 1308 883 l 713 883 m 722 346 l 618 839 l 325 346 l 722 346 z "},"Ǽ":{"ha":1376,"x_min":-3,"x_max":1308,"o":"m 713 883 l 786 544 l 1281 544 l 1281 450 l 806 450 l 882 96 l 1308 96 l 1308 0 l 796 0 l 743 251 l 269 251 l 121 0 l -3 0 l 593 979 l 1308 979 l 1308 883 l 713 883 m 722 346 l 618 839 l 325 346 l 722 346 m 653 1063 l 793 1274 l 915 1274 l 731 1063 l 653 1063 z "},"B":{"ha":936,"x_min":121,"x_max":854,"o":"m 676 503 q 808 419 761 481 q 854 267 854 358 q 769 69 854 138 q 529 0 685 0 l 121 0 l 121 979 l 514 979 q 749 913 665 979 q 832 724 832 846 q 791 588 832 644 q 676 503 750 531 m 233 544 l 497 544 q 663 589 607 544 q 719 718 719 633 q 497 885 719 885 l 233 885 l 233 544 m 518 94 q 688 137 633 94 q 743 269 743 179 q 518 450 743 450 l 233 450 l 233 94 l 518 94 z "},"C":{"ha":940,"x_min":85,"x_max":872,"o":"m 539 -11 q 297 49 400 -11 q 140 223 194 110 q 85 490 85 336 q 140 757 85 644 q 297 930 194 869 q 539 990 400 990 q 725 959 640 990 q 872 867 810 928 l 829 779 q 690 865 758 839 q 540 892 622 892 q 291 787 379 892 q 203 490 203 682 q 291 192 203 297 q 540 88 379 88 q 690 114 622 88 q 829 200 758 140 l 872 113 q 725 20 810 51 q 539 -11 640 -11 z "},"Ć":{"ha":940,"x_min":85,"x_max":872,"o":"m 539 -11 q 297 49 400 -11 q 140 223 194 110 q 85 490 85 336 q 140 757 85 644 q 297 930 194 869 q 539 990 400 990 q 725 959 640 990 q 872 867 810 928 l 829 779 q 690 865 758 839 q 540 892 622 892 q 291 787 379 892 q 203 490 203 682 q 291 192 203 297 q 540 88 379 88 q 690 114 622 88 q 829 200 758 140 l 872 113 q 725 20 810 51 q 539 -11 640 -11 m 497 1063 l 638 1274 l 760 1274 l 575 1063 l 497 1063 z "},"Č":{"ha":940,"x_min":85,"x_max":872,"o":"m 539 -11 q 297 49 400 -11 q 140 223 194 110 q 85 490 85 336 q 140 757 85 644 q 297 930 194 869 q 539 990 400 990 q 725 959 640 990 q 872 867 810 928 l 829 779 q 690 865 758 839 q 540 892 622 892 q 291 787 379 892 q 203 490 203 682 q 291 192 203 297 q 540 88 379 88 q 690 114 622 88 q 829 200 758 140 l 872 113 q 725 20 810 51 q 539 -11 640 -11 m 739 1274 l 574 1063 l 499 1063 l 333 1274 l 435 1274 l 536 1129 l 638 1274 l 739 1274 z "},"Ç":{"ha":940,"x_min":85,"x_max":872,"o":"m 872 113 q 734 23 814 54 q 560 -11 654 -8 l 554 -60 q 588 -57 576 -57 q 663 -81 632 -57 q 693 -153 693 -106 q 651 -235 693 -203 q 532 -268 608 -268 q 469 -261 504 -268 q 410 -242 435 -254 l 428 -182 q 533 -201 478 -201 q 590 -189 571 -201 q 610 -153 610 -176 q 597 -125 610 -135 q 561 -115 585 -115 q 499 -128 531 -115 l 471 -106 l 482 -8 q 190 142 296 11 q 85 490 85 274 q 140 757 85 644 q 297 930 194 869 q 539 990 400 990 q 725 959 640 990 q 872 867 810 928 l 829 779 q 690 865 758 839 q 540 892 622 892 q 291 787 379 892 q 203 490 203 682 q 291 192 203 297 q 540 88 379 88 q 690 114 622 88 q 829 200 758 140 l 872 113 z "},"Ḉ":{"ha":940,"x_min":85,"x_max":872,"o":"m 575 1063 l 497 1063 l 638 1274 l 760 1274 l 575 1063 m 872 113 q 734 23 814 54 q 560 -11 654 -8 l 554 -60 q 588 -57 576 -57 q 663 -81 632 -57 q 693 -153 693 -106 q 651 -235 693 -203 q 532 -268 608 -268 q 469 -261 504 -268 q 410 -242 435 -254 l 428 -182 q 533 -201 478 -201 q 590 -189 571 -201 q 610 -153 610 -176 q 597 -125 610 -135 q 561 -115 585 -115 q 499 -128 531 -115 l 471 -106 l 482 -8 q 190 142 296 11 q 85 490 85 274 q 140 757 85 644 q 297 930 194 869 q 539 990 400 990 q 725 959 640 990 q 872 867 810 928 l 829 779 q 690 865 758 839 q 540 892 622 892 q 291 787 379 892 q 203 490 203 682 q 291 192 203 297 q 540 88 379 88 q 690 114 622 88 q 829 200 758 140 l 872 113 z "},"Ĉ":{"ha":940,"x_min":85,"x_max":872,"o":"m 539 -11 q 297 49 400 -11 q 140 223 194 110 q 85 490 85 336 q 140 757 85 644 q 297 930 194 869 q 539 990 400 990 q 725 959 640 990 q 872 867 810 928 l 829 779 q 690 865 758 839 q 540 892 622 892 q 291 787 379 892 q 203 490 203 682 q 291 192 203 297 q 540 88 379 88 q 690 114 622 88 q 829 200 758 140 l 872 113 q 725 20 810 51 q 539 -11 640 -11 m 333 1063 l 499 1274 l 574 1274 l 739 1063 l 638 1063 l 536 1206 l 435 1063 l 333 1063 z "},"Ċ":{"ha":940,"x_min":85,"x_max":872,"o":"m 539 -11 q 297 49 400 -11 q 140 223 194 110 q 85 490 85 336 q 140 757 85 644 q 297 930 194 869 q 539 990 400 990 q 725 959 640 990 q 872 867 810 928 l 829 779 q 690 865 758 839 q 540 892 622 892 q 291 787 379 892 q 203 490 203 682 q 291 192 203 297 q 540 88 379 88 q 690 114 622 88 q 829 200 758 140 l 872 113 q 725 20 810 51 q 539 -11 640 -11 m 604 1232 l 604 1106 l 468 1106 l 468 1232 l 604 1232 z "},"D":{"ha":1026,"x_min":121,"x_max":942,"o":"m 121 979 l 450 979 q 813 852 685 979 q 942 490 942 725 q 813 128 942 256 q 450 0 685 0 l 121 0 l 121 979 m 443 97 q 824 490 824 97 q 443 882 824 882 l 235 882 l 235 97 l 443 97 z "},"Ǆ":{"ha":1825,"x_min":121,"x_max":1774,"o":"m 121 979 l 450 979 q 813 852 685 979 q 942 490 942 725 q 813 128 942 256 q 450 0 685 0 l 121 0 l 121 979 m 443 97 q 824 490 824 97 q 443 882 824 882 l 235 882 l 235 97 l 443 97 m 1774 96 l 1774 0 l 1068 0 l 1068 85 l 1628 883 l 1068 883 l 1068 979 l 1760 979 l 1760 896 l 1199 96 l 1774 96 m 1618 1274 l 1453 1063 l 1378 1063 l 1213 1274 l 1314 1274 l 1415 1129 l 1517 1274 l 1618 1274 z "},"Ð":{"ha":1044,"x_min":11,"x_max":960,"o":"m 468 979 q 832 852 704 979 q 960 490 960 725 q 831 128 960 256 q 468 0 703 0 l 139 0 l 139 450 l 11 450 l 11 543 l 139 543 l 139 979 l 468 979 m 463 97 q 747 196 651 97 q 843 490 843 294 q 463 882 843 882 l 253 882 l 253 543 l 521 543 l 521 450 l 253 450 l 253 97 l 463 97 z "},"Ď":{"ha":1026,"x_min":121,"x_max":942,"o":"m 121 979 l 450 979 q 813 852 685 979 q 942 490 942 725 q 813 128 942 256 q 450 0 685 0 l 121 0 l 121 979 m 443 97 q 824 490 824 97 q 443 882 824 882 l 235 882 l 235 97 l 443 97 m 715 1274 l 550 1063 l 475 1063 l 310 1274 l 411 1274 l 513 1129 l 614 1274 l 715 1274 z "},"Đ":{"ha":1044,"x_min":11,"x_max":960,"o":"m 468 979 q 832 852 704 979 q 960 490 960 725 q 831 128 960 256 q 468 0 703 0 l 139 0 l 139 450 l 11 450 l 11 543 l 139 543 l 139 979 l 468 979 m 463 97 q 747 196 651 97 q 843 490 843 294 q 463 882 843 882 l 253 882 l 253 543 l 521 543 l 521 450 l 253 450 l 253 97 l 463 97 z "},"Ḍ":{"ha":1026,"x_min":121,"x_max":942,"o":"m 121 979 l 450 979 q 813 852 685 979 q 942 490 942 725 q 813 128 942 256 q 450 0 685 0 l 121 0 l 121 979 m 443 97 q 824 490 824 97 q 443 882 824 882 l 235 882 l 235 97 l 443 97 m 578 -131 l 578 -253 l 450 -253 l 450 -131 l 578 -131 z "},"Ḏ":{"ha":1026,"x_min":121,"x_max":942,"o":"m 121 979 l 450 979 q 813 852 685 979 q 942 490 942 725 q 813 128 942 256 q 450 0 685 0 l 121 0 l 121 979 m 443 97 q 824 490 824 97 q 443 882 824 882 l 235 882 l 235 97 l 443 97 m 306 -151 l 722 -151 l 722 -233 l 306 -233 l 306 -151 z "},"ǅ":{"ha":1725,"x_min":121,"x_max":1667,"o":"m 121 979 l 450 979 q 813 852 685 979 q 942 490 942 725 q 813 128 942 256 q 450 0 685 0 l 121 0 l 121 979 m 443 97 q 824 490 824 97 q 443 882 824 882 l 235 882 l 235 97 l 443 97 m 1667 89 l 1667 0 l 1093 0 l 1093 78 l 1515 588 l 1107 588 l 1107 676 l 1651 676 l 1651 594 l 1232 89 l 1667 89 m 1585 1046 l 1421 765 l 1343 765 l 1179 1046 l 1282 1046 l 1382 847 l 1482 1046 l 1585 1046 z "},"E":{"ha":808,"x_min":121,"x_max":740,"o":"m 121 979 l 740 979 l 740 885 l 233 885 l 233 544 l 713 544 l 713 450 l 233 450 l 233 94 l 740 94 l 740 0 l 121 0 l 121 979 z "},"É":{"ha":808,"x_min":121,"x_max":740,"o":"m 121 979 l 740 979 l 740 885 l 233 885 l 233 544 l 713 544 l 713 450 l 233 450 l 233 94 l 740 94 l 740 0 l 121 0 l 121 979 m 411 1063 l 551 1274 l 674 1274 l 489 1063 l 411 1063 z "},"Ĕ":{"ha":808,"x_min":121,"x_max":740,"o":"m 121 979 l 740 979 l 740 885 l 233 885 l 233 544 l 713 544 l 713 450 l 233 450 l 233 94 l 740 94 l 740 0 l 121 0 l 121 979 m 450 1079 q 313 1115 372 1079 q 224 1226 254 1150 l 294 1257 q 362 1181 325 1201 q 450 1160 399 1160 q 538 1181 501 1160 q 606 1257 575 1201 l 676 1226 q 587 1115 646 1150 q 450 1079 528 1079 z "},"Ě":{"ha":808,"x_min":121,"x_max":740,"o":"m 121 979 l 740 979 l 740 885 l 233 885 l 233 544 l 713 544 l 713 450 l 233 450 l 233 94 l 740 94 l 740 0 l 121 0 l 121 979 m 653 1274 l 488 1063 l 413 1063 l 247 1274 l 349 1274 l 450 1129 l 551 1274 l 653 1274 z "},"Ȩ":{"ha":808,"x_min":121,"x_max":740,"o":"m 233 885 l 233 544 l 713 544 l 713 450 l 233 450 l 233 94 l 740 94 l 740 0 l 476 0 l 469 -60 q 503 -57 492 -57 q 578 -81 547 -57 q 608 -153 608 -106 q 566 -235 608 -203 q 447 -268 524 -268 q 385 -261 419 -268 q 325 -242 350 -254 l 343 -182 q 449 -201 393 -201 q 506 -189 486 -201 q 525 -153 525 -176 q 513 -125 525 -135 q 476 -115 500 -115 q 414 -128 446 -115 l 386 -106 l 399 0 l 121 0 l 121 979 l 740 979 l 740 885 l 233 885 z "},"Ḝ":{"ha":808,"x_min":121,"x_max":740,"o":"m 450 1079 q 313 1115 372 1079 q 224 1226 254 1150 l 294 1257 q 362 1181 325 1201 q 450 1160 399 1160 q 538 1181 501 1160 q 606 1257 575 1201 l 676 1226 q 587 1115 646 1150 q 450 1079 528 1079 m 233 885 l 233 544 l 713 544 l 713 450 l 233 450 l 233 94 l 740 94 l 740 0 l 476 0 l 469 -60 q 503 -57 492 -57 q 578 -81 547 -57 q 608 -153 608 -106 q 566 -235 608 -203 q 447 -268 524 -268 q 385 -261 419 -268 q 325 -242 350 -254 l 343 -182 q 449 -201 393 -201 q 506 -189 486 -201 q 525 -153 525 -176 q 513 -125 525 -135 q 476 -115 500 -115 q 414 -128 446 -115 l 386 -106 l 399 0 l 121 0 l 121 979 l 740 979 l 740 885 l 233 885 z "},"Ê":{"ha":808,"x_min":121,"x_max":740,"o":"m 121 979 l 740 979 l 740 885 l 233 885 l 233 544 l 713 544 l 713 450 l 233 450 l 233 94 l 740 94 l 740 0 l 121 0 l 121 979 m 247 1063 l 413 1274 l 488 1274 l 653 1063 l 551 1063 l 450 1206 l 349 1063 l 247 1063 z "},"Ế":{"ha":808,"x_min":121,"x_max":813,"o":"m 121 979 l 740 979 l 740 885 l 233 885 l 233 544 l 713 544 l 713 450 l 233 450 l 233 94 l 740 94 l 740 0 l 121 0 l 121 979 m 568 1206 l 694 1401 l 813 1401 l 636 1206 l 568 1206 m 247 1063 l 413 1267 l 488 1267 l 653 1063 l 551 1063 l 450 1200 l 349 1063 l 247 1063 z "},"Ệ":{"ha":808,"x_min":121,"x_max":740,"o":"m 121 979 l 740 979 l 740 885 l 233 885 l 233 544 l 713 544 l 713 450 l 233 450 l 233 94 l 740 94 l 740 0 l 121 0 l 121 979 m 514 -131 l 514 -253 l 386 -253 l 386 -131 l 514 -131 m 247 1063 l 413 1274 l 488 1274 l 653 1063 l 551 1063 l 450 1206 l 349 1063 l 247 1063 z "},"Ề":{"ha":808,"x_min":121,"x_max":740,"o":"m 121 979 l 740 979 l 740 885 l 233 885 l 233 544 l 713 544 l 713 450 l 233 450 l 233 94 l 740 94 l 740 0 l 121 0 l 121 979 m 471 1401 l 589 1401 l 696 1206 l 626 1206 l 471 1401 m 247 1063 l 413 1267 l 488 1267 l 653 1063 l 551 1063 l 450 1200 l 349 1063 l 247 1063 z "},"Ể":{"ha":808,"x_min":121,"x_max":749,"o":"m 121 979 l 740 979 l 740 885 l 233 885 l 233 544 l 713 544 l 713 450 l 233 450 l 233 94 l 740 94 l 740 0 l 121 0 l 121 979 m 640 1206 l 567 1206 l 567 1229 q 582 1266 567 1253 q 625 1290 597 1279 q 651 1304 643 1299 q 660 1318 660 1310 q 644 1336 660 1329 q 603 1343 629 1343 q 518 1326 563 1343 l 499 1385 q 611 1410 556 1410 q 712 1385 675 1410 q 749 1322 749 1361 q 733 1285 749 1297 q 686 1257 718 1272 q 652 1239 664 1247 q 640 1218 640 1231 l 640 1206 m 247 1063 l 413 1267 l 488 1267 l 653 1063 l 551 1063 l 450 1200 l 349 1063 l 247 1063 z "},"Ễ":{"ha":808,"x_min":121,"x_max":740,"o":"m 121 979 l 740 979 l 740 885 l 233 885 l 233 544 l 713 544 l 713 450 l 233 450 l 233 94 l 740 94 l 740 0 l 121 0 l 121 979 m 226 1288 q 260 1385 226 1347 q 350 1424 294 1424 q 406 1415 379 1424 q 467 1389 432 1406 q 509 1372 488 1379 q 547 1364 531 1364 q 594 1383 576 1364 q 611 1426 611 1401 l 674 1426 q 639 1328 674 1367 q 550 1289 604 1289 q 494 1298 521 1289 q 433 1324 468 1307 q 391 1341 413 1333 q 353 1349 369 1349 q 306 1331 324 1349 q 289 1288 289 1313 l 226 1288 m 247 1063 l 413 1267 l 488 1267 l 653 1063 l 551 1063 l 450 1200 l 349 1063 l 247 1063 z "},"Ȅ":{"ha":808,"x_min":121,"x_max":740,"o":"m 121 979 l 740 979 l 740 885 l 233 885 l 233 544 l 713 544 l 713 450 l 233 450 l 233 94 l 740 94 l 740 0 l 121 0 l 121 979 m 201 1274 l 299 1274 l 397 1063 l 336 1063 l 201 1274 m 367 1274 l 465 1274 l 564 1063 l 503 1063 l 367 1274 z "},"Ë":{"ha":808,"x_min":121,"x_max":740,"o":"m 121 979 l 740 979 l 740 885 l 233 885 l 233 544 l 713 544 l 713 450 l 233 450 l 233 94 l 740 94 l 740 0 l 121 0 l 121 979 m 393 1229 l 393 1110 l 269 1110 l 269 1229 l 393 1229 m 631 1229 l 631 1110 l 507 1110 l 507 1229 l 631 1229 z "},"Ė":{"ha":808,"x_min":121,"x_max":740,"o":"m 121 979 l 740 979 l 740 885 l 233 885 l 233 544 l 713 544 l 713 450 l 233 450 l 233 94 l 740 94 l 740 0 l 121 0 l 121 979 m 518 1232 l 518 1106 l 382 1106 l 382 1232 l 518 1232 z "},"Ẹ":{"ha":808,"x_min":121,"x_max":740,"o":"m 121 979 l 740 979 l 740 885 l 233 885 l 233 544 l 713 544 l 713 450 l 233 450 l 233 94 l 740 94 l 740 0 l 121 0 l 121 979 m 514 -131 l 514 -253 l 386 -253 l 386 -131 l 514 -131 z "},"È":{"ha":808,"x_min":121,"x_max":740,"o":"m 121 979 l 740 979 l 740 885 l 233 885 l 233 544 l 713 544 l 713 450 l 233 450 l 233 94 l 740 94 l 740 0 l 121 0 l 121 979 m 226 1274 l 349 1274 l 489 1063 l 411 1063 l 226 1274 z "},"Ẻ":{"ha":808,"x_min":121,"x_max":740,"o":"m 121 979 l 740 979 l 740 885 l 233 885 l 233 544 l 713 544 l 713 450 l 233 450 l 233 94 l 740 94 l 740 0 l 121 0 l 121 979 m 488 1063 l 414 1063 l 414 1088 q 429 1126 414 1111 q 471 1153 444 1140 q 499 1170 490 1164 q 507 1186 507 1176 q 492 1206 507 1199 q 450 1213 476 1213 q 365 1196 410 1213 l 346 1256 q 458 1279 400 1279 q 559 1255 522 1279 q 596 1190 596 1231 q 579 1149 596 1164 q 532 1119 563 1133 q 498 1099 508 1107 q 488 1076 488 1090 l 488 1063 z "},"Ȇ":{"ha":808,"x_min":121,"x_max":740,"o":"m 121 979 l 740 979 l 740 885 l 233 885 l 233 544 l 713 544 l 713 450 l 233 450 l 233 94 l 740 94 l 740 0 l 121 0 l 121 979 m 450 1258 q 587 1223 528 1258 q 676 1111 646 1188 l 606 1081 q 538 1157 575 1136 q 450 1178 501 1178 q 362 1157 399 1178 q 294 1081 325 1136 l 224 1111 q 313 1223 254 1188 q 450 1258 372 1258 z "},"Ē":{"ha":808,"x_min":121,"x_max":740,"o":"m 121 979 l 740 979 l 740 885 l 233 885 l 233 544 l 713 544 l 713 450 l 233 450 l 233 94 l 740 94 l 740 0 l 121 0 l 121 979 m 242 1211 l 658 1211 l 658 1126 l 242 1126 l 242 1211 z "},"Ḗ":{"ha":808,"x_min":121,"x_max":740,"o":"m 121 979 l 740 979 l 740 885 l 233 885 l 233 544 l 713 544 l 713 450 l 233 450 l 233 94 l 740 94 l 740 0 l 121 0 l 121 979 m 242 1211 l 658 1211 l 658 1126 l 242 1126 l 242 1211 m 411 1285 l 551 1496 l 674 1496 l 489 1285 l 411 1285 z "},"Ḕ":{"ha":808,"x_min":121,"x_max":740,"o":"m 121 979 l 740 979 l 740 885 l 233 885 l 233 544 l 713 544 l 713 450 l 233 450 l 233 94 l 740 94 l 740 0 l 121 0 l 121 979 m 242 1211 l 658 1211 l 658 1126 l 242 1126 l 242 1211 m 226 1496 l 349 1496 l 489 1285 l 411 1285 l 226 1496 z "},"Ę":{"ha":808,"x_min":121,"x_max":788,"o":"m 788 -236 q 668 -268 733 -268 q 551 -227 596 -268 q 506 -122 506 -186 q 563 0 506 -49 l 121 0 l 121 979 l 740 979 l 740 885 l 233 885 l 233 544 l 713 544 l 713 450 l 233 450 l 233 94 l 740 94 l 740 0 l 719 0 q 626 -30 658 0 q 593 -107 593 -60 q 617 -172 593 -149 q 685 -194 642 -194 q 765 -171 721 -194 l 788 -236 z "},"Ẽ":{"ha":808,"x_min":121,"x_max":740,"o":"m 121 979 l 740 979 l 740 885 l 233 885 l 233 544 l 713 544 l 713 450 l 233 450 l 233 94 l 740 94 l 740 0 l 121 0 l 121 979 m 226 1092 q 260 1209 226 1167 q 350 1251 294 1251 q 406 1240 379 1251 q 467 1206 432 1228 q 513 1179 496 1188 q 547 1171 531 1171 q 594 1193 578 1171 q 611 1247 611 1215 l 674 1247 q 640 1130 674 1172 q 550 1088 606 1088 q 494 1099 521 1088 q 433 1133 468 1111 q 387 1160 404 1151 q 353 1168 369 1168 q 306 1146 322 1168 q 289 1092 289 1124 l 226 1092 z "},"F":{"ha":774,"x_min":121,"x_max":726,"o":"m 121 979 l 726 979 l 726 883 l 233 883 l 233 546 l 699 546 l 699 450 l 233 450 l 233 0 l 121 0 l 121 979 z "},"G":{"ha":1006,"x_min":85,"x_max":896,"o":"m 896 510 l 896 57 q 744 8 838 26 q 554 -11 650 -11 q 303 49 408 -11 q 141 221 197 108 q 85 490 85 333 q 140 758 85 646 q 300 931 196 871 q 546 990 404 990 q 735 959 649 990 q 882 867 821 928 l 839 779 q 699 867 768 840 q 546 893 631 893 q 292 789 381 893 q 203 490 203 685 q 293 188 203 292 q 557 85 383 85 q 792 122 683 85 l 792 421 l 549 421 l 549 510 l 896 510 z "},"Ğ":{"ha":1006,"x_min":85,"x_max":896,"o":"m 896 510 l 896 57 q 744 8 838 26 q 554 -11 650 -11 q 303 49 408 -11 q 141 221 197 108 q 85 490 85 333 q 140 758 85 646 q 300 931 196 871 q 546 990 404 990 q 735 959 649 990 q 882 867 821 928 l 839 779 q 699 867 768 840 q 546 893 631 893 q 292 789 381 893 q 203 490 203 685 q 293 188 203 292 q 557 85 383 85 q 792 122 683 85 l 792 421 l 549 421 l 549 510 l 896 510 m 544 1079 q 408 1115 467 1079 q 318 1226 349 1150 l 389 1257 q 456 1181 419 1201 q 544 1160 493 1160 q 633 1181 596 1160 q 700 1257 669 1201 l 771 1226 q 681 1115 740 1150 q 544 1079 622 1079 z "},"Ǧ":{"ha":1006,"x_min":85,"x_max":896,"o":"m 896 510 l 896 57 q 744 8 838 26 q 554 -11 650 -11 q 303 49 408 -11 q 141 221 197 108 q 85 490 85 333 q 140 758 85 646 q 300 931 196 871 q 546 990 404 990 q 735 959 649 990 q 882 867 821 928 l 839 779 q 699 867 768 840 q 546 893 631 893 q 292 789 381 893 q 203 490 203 685 q 293 188 203 292 q 557 85 383 85 q 792 122 683 85 l 792 421 l 549 421 l 549 510 l 896 510 m 747 1274 l 582 1063 l 507 1063 l 342 1274 l 443 1274 l 544 1129 l 646 1274 l 747 1274 z "},"Ĝ":{"ha":1006,"x_min":85,"x_max":896,"o":"m 896 510 l 896 57 q 744 8 838 26 q 554 -11 650 -11 q 303 49 408 -11 q 141 221 197 108 q 85 490 85 333 q 140 758 85 646 q 300 931 196 871 q 546 990 404 990 q 735 959 649 990 q 882 867 821 928 l 839 779 q 699 867 768 840 q 546 893 631 893 q 292 789 381 893 q 203 490 203 685 q 293 188 203 292 q 557 85 383 85 q 792 122 683 85 l 792 421 l 549 421 l 549 510 l 896 510 m 342 1063 l 507 1274 l 582 1274 l 747 1063 l 646 1063 l 544 1206 l 443 1063 l 342 1063 z "},"Ģ":{"ha":1006,"x_min":85,"x_max":896,"o":"m 896 510 l 896 57 q 744 8 838 26 q 554 -11 650 -11 q 303 49 408 -11 q 141 221 197 108 q 85 490 85 333 q 140 758 85 646 q 300 931 196 871 q 546 990 404 990 q 735 959 649 990 q 882 867 821 928 l 839 779 q 699 867 768 840 q 546 893 631 893 q 292 789 381 893 q 203 490 203 685 q 293 188 203 292 q 557 85 383 85 q 792 122 683 85 l 792 421 l 549 421 l 549 510 l 896 510 m 622 -100 l 622 -181 q 606 -279 622 -236 q 551 -360 590 -322 l 500 -322 q 538 -270 526 -296 q 551 -215 549 -244 l 486 -215 l 486 -100 l 622 -100 z "},"Ġ":{"ha":1006,"x_min":85,"x_max":896,"o":"m 896 510 l 896 57 q 744 8 838 26 q 554 -11 650 -11 q 303 49 408 -11 q 141 221 197 108 q 85 490 85 333 q 140 758 85 646 q 300 931 196 871 q 546 990 404 990 q 735 959 649 990 q 882 867 821 928 l 839 779 q 699 867 768 840 q 546 893 631 893 q 292 789 381 893 q 203 490 203 685 q 293 188 203 292 q 557 85 383 85 q 792 122 683 85 l 792 421 l 549 421 l 549 510 l 896 510 m 613 1232 l 613 1106 l 476 1106 l 476 1232 l 613 1232 z "},"Ḡ":{"ha":1006,"x_min":85,"x_max":896,"o":"m 896 510 l 896 57 q 744 8 838 26 q 554 -11 650 -11 q 303 49 408 -11 q 141 221 197 108 q 85 490 85 333 q 140 758 85 646 q 300 931 196 871 q 546 990 404 990 q 735 959 649 990 q 882 867 821 928 l 839 779 q 699 867 768 840 q 546 893 631 893 q 292 789 381 893 q 203 490 203 685 q 293 188 203 292 q 557 85 383 85 q 792 122 683 85 l 792 421 l 549 421 l 549 510 l 896 510 m 336 1211 l 753 1211 l 753 1126 l 336 1126 l 336 1211 z "},"H":{"ha":1053,"x_min":121,"x_max":932,"o":"m 932 979 l 932 0 l 819 0 l 819 449 l 233 449 l 233 0 l 121 0 l 121 979 l 233 979 l 233 546 l 819 546 l 819 979 l 932 979 z "},"Ħ":{"ha":1090,"x_min":11,"x_max":1079,"o":"m 1079 722 l 951 722 l 951 0 l 838 0 l 838 449 l 253 449 l 253 0 l 139 0 l 139 722 l 11 722 l 11 813 l 139 813 l 139 979 l 253 979 l 253 813 l 838 813 l 838 979 l 951 979 l 951 813 l 1079 813 l 1079 722 m 838 722 l 253 722 l 253 546 l 838 546 l 838 722 z "},"Ḫ":{"ha":1053,"x_min":121,"x_max":932,"o":"m 932 979 l 932 0 l 819 0 l 819 449 l 233 449 l 233 0 l 121 0 l 121 979 l 233 979 l 233 546 l 819 546 l 819 979 l 932 979 m 526 -293 q 388 -250 450 -293 q 297 -118 326 -207 l 368 -87 q 438 -182 399 -153 q 526 -211 476 -211 q 615 -182 576 -211 q 685 -87 654 -153 l 756 -117 q 666 -250 728 -207 q 526 -293 604 -293 z "},"Ĥ":{"ha":1053,"x_min":121,"x_max":932,"o":"m 932 979 l 932 0 l 819 0 l 819 449 l 233 449 l 233 0 l 121 0 l 121 979 l 233 979 l 233 546 l 819 546 l 819 979 l 932 979 m 324 1063 l 489 1274 l 564 1274 l 729 1063 l 628 1063 l 526 1206 l 425 1063 l 324 1063 z "},"Ḥ":{"ha":1053,"x_min":121,"x_max":932,"o":"m 932 979 l 932 0 l 819 0 l 819 449 l 233 449 l 233 0 l 121 0 l 121 979 l 233 979 l 233 546 l 819 546 l 819 979 l 932 979 m 590 -131 l 590 -253 l 463 -253 l 463 -131 l 590 -131 z "},"I":{"ha":356,"x_min":121,"x_max":235,"o":"m 121 979 l 235 979 l 235 0 l 121 0 l 121 979 z "},"Í":{"ha":356,"x_min":121,"x_max":401,"o":"m 121 979 l 235 979 l 235 0 l 121 0 l 121 979 m 139 1063 l 279 1274 l 401 1274 l 217 1063 l 139 1063 z "},"Ĭ":{"ha":356,"x_min":-49,"x_max":404,"o":"m 121 979 l 235 979 l 235 0 l 121 0 l 121 979 m 178 1079 q 41 1115 100 1079 q -49 1226 -18 1150 l 22 1257 q 90 1181 53 1201 q 178 1160 126 1160 q 266 1181 229 1160 q 333 1257 303 1201 l 404 1226 q 315 1115 374 1150 q 178 1079 256 1079 z "},"Î":{"ha":356,"x_min":-25,"x_max":381,"o":"m 121 979 l 235 979 l 235 0 l 121 0 l 121 979 m -25 1063 l 140 1274 l 215 1274 l 381 1063 l 279 1063 l 178 1206 l 76 1063 l -25 1063 z "},"Ȉ":{"ha":356,"x_min":-71,"x_max":292,"o":"m 121 979 l 235 979 l 235 0 l 121 0 l 121 979 m -71 1274 l 26 1274 l 125 1063 l 64 1063 l -71 1274 m 94 1274 l 193 1274 l 292 1063 l 231 1063 l 94 1274 z "},"Ï":{"ha":356,"x_min":-3,"x_max":358,"o":"m 121 979 l 235 979 l 235 0 l 121 0 l 121 979 m 121 1229 l 121 1110 l -3 1110 l -3 1229 l 121 1229 m 358 1229 l 358 1110 l 235 1110 l 235 1229 l 358 1229 z "},"Ḯ":{"ha":356,"x_min":-3,"x_max":401,"o":"m 121 979 l 235 979 l 235 0 l 121 0 l 121 979 m 121 1229 l 121 1110 l -3 1110 l -3 1229 l 121 1229 m 358 1229 l 358 1110 l 235 1110 l 235 1229 l 358 1229 m 139 1285 l 279 1496 l 401 1496 l 217 1285 l 139 1285 z "},"İ":{"ha":356,"x_min":110,"x_max":246,"o":"m 121 979 l 235 979 l 235 0 l 121 0 l 121 979 m 246 1232 l 246 1106 l 110 1106 l 110 1232 l 246 1232 z "},"Ị":{"ha":356,"x_min":114,"x_max":242,"o":"m 121 979 l 235 979 l 235 0 l 121 0 l 121 979 m 242 -131 l 242 -253 l 114 -253 l 114 -131 l 242 -131 z "},"Ì":{"ha":356,"x_min":-46,"x_max":235,"o":"m 121 979 l 235 979 l 235 0 l 121 0 l 121 979 m -46 1274 l 76 1274 l 217 1063 l 139 1063 l -46 1274 z "},"Ỉ":{"ha":356,"x_min":74,"x_max":324,"o":"m 121 979 l 235 979 l 235 0 l 121 0 l 121 979 m 215 1063 l 142 1063 l 142 1088 q 157 1126 142 1111 q 199 1153 172 1140 q 226 1170 218 1164 q 235 1186 235 1176 q 219 1206 235 1199 q 178 1213 204 1213 q 93 1196 138 1213 l 74 1256 q 186 1279 128 1279 q 287 1255 250 1279 q 324 1190 324 1231 q 307 1149 324 1164 q 260 1119 290 1133 q 226 1099 236 1107 q 215 1076 215 1090 l 215 1063 z "},"Ȋ":{"ha":356,"x_min":-49,"x_max":404,"o":"m 121 979 l 235 979 l 235 0 l 121 0 l 121 979 m 178 1258 q 315 1223 256 1258 q 404 1111 374 1188 l 333 1081 q 266 1157 303 1136 q 178 1178 229 1178 q 90 1157 126 1178 q 22 1081 53 1136 l -49 1111 q 41 1223 -18 1188 q 178 1258 100 1258 z "},"Ī":{"ha":356,"x_min":-31,"x_max":386,"o":"m 121 979 l 235 979 l 235 0 l 121 0 l 121 979 m -31 1211 l 386 1211 l 386 1126 l -31 1126 l -31 1211 z "},"Į":{"ha":356,"x_min":13,"x_max":294,"o":"m 294 -236 q 175 -268 240 -268 q 58 -227 103 -268 q 13 -121 13 -186 q 40 -31 13 -71 q 121 33 68 10 l 121 979 l 235 979 l 235 0 l 225 0 q 134 -31 168 0 q 100 -107 100 -61 q 125 -172 100 -149 q 192 -194 150 -194 q 272 -171 228 -194 l 294 -236 z "},"Ĩ":{"ha":356,"x_min":-46,"x_max":401,"o":"m 121 979 l 235 979 l 235 0 l 121 0 l 121 979 m -46 1092 q -12 1209 -46 1167 q 78 1251 22 1251 q 133 1240 107 1251 q 194 1206 160 1228 q 241 1179 224 1188 q 275 1171 258 1171 q 322 1193 306 1171 q 339 1247 339 1215 l 401 1247 q 367 1130 401 1172 q 278 1088 333 1088 q 222 1099 249 1088 q 161 1133 196 1111 q 115 1160 132 1151 q 81 1168 97 1168 q 33 1146 50 1168 q 17 1092 17 1124 l -46 1092 z "},"J":{"ha":453,"x_min":-11,"x_max":332,"o":"m -11 86 l 72 92 q 180 141 142 97 q 218 261 218 185 l 218 979 l 332 979 l 332 260 q 269 71 332 139 q 88 -4 207 3 l -3 -10 l -11 86 z "},"Ĵ":{"ha":453,"x_min":-11,"x_max":478,"o":"m -11 86 l 72 92 q 180 141 142 97 q 218 261 218 185 l 218 979 l 332 979 l 332 260 q 269 71 332 139 q 88 -4 207 3 l -3 -10 l -11 86 m 72 1063 l 238 1274 l 313 1274 l 478 1063 l 376 1063 l 275 1206 l 174 1063 l 72 1063 z "},"K":{"ha":872,"x_min":121,"x_max":886,"o":"m 739 0 l 235 465 l 235 0 l 121 0 l 121 979 l 235 979 l 235 529 l 715 979 l 860 979 l 349 503 l 886 0 l 739 0 z "},"Ķ":{"ha":872,"x_min":121,"x_max":886,"o":"m 739 0 l 235 465 l 235 0 l 121 0 l 121 979 l 235 979 l 235 529 l 715 979 l 860 979 l 349 503 l 886 0 l 739 0 m 507 -100 l 507 -181 q 491 -279 507 -236 q 436 -360 475 -322 l 385 -322 q 422 -270 411 -296 q 436 -215 433 -244 l 371 -215 l 371 -100 l 507 -100 z "},"L":{"ha":750,"x_min":121,"x_max":725,"o":"m 121 979 l 235 979 l 235 97 l 725 97 l 725 0 l 121 0 l 121 979 z "},"Ǉ":{"ha":1201,"x_min":121,"x_max":1082,"o":"m 121 979 l 235 979 l 235 97 l 683 97 l 683 0 l 121 0 l 121 979 m 739 86 l 821 92 q 931 135 894 97 q 967 246 967 172 l 967 979 l 1082 979 l 1082 251 q 1020 67 1082 132 q 838 -4 958 3 l 746 -10 l 739 86 z "},"Ĺ":{"ha":750,"x_min":121,"x_max":725,"o":"m 121 979 l 235 979 l 235 97 l 725 97 l 725 0 l 121 0 l 121 979 m 139 1063 l 279 1274 l 401 1274 l 217 1063 l 139 1063 z "},"Ľ":{"ha":750,"x_min":121,"x_max":725,"o":"m 121 979 l 235 979 l 235 97 l 725 97 l 725 0 l 121 0 l 121 979 m 351 715 l 351 979 l 449 979 l 413 715 l 351 715 z "},"Ļ":{"ha":750,"x_min":121,"x_max":725,"o":"m 121 979 l 235 979 l 235 97 l 725 97 l 725 0 l 121 0 l 121 979 m 497 -100 l 497 -181 q 481 -279 497 -236 q 426 -360 465 -322 l 375 -322 q 413 -270 401 -296 q 426 -215 424 -244 l 361 -215 l 361 -100 l 497 -100 z "},"Ŀ":{"ha":750,"x_min":121,"x_max":725,"o":"m 121 979 l 235 979 l 235 97 l 725 97 l 725 0 l 121 0 l 121 979 m 557 556 l 557 425 l 415 425 l 415 556 l 557 556 z "},"Ḷ":{"ha":750,"x_min":121,"x_max":725,"o":"m 121 979 l 235 979 l 235 97 l 725 97 l 725 0 l 121 0 l 121 979 m 493 -131 l 493 -253 l 365 -253 l 365 -131 l 493 -131 z "},"ǈ":{"ha":1072,"x_min":121,"x_max":979,"o":"m 121 979 l 235 979 l 235 97 l 725 97 l 725 0 l 121 0 l 121 979 m 967 7 q 906 -181 967 -118 q 717 -251 844 -243 l 654 -256 l 646 -168 l 708 -164 q 854 -8 854 -154 l 854 676 l 967 676 l 967 7 m 979 969 l 979 843 l 843 843 l 843 969 l 979 969 z "},"Ḻ":{"ha":750,"x_min":121,"x_max":725,"o":"m 121 979 l 235 979 l 235 97 l 725 97 l 725 0 l 121 0 l 121 979 m 221 -151 l 638 -151 l 638 -233 l 221 -233 l 221 -151 z "},"Ł":{"ha":768,"x_min":-10,"x_max":744,"o":"m 744 97 l 744 0 l 139 0 l 139 410 l 36 350 l -10 431 l 139 517 l 139 979 l 253 979 l 253 582 l 489 718 l 535 638 l 253 475 l 253 97 l 744 97 z "},"M":{"ha":1168,"x_min":121,"x_max":1046,"o":"m 1046 979 l 1046 0 l 942 0 l 943 758 l 625 156 l 544 156 l 225 753 l 226 0 l 121 0 l 121 979 l 215 979 l 586 269 l 953 979 l 1046 979 z "},"Ṃ":{"ha":1168,"x_min":121,"x_max":1046,"o":"m 1046 979 l 1046 0 l 942 0 l 943 758 l 625 156 l 544 156 l 225 753 l 226 0 l 121 0 l 121 979 l 215 979 l 586 269 l 953 979 l 1046 979 m 647 -131 l 647 -253 l 519 -253 l 519 -131 l 647 -131 z "},"N":{"ha":1026,"x_min":121,"x_max":906,"o":"m 906 979 l 906 0 l 818 0 l 228 788 l 228 0 l 121 0 l 121 979 l 208 979 l 799 192 l 799 979 l 906 979 z "},"Ǌ":{"ha":1479,"x_min":121,"x_max":1358,"o":"m 906 979 l 906 0 l 818 0 l 228 788 l 228 0 l 121 0 l 121 979 l 208 979 l 799 192 l 799 979 l 906 979 m 1015 86 l 1099 92 q 1206 141 1168 97 q 1244 261 1244 185 l 1244 979 l 1358 979 l 1358 260 q 1296 71 1358 139 q 1114 -4 1233 3 l 1024 -10 l 1015 86 z "},"Ń":{"ha":1026,"x_min":121,"x_max":906,"o":"m 906 979 l 906 0 l 818 0 l 228 788 l 228 0 l 121 0 l 121 979 l 208 979 l 799 192 l 799 979 l 906 979 m 474 1063 l 614 1274 l 736 1274 l 551 1063 l 474 1063 z "},"Ň":{"ha":1026,"x_min":121,"x_max":906,"o":"m 906 979 l 906 0 l 818 0 l 228 788 l 228 0 l 121 0 l 121 979 l 208 979 l 799 192 l 799 979 l 906 979 m 715 1274 l 550 1063 l 475 1063 l 310 1274 l 411 1274 l 513 1129 l 614 1274 l 715 1274 z "},"Ņ":{"ha":1026,"x_min":121,"x_max":906,"o":"m 906 979 l 906 0 l 818 0 l 228 788 l 228 0 l 121 0 l 121 979 l 208 979 l 799 192 l 799 979 l 906 979 m 582 -100 l 582 -181 q 566 -279 582 -236 q 511 -360 550 -322 l 460 -322 q 497 -270 486 -296 q 511 -215 508 -244 l 446 -215 l 446 -100 l 582 -100 z "},"Ṅ":{"ha":1026,"x_min":121,"x_max":906,"o":"m 906 979 l 906 0 l 818 0 l 228 788 l 228 0 l 121 0 l 121 979 l 208 979 l 799 192 l 799 979 l 906 979 m 581 1232 l 581 1106 l 444 1106 l 444 1232 l 581 1232 z "},"Ṇ":{"ha":1026,"x_min":121,"x_max":906,"o":"m 906 979 l 906 0 l 818 0 l 228 788 l 228 0 l 121 0 l 121 979 l 208 979 l 799 192 l 799 979 l 906 979 m 578 -131 l 578 -253 l 450 -253 l 450 -131 l 578 -131 z "},"Ŋ":{"ha":1026,"x_min":121,"x_max":906,"o":"m 906 979 l 906 1 q 661 -253 906 -237 l 571 -260 l 564 -167 l 646 -161 q 759 -115 719 -154 q 799 -4 799 -76 l 799 26 l 228 788 l 228 0 l 121 0 l 121 979 l 208 979 l 799 192 l 799 979 l 906 979 z "},"ǋ":{"ha":1349,"x_min":121,"x_max":1256,"o":"m 906 979 l 906 0 l 818 0 l 228 788 l 228 0 l 121 0 l 121 979 l 208 979 l 799 192 l 799 979 l 906 979 m 1243 7 q 1182 -181 1243 -118 q 993 -251 1121 -243 l 931 -256 l 922 -168 l 985 -164 q 1131 -8 1131 -154 l 1131 676 l 1243 676 l 1243 7 m 1256 969 l 1256 843 l 1119 843 l 1119 969 l 1256 969 z "},"Ṉ":{"ha":1026,"x_min":121,"x_max":906,"o":"m 906 979 l 906 0 l 818 0 l 228 788 l 228 0 l 121 0 l 121 979 l 208 979 l 799 192 l 799 979 l 906 979 m 306 -151 l 722 -151 l 722 -233 l 306 -233 l 306 -151 z "},"Ñ":{"ha":1026,"x_min":121,"x_max":906,"o":"m 906 979 l 906 0 l 818 0 l 228 788 l 228 0 l 121 0 l 121 979 l 208 979 l 799 192 l 799 979 l 906 979 m 289 1092 q 323 1209 289 1167 q 413 1251 357 1251 q 468 1240 442 1251 q 529 1206 494 1228 q 576 1179 558 1188 q 610 1171 593 1171 q 657 1193 640 1171 q 674 1247 674 1215 l 736 1247 q 702 1130 736 1172 q 613 1088 668 1088 q 557 1099 583 1088 q 496 1133 531 1111 q 449 1160 467 1151 q 415 1168 432 1168 q 368 1146 385 1168 q 351 1092 351 1124 l 289 1092 z "},"O":{"ha":1061,"x_min":85,"x_max":976,"o":"m 531 -11 q 294 50 394 -11 q 139 224 193 111 q 85 489 85 336 q 138 756 85 643 q 292 930 192 869 q 531 990 393 990 q 769 930 668 990 q 923 756 869 869 q 976 490 976 643 q 922 224 976 338 q 767 50 868 111 q 531 -11 667 -11 m 531 86 q 773 191 686 86 q 860 490 860 296 q 774 789 860 685 q 531 893 688 893 q 288 788 375 893 q 201 490 201 683 q 288 192 201 297 q 531 86 375 86 z "},"Ó":{"ha":1061,"x_min":85,"x_max":976,"o":"m 531 -11 q 294 50 394 -11 q 139 224 193 111 q 85 489 85 336 q 138 756 85 643 q 292 930 192 869 q 531 990 393 990 q 769 930 668 990 q 923 756 869 869 q 976 490 976 643 q 922 224 976 338 q 767 50 868 111 q 531 -11 667 -11 m 531 86 q 773 191 686 86 q 860 490 860 296 q 774 789 860 685 q 531 893 688 893 q 288 788 375 893 q 201 490 201 683 q 288 192 201 297 q 531 86 375 86 m 492 1063 l 632 1274 l 754 1274 l 569 1063 l 492 1063 z "},"Ŏ":{"ha":1061,"x_min":85,"x_max":976,"o":"m 531 -11 q 294 50 394 -11 q 139 224 193 111 q 85 489 85 336 q 138 756 85 643 q 292 930 192 869 q 531 990 393 990 q 769 930 668 990 q 923 756 869 869 q 976 490 976 643 q 922 224 976 338 q 767 50 868 111 q 531 -11 667 -11 m 531 86 q 773 191 686 86 q 860 490 860 296 q 774 789 860 685 q 531 893 688 893 q 288 788 375 893 q 201 490 201 683 q 288 192 201 297 q 531 86 375 86 m 531 1079 q 394 1115 453 1079 q 304 1226 335 1150 l 375 1257 q 442 1181 406 1201 q 531 1160 479 1160 q 619 1181 582 1160 q 686 1257 656 1201 l 757 1226 q 667 1115 726 1150 q 531 1079 608 1079 z "},"Ô":{"ha":1061,"x_min":85,"x_max":976,"o":"m 531 -11 q 294 50 394 -11 q 139 224 193 111 q 85 489 85 336 q 138 756 85 643 q 292 930 192 869 q 531 990 393 990 q 769 930 668 990 q 923 756 869 869 q 976 490 976 643 q 922 224 976 338 q 767 50 868 111 q 531 -11 667 -11 m 531 86 q 773 191 686 86 q 860 490 860 296 q 774 789 860 685 q 531 893 688 893 q 288 788 375 893 q 201 490 201 683 q 288 192 201 297 q 531 86 375 86 m 328 1063 l 493 1274 l 568 1274 l 733 1063 l 632 1063 l 531 1206 l 429 1063 l 328 1063 z "},"Ố":{"ha":1061,"x_min":85,"x_max":976,"o":"m 531 -11 q 294 50 394 -11 q 139 224 193 111 q 85 489 85 336 q 138 756 85 643 q 292 930 192 869 q 531 990 393 990 q 769 930 668 990 q 923 756 869 869 q 976 490 976 643 q 922 224 976 338 q 767 50 868 111 q 531 -11 667 -11 m 531 86 q 773 191 686 86 q 860 490 860 296 q 774 789 860 685 q 531 893 688 893 q 288 788 375 893 q 201 490 201 683 q 288 192 201 297 q 531 86 375 86 m 649 1206 l 775 1401 l 893 1401 l 717 1206 l 649 1206 m 328 1063 l 493 1267 l 568 1267 l 733 1063 l 632 1063 l 531 1200 l 429 1063 l 328 1063 z "},"Ộ":{"ha":1061,"x_min":85,"x_max":976,"o":"m 531 -11 q 294 50 394 -11 q 139 224 193 111 q 85 489 85 336 q 138 756 85 643 q 292 930 192 869 q 531 990 393 990 q 769 930 668 990 q 923 756 869 869 q 976 490 976 643 q 922 224 976 338 q 767 50 868 111 q 531 -11 667 -11 m 531 86 q 773 191 686 86 q 860 490 860 296 q 774 789 860 685 q 531 893 688 893 q 288 788 375 893 q 201 490 201 683 q 288 192 201 297 q 531 86 375 86 m 594 -131 l 594 -253 l 467 -253 l 467 -131 l 594 -131 m 328 1063 l 493 1274 l 568 1274 l 733 1063 l 632 1063 l 531 1206 l 429 1063 l 328 1063 z "},"Ồ":{"ha":1061,"x_min":85,"x_max":976,"o":"m 531 -11 q 294 50 394 -11 q 139 224 193 111 q 85 489 85 336 q 138 756 85 643 q 292 930 192 869 q 531 990 393 990 q 769 930 668 990 q 923 756 869 869 q 976 490 976 643 q 922 224 976 338 q 767 50 868 111 q 531 -11 667 -11 m 531 86 q 773 191 686 86 q 860 490 860 296 q 774 789 860 685 q 531 893 688 893 q 288 788 375 893 q 201 490 201 683 q 288 192 201 297 q 531 86 375 86 m 551 1401 l 669 1401 l 776 1206 l 707 1206 l 551 1401 m 328 1063 l 493 1267 l 568 1267 l 733 1063 l 632 1063 l 531 1200 l 429 1063 l 328 1063 z "},"Ổ":{"ha":1061,"x_min":85,"x_max":976,"o":"m 531 -11 q 294 50 394 -11 q 139 224 193 111 q 85 489 85 336 q 138 756 85 643 q 292 930 192 869 q 531 990 393 990 q 769 930 668 990 q 923 756 869 869 q 976 490 976 643 q 922 224 976 338 q 767 50 868 111 q 531 -11 667 -11 m 531 86 q 773 191 686 86 q 860 490 860 296 q 774 789 860 685 q 531 893 688 893 q 288 788 375 893 q 201 490 201 683 q 288 192 201 297 q 531 86 375 86 m 721 1206 l 647 1206 l 647 1229 q 663 1266 647 1253 q 706 1290 678 1279 q 732 1304 724 1299 q 740 1318 740 1310 q 725 1336 740 1329 q 683 1343 710 1343 q 599 1326 643 1343 l 579 1385 q 692 1410 636 1410 q 792 1385 756 1410 q 829 1322 829 1361 q 814 1285 829 1297 q 767 1257 799 1272 q 733 1239 744 1247 q 721 1218 721 1231 l 721 1206 m 328 1063 l 493 1267 l 568 1267 l 733 1063 l 632 1063 l 531 1200 l 429 1063 l 328 1063 z "},"Ỗ":{"ha":1061,"x_min":85,"x_max":976,"o":"m 531 -11 q 294 50 394 -11 q 139 224 193 111 q 85 489 85 336 q 138 756 85 643 q 292 930 192 869 q 531 990 393 990 q 769 930 668 990 q 923 756 869 869 q 976 490 976 643 q 922 224 976 338 q 767 50 868 111 q 531 -11 667 -11 m 531 86 q 773 191 686 86 q 860 490 860 296 q 774 789 860 685 q 531 893 688 893 q 288 788 375 893 q 201 490 201 683 q 288 192 201 297 q 531 86 375 86 m 307 1288 q 341 1385 307 1347 q 431 1424 375 1424 q 486 1415 460 1424 q 547 1389 513 1406 q 590 1372 568 1379 q 628 1364 611 1364 q 674 1383 657 1364 q 692 1426 692 1401 l 754 1426 q 719 1328 754 1367 q 631 1289 685 1289 q 575 1298 601 1289 q 514 1324 549 1307 q 472 1341 493 1333 q 433 1349 450 1349 q 387 1331 404 1349 q 369 1288 369 1313 l 307 1288 m 328 1063 l 493 1267 l 568 1267 l 733 1063 l 632 1063 l 531 1200 l 429 1063 l 328 1063 z "},"Ȍ":{"ha":1061,"x_min":85,"x_max":976,"o":"m 531 -11 q 294 50 394 -11 q 139 224 193 111 q 85 489 85 336 q 138 756 85 643 q 292 930 192 869 q 531 990 393 990 q 769 930 668 990 q 923 756 869 869 q 976 490 976 643 q 922 224 976 338 q 767 50 868 111 q 531 -11 667 -11 m 531 86 q 773 191 686 86 q 860 490 860 296 q 774 789 860 685 q 531 893 688 893 q 288 788 375 893 q 201 490 201 683 q 288 192 201 297 q 531 86 375 86 m 282 1274 l 379 1274 l 478 1063 l 417 1063 l 282 1274 m 447 1274 l 546 1274 l 644 1063 l 583 1063 l 447 1274 z "},"Ö":{"ha":1061,"x_min":85,"x_max":976,"o":"m 531 -11 q 294 50 394 -11 q 139 224 193 111 q 85 489 85 336 q 138 756 85 643 q 292 930 192 869 q 531 990 393 990 q 769 930 668 990 q 923 756 869 869 q 976 490 976 643 q 922 224 976 338 q 767 50 868 111 q 531 -11 667 -11 m 531 86 q 773 191 686 86 q 860 490 860 296 q 774 789 860 685 q 531 893 688 893 q 288 788 375 893 q 201 490 201 683 q 288 192 201 297 q 531 86 375 86 m 474 1229 l 474 1110 l 350 1110 l 350 1229 l 474 1229 m 711 1229 l 711 1110 l 588 1110 l 588 1229 l 711 1229 z "},"Ȫ":{"ha":1061,"x_min":85,"x_max":976,"o":"m 531 -11 q 294 50 394 -11 q 139 224 193 111 q 85 489 85 336 q 138 756 85 643 q 292 930 192 869 q 531 990 393 990 q 769 930 668 990 q 923 756 869 869 q 976 490 976 643 q 922 224 976 338 q 767 50 868 111 q 531 -11 667 -11 m 531 86 q 773 191 686 86 q 860 490 860 296 q 774 789 860 685 q 531 893 688 893 q 288 788 375 893 q 201 490 201 683 q 288 192 201 297 q 531 86 375 86 m 474 1229 l 474 1110 l 350 1110 l 350 1229 l 474 1229 m 711 1229 l 711 1110 l 588 1110 l 588 1229 l 711 1229 m 322 1433 l 739 1433 l 739 1349 l 322 1349 l 322 1433 z "},"Ȱ":{"ha":1061,"x_min":85,"x_max":976,"o":"m 531 -11 q 294 50 394 -11 q 139 224 193 111 q 85 489 85 336 q 138 756 85 643 q 292 930 192 869 q 531 990 393 990 q 769 930 668 990 q 923 756 869 869 q 976 490 976 643 q 922 224 976 338 q 767 50 868 111 q 531 -11 667 -11 m 531 86 q 773 191 686 86 q 860 490 860 296 q 774 789 860 685 q 531 893 688 893 q 288 788 375 893 q 201 490 201 683 q 288 192 201 297 q 531 86 375 86 m 599 1232 l 599 1106 l 463 1106 l 463 1232 l 599 1232 m 322 1433 l 739 1433 l 739 1349 l 322 1349 l 322 1433 z "},"Ọ":{"ha":1061,"x_min":85,"x_max":976,"o":"m 531 -11 q 294 50 394 -11 q 139 224 193 111 q 85 489 85 336 q 138 756 85 643 q 292 930 192 869 q 531 990 393 990 q 769 930 668 990 q 923 756 869 869 q 976 490 976 643 q 922 224 976 338 q 767 50 868 111 q 531 -11 667 -11 m 531 86 q 773 191 686 86 q 860 490 860 296 q 774 789 860 685 q 531 893 688 893 q 288 788 375 893 q 201 490 201 683 q 288 192 201 297 q 531 86 375 86 m 594 -131 l 594 -253 l 467 -253 l 467 -131 l 594 -131 z "},"Ò":{"ha":1061,"x_min":85,"x_max":976,"o":"m 531 -11 q 294 50 394 -11 q 139 224 193 111 q 85 489 85 336 q 138 756 85 643 q 292 930 192 869 q 531 990 393 990 q 769 930 668 990 q 923 756 869 869 q 976 490 976 643 q 922 224 976 338 q 767 50 868 111 q 531 -11 667 -11 m 531 86 q 773 191 686 86 q 860 490 860 296 q 774 789 860 685 q 531 893 688 893 q 288 788 375 893 q 201 490 201 683 q 288 192 201 297 q 531 86 375 86 m 307 1274 l 429 1274 l 569 1063 l 492 1063 l 307 1274 z "},"Ỏ":{"ha":1061,"x_min":85,"x_max":976,"o":"m 531 -11 q 294 50 394 -11 q 139 224 193 111 q 85 489 85 336 q 138 756 85 643 q 292 930 192 869 q 531 990 393 990 q 769 930 668 990 q 923 756 869 869 q 976 490 976 643 q 922 224 976 338 q 767 50 868 111 q 531 -11 667 -11 m 531 86 q 773 191 686 86 q 860 490 860 296 q 774 789 860 685 q 531 893 688 893 q 288 788 375 893 q 201 490 201 683 q 288 192 201 297 q 531 86 375 86 m 568 1063 l 494 1063 l 494 1088 q 510 1126 494 1111 q 551 1153 525 1140 q 579 1170 571 1164 q 588 1186 588 1176 q 572 1206 588 1199 q 531 1213 557 1213 q 446 1196 490 1213 l 426 1256 q 539 1279 481 1279 q 640 1255 603 1279 q 676 1190 676 1231 q 660 1149 676 1164 q 613 1119 643 1133 q 578 1099 589 1107 q 568 1076 568 1090 l 568 1063 z "},"Ơ":{"ha":1061,"x_min":85,"x_max":976,"o":"m 976 1115 q 928 972 976 1026 q 793 910 879 918 q 930 741 883 849 q 976 490 976 633 q 922 224 976 338 q 767 50 868 111 q 531 -11 667 -11 q 294 50 394 -11 q 139 224 193 111 q 85 489 85 336 q 139 756 85 643 q 294 930 193 869 q 535 990 396 990 q 636 985 572 990 q 724 979 697 979 q 842 1015 807 981 q 876 1132 876 1050 l 876 1153 l 976 1153 l 976 1115 m 860 490 q 774 789 860 685 q 531 893 688 893 q 288 788 375 893 q 201 490 201 683 q 288 192 201 297 q 531 86 375 86 q 773 191 686 86 q 860 490 860 296 z "},"Ớ":{"ha":1061,"x_min":85,"x_max":976,"o":"m 976 1115 q 928 972 976 1026 q 793 910 879 918 q 930 741 883 849 q 976 490 976 633 q 922 224 976 338 q 767 50 868 111 q 531 -11 667 -11 q 294 50 394 -11 q 139 224 193 111 q 85 489 85 336 q 139 756 85 643 q 294 930 193 869 q 535 990 396 990 q 636 985 572 990 q 724 979 697 979 q 842 1015 807 981 q 876 1132 876 1050 l 876 1153 l 976 1153 l 976 1115 m 860 490 q 774 789 860 685 q 531 893 688 893 q 288 788 375 893 q 201 490 201 683 q 288 192 201 297 q 531 86 375 86 q 773 191 686 86 q 860 490 860 296 m 492 1063 l 632 1274 l 754 1274 l 569 1063 l 492 1063 z "},"Ợ":{"ha":1061,"x_min":85,"x_max":976,"o":"m 976 1115 q 928 972 976 1026 q 793 910 879 918 q 930 741 883 849 q 976 490 976 633 q 922 224 976 338 q 767 50 868 111 q 531 -11 667 -11 q 294 50 394 -11 q 139 224 193 111 q 85 489 85 336 q 139 756 85 643 q 294 930 193 869 q 535 990 396 990 q 636 985 572 990 q 724 979 697 979 q 842 1015 807 981 q 876 1132 876 1050 l 876 1153 l 976 1153 l 976 1115 m 860 490 q 774 789 860 685 q 531 893 688 893 q 288 788 375 893 q 201 490 201 683 q 288 192 201 297 q 531 86 375 86 q 773 191 686 86 q 860 490 860 296 m 596 -131 l 596 -253 l 468 -253 l 468 -131 l 596 -131 z "},"Ờ":{"ha":1061,"x_min":85,"x_max":976,"o":"m 976 1115 q 928 972 976 1026 q 793 910 879 918 q 930 741 883 849 q 976 490 976 633 q 922 224 976 338 q 767 50 868 111 q 531 -11 667 -11 q 294 50 394 -11 q 139 224 193 111 q 85 489 85 336 q 139 756 85 643 q 294 930 193 869 q 535 990 396 990 q 636 985 572 990 q 724 979 697 979 q 842 1015 807 981 q 876 1132 876 1050 l 876 1153 l 976 1153 l 976 1115 m 860 490 q 774 789 860 685 q 531 893 688 893 q 288 788 375 893 q 201 490 201 683 q 288 192 201 297 q 531 86 375 86 q 773 191 686 86 q 860 490 860 296 m 307 1274 l 429 1274 l 569 1063 l 492 1063 l 307 1274 z "},"Ở":{"ha":1061,"x_min":85,"x_max":976,"o":"m 976 1115 q 928 972 976 1026 q 793 910 879 918 q 930 741 883 849 q 976 490 976 633 q 922 224 976 338 q 767 50 868 111 q 531 -11 667 -11 q 294 50 394 -11 q 139 224 193 111 q 85 489 85 336 q 139 756 85 643 q 294 930 193 869 q 535 990 396 990 q 636 985 572 990 q 724 979 697 979 q 842 1015 807 981 q 876 1132 876 1050 l 876 1153 l 976 1153 l 976 1115 m 860 490 q 774 789 860 685 q 531 893 688 893 q 288 788 375 893 q 201 490 201 683 q 288 192 201 297 q 531 86 375 86 q 773 191 686 86 q 860 490 860 296 m 568 1063 l 494 1063 l 494 1088 q 510 1126 494 1111 q 551 1153 525 1140 q 579 1170 571 1164 q 588 1186 588 1176 q 572 1206 588 1199 q 531 1213 557 1213 q 446 1196 490 1213 l 426 1256 q 539 1279 481 1279 q 640 1255 603 1279 q 676 1190 676 1231 q 660 1149 676 1164 q 613 1119 643 1133 q 578 1099 589 1107 q 568 1076 568 1090 l 568 1063 z "},"Ỡ":{"ha":1061,"x_min":85,"x_max":976,"o":"m 976 1115 q 928 972 976 1026 q 793 910 879 918 q 930 741 883 849 q 976 490 976 633 q 922 224 976 338 q 767 50 868 111 q 531 -11 667 -11 q 294 50 394 -11 q 139 224 193 111 q 85 489 85 336 q 139 756 85 643 q 294 930 193 869 q 535 990 396 990 q 636 985 572 990 q 724 979 697 979 q 842 1015 807 981 q 876 1132 876 1050 l 876 1153 l 976 1153 l 976 1115 m 860 490 q 774 789 860 685 q 531 893 688 893 q 288 788 375 893 q 201 490 201 683 q 288 192 201 297 q 531 86 375 86 q 773 191 686 86 q 860 490 860 296 m 307 1092 q 341 1209 307 1167 q 431 1251 375 1251 q 486 1240 460 1251 q 547 1206 513 1228 q 594 1179 576 1188 q 628 1171 611 1171 q 675 1193 658 1171 q 692 1247 692 1215 l 754 1247 q 720 1130 754 1172 q 631 1088 686 1088 q 575 1099 601 1088 q 514 1133 549 1111 q 467 1160 485 1151 q 433 1168 450 1168 q 386 1146 403 1168 q 369 1092 369 1124 l 307 1092 z "},"Ő":{"ha":1061,"x_min":85,"x_max":976,"o":"m 531 -11 q 294 50 394 -11 q 139 224 193 111 q 85 489 85 336 q 138 756 85 643 q 292 930 192 869 q 531 990 393 990 q 769 930 668 990 q 923 756 869 869 q 976 490 976 643 q 922 224 976 338 q 767 50 868 111 q 531 -11 667 -11 m 531 86 q 773 191 686 86 q 860 490 860 296 q 774 789 860 685 q 531 893 688 893 q 288 788 375 893 q 201 490 201 683 q 288 192 201 297 q 531 86 375 86 m 417 1063 l 515 1274 l 614 1274 l 478 1063 l 417 1063 m 583 1063 l 682 1274 l 779 1274 l 644 1063 l 583 1063 z "},"Ȏ":{"ha":1061,"x_min":85,"x_max":976,"o":"m 531 -11 q 294 50 394 -11 q 139 224 193 111 q 85 489 85 336 q 138 756 85 643 q 292 930 192 869 q 531 990 393 990 q 769 930 668 990 q 923 756 869 869 q 976 490 976 643 q 922 224 976 338 q 767 50 868 111 q 531 -11 667 -11 m 531 86 q 773 191 686 86 q 860 490 860 296 q 774 789 860 685 q 531 893 688 893 q 288 788 375 893 q 201 490 201 683 q 288 192 201 297 q 531 86 375 86 m 531 1258 q 667 1223 608 1258 q 757 1111 726 1188 l 686 1081 q 619 1157 656 1136 q 531 1178 582 1178 q 442 1157 479 1178 q 375 1081 406 1136 l 304 1111 q 394 1223 335 1188 q 531 1258 453 1258 z "},"Ō":{"ha":1061,"x_min":85,"x_max":976,"o":"m 531 -11 q 294 50 394 -11 q 139 224 193 111 q 85 489 85 336 q 138 756 85 643 q 292 930 192 869 q 531 990 393 990 q 769 930 668 990 q 923 756 869 869 q 976 490 976 643 q 922 224 976 338 q 767 50 868 111 q 531 -11 667 -11 m 531 86 q 773 191 686 86 q 860 490 860 296 q 774 789 860 685 q 531 893 688 893 q 288 788 375 893 q 201 490 201 683 q 288 192 201 297 q 531 86 375 86 m 322 1211 l 739 1211 l 739 1126 l 322 1126 l 322 1211 z "},"Ṓ":{"ha":1061,"x_min":85,"x_max":976,"o":"m 531 -11 q 294 50 394 -11 q 139 224 193 111 q 85 489 85 336 q 138 756 85 643 q 292 930 192 869 q 531 990 393 990 q 769 930 668 990 q 923 756 869 869 q 976 490 976 643 q 922 224 976 338 q 767 50 868 111 q 531 -11 667 -11 m 531 86 q 773 191 686 86 q 860 490 860 296 q 774 789 860 685 q 531 893 688 893 q 288 788 375 893 q 201 490 201 683 q 288 192 201 297 q 531 86 375 86 m 322 1211 l 739 1211 l 739 1126 l 322 1126 l 322 1211 m 492 1285 l 632 1496 l 754 1496 l 569 1285 l 492 1285 z "},"Ṑ":{"ha":1061,"x_min":85,"x_max":976,"o":"m 531 -11 q 294 50 394 -11 q 139 224 193 111 q 85 489 85 336 q 138 756 85 643 q 292 930 192 869 q 531 990 393 990 q 769 930 668 990 q 923 756 869 869 q 976 490 976 643 q 922 224 976 338 q 767 50 868 111 q 531 -11 667 -11 m 531 86 q 773 191 686 86 q 860 490 860 296 q 774 789 860 685 q 531 893 688 893 q 288 788 375 893 q 201 490 201 683 q 288 192 201 297 q 531 86 375 86 m 322 1211 l 739 1211 l 739 1126 l 322 1126 l 322 1211 m 307 1496 l 429 1496 l 569 1285 l 492 1285 l 307 1496 z "},"Ǫ":{"ha":1061,"x_min":85,"x_max":976,"o":"m 663 6 q 561 -107 561 -24 q 585 -172 561 -149 q 653 -194 610 -194 q 733 -171 689 -194 l 756 -236 q 636 -268 704 -268 q 519 -227 564 -268 q 474 -122 474 -186 q 518 -12 474 -60 q 288 52 386 -10 q 138 226 190 114 q 85 489 85 339 q 138 756 85 643 q 292 930 192 869 q 531 990 393 990 q 767 930 667 990 q 922 756 868 869 q 976 490 976 643 q 894 174 976 300 q 663 6 813 49 m 201 490 q 288 192 201 297 q 531 86 375 86 q 773 191 686 86 q 860 490 860 296 q 774 789 860 685 q 531 893 688 893 q 288 788 375 893 q 201 490 201 683 z "},"Ø":{"ha":1061,"x_min":85,"x_max":976,"o":"m 818 894 q 935 726 894 829 q 976 490 976 624 q 922 224 976 338 q 767 50 868 111 q 531 -11 667 -11 q 318 36 413 -11 l 260 -65 l 182 -19 l 243 86 q 126 254 167 151 q 85 489 85 357 q 138 756 85 643 q 292 930 192 869 q 531 990 393 990 q 743 943 649 990 l 801 1044 l 879 999 l 818 894 m 201 490 q 226 310 201 389 q 299 181 251 232 l 692 856 q 531 893 624 893 q 288 788 375 893 q 201 490 201 683 m 531 86 q 773 191 686 86 q 860 490 860 296 q 764 800 860 696 l 369 124 q 531 86 439 86 z "},"Ǿ":{"ha":1061,"x_min":85,"x_max":976,"o":"m 818 894 q 935 726 894 829 q 976 490 976 624 q 922 224 976 338 q 767 50 868 111 q 531 -11 667 -11 q 318 36 413 -11 l 260 -65 l 182 -19 l 243 86 q 126 254 167 151 q 85 489 85 357 q 138 756 85 643 q 292 930 192 869 q 531 990 393 990 q 743 943 649 990 l 801 1044 l 879 999 l 818 894 m 201 490 q 226 310 201 389 q 299 181 251 232 l 692 856 q 531 893 624 893 q 288 788 375 893 q 201 490 201 683 m 531 86 q 773 191 686 86 q 860 490 860 296 q 764 800 860 696 l 369 124 q 531 86 439 86 m 492 1063 l 632 1274 l 754 1274 l 569 1063 l 492 1063 z "},"Õ":{"ha":1061,"x_min":85,"x_max":976,"o":"m 531 -11 q 294 50 394 -11 q 139 224 193 111 q 85 489 85 336 q 138 756 85 643 q 292 930 192 869 q 531 990 393 990 q 769 930 668 990 q 923 756 869 869 q 976 490 976 643 q 922 224 976 338 q 767 50 868 111 q 531 -11 667 -11 m 531 86 q 773 191 686 86 q 860 490 860 296 q 774 789 860 685 q 531 893 688 893 q 288 788 375 893 q 201 490 201 683 q 288 192 201 297 q 531 86 375 86 m 307 1092 q 341 1209 307 1167 q 431 1251 375 1251 q 486 1240 460 1251 q 547 1206 513 1228 q 594 1179 576 1188 q 628 1171 611 1171 q 675 1193 658 1171 q 692 1247 692 1215 l 754 1247 q 720 1130 754 1172 q 631 1088 686 1088 q 575 1099 601 1088 q 514 1133 549 1111 q 467 1160 485 1151 q 433 1168 450 1168 q 386 1146 403 1168 q 369 1092 369 1124 l 307 1092 z "},"Ṍ":{"ha":1061,"x_min":85,"x_max":976,"o":"m 531 -11 q 294 50 394 -11 q 139 224 193 111 q 85 489 85 336 q 138 756 85 643 q 292 930 192 869 q 531 990 393 990 q 769 930 668 990 q 923 756 869 869 q 976 490 976 643 q 922 224 976 338 q 767 50 868 111 q 531 -11 667 -11 m 531 86 q 773 191 686 86 q 860 490 860 296 q 774 789 860 685 q 531 893 688 893 q 288 788 375 893 q 201 490 201 683 q 288 192 201 297 q 531 86 375 86 m 307 1092 q 341 1209 307 1167 q 431 1251 375 1251 q 486 1240 460 1251 q 547 1206 513 1228 q 594 1179 576 1188 q 628 1171 611 1171 q 675 1193 658 1171 q 692 1247 692 1215 l 754 1247 q 720 1130 754 1172 q 631 1088 686 1088 q 575 1099 601 1088 q 514 1133 549 1111 q 467 1160 485 1151 q 433 1168 450 1168 q 386 1146 403 1168 q 369 1092 369 1124 l 307 1092 m 492 1285 l 632 1496 l 754 1496 l 569 1285 l 492 1285 z "},"Ṏ":{"ha":1061,"x_min":85,"x_max":976,"o":"m 531 -11 q 294 50 394 -11 q 139 224 193 111 q 85 489 85 336 q 138 756 85 643 q 292 930 192 869 q 531 990 393 990 q 769 930 668 990 q 923 756 869 869 q 976 490 976 643 q 922 224 976 338 q 767 50 868 111 q 531 -11 667 -11 m 531 86 q 773 191 686 86 q 860 490 860 296 q 774 789 860 685 q 531 893 688 893 q 288 788 375 893 q 201 490 201 683 q 288 192 201 297 q 531 86 375 86 m 307 1092 q 341 1209 307 1167 q 431 1251 375 1251 q 486 1240 460 1251 q 547 1206 513 1228 q 594 1179 576 1188 q 628 1171 611 1171 q 675 1193 658 1171 q 692 1247 692 1215 l 754 1247 q 720 1130 754 1172 q 631 1088 686 1088 q 575 1099 601 1088 q 514 1133 549 1111 q 467 1160 485 1151 q 433 1168 450 1168 q 386 1146 403 1168 q 369 1092 369 1124 l 307 1092 m 474 1451 l 474 1332 l 350 1332 l 350 1451 l 474 1451 m 711 1451 l 711 1332 l 588 1332 l 588 1451 l 711 1451 z "},"Ȭ":{"ha":1061,"x_min":85,"x_max":976,"o":"m 531 -11 q 294 50 394 -11 q 139 224 193 111 q 85 489 85 336 q 138 756 85 643 q 292 930 192 869 q 531 990 393 990 q 769 930 668 990 q 923 756 869 869 q 976 490 976 643 q 922 224 976 338 q 767 50 868 111 q 531 -11 667 -11 m 531 86 q 773 191 686 86 q 860 490 860 296 q 774 789 860 685 q 531 893 688 893 q 288 788 375 893 q 201 490 201 683 q 288 192 201 297 q 531 86 375 86 m 307 1092 q 341 1209 307 1167 q 431 1251 375 1251 q 486 1240 460 1251 q 547 1206 513 1228 q 594 1179 576 1188 q 628 1171 611 1171 q 675 1193 658 1171 q 692 1247 692 1215 l 754 1247 q 720 1130 754 1172 q 631 1088 686 1088 q 575 1099 601 1088 q 514 1133 549 1111 q 467 1160 485 1151 q 433 1168 450 1168 q 386 1146 403 1168 q 369 1092 369 1124 l 307 1092 m 322 1433 l 739 1433 l 739 1349 l 322 1349 l 322 1433 z "},"Œ":{"ha":1451,"x_min":85,"x_max":1383,"o":"m 575 0 q 213 128 340 0 q 85 490 85 256 q 213 852 85 725 q 575 979 340 979 l 1383 979 l 1383 885 l 875 885 l 875 544 l 1356 544 l 1356 450 l 875 450 l 875 94 l 1383 94 l 1383 0 l 575 0 m 764 94 l 764 885 l 582 885 q 201 490 201 885 q 297 194 201 293 q 582 94 393 94 l 764 94 z "},"P":{"ha":896,"x_min":121,"x_max":833,"o":"m 121 979 l 508 979 q 748 904 663 979 q 833 692 833 829 q 747 478 833 554 q 508 401 661 401 l 235 401 l 235 0 l 121 0 l 121 979 m 497 496 q 721 692 721 496 q 497 885 721 885 l 235 885 l 235 496 l 497 496 z "},"Þ":{"ha":896,"x_min":121,"x_max":833,"o":"m 518 764 q 751 694 669 764 q 833 499 833 625 q 750 302 833 372 q 518 232 667 232 l 233 232 l 233 0 l 121 0 l 121 979 l 233 979 l 233 764 l 518 764 m 506 326 q 668 369 615 326 q 721 499 721 411 q 668 628 721 586 q 506 669 615 669 l 233 669 l 233 326 l 506 326 z "},"Q":{"ha":1061,"x_min":85,"x_max":976,"o":"m 701 18 q 756 -15 732 8 q 804 -78 779 -37 l 897 -228 l 801 -278 l 686 -90 q 531 -11 638 -11 q 294 50 394 -11 q 139 224 193 111 q 85 489 85 336 q 138 756 85 643 q 292 930 192 869 q 531 990 393 990 q 767 930 667 990 q 922 756 868 869 q 976 490 976 643 q 905 190 976 313 q 701 18 833 67 m 201 490 q 288 192 201 297 q 531 86 375 86 q 773 191 686 86 q 860 490 860 296 q 774 789 860 685 q 531 893 688 893 q 288 788 375 893 q 201 490 201 683 z "},"R":{"ha":953,"x_min":121,"x_max":892,"o":"m 892 0 l 767 0 l 600 314 q 528 392 569 371 q 417 414 488 414 l 233 414 l 233 0 l 121 0 l 121 979 l 524 979 q 767 908 683 979 q 851 700 851 838 q 787 516 851 586 q 603 428 722 446 q 669 390 640 417 q 721 319 697 364 l 892 0 m 514 508 q 684 556 628 508 q 740 699 740 603 q 685 839 740 793 q 514 885 629 885 l 233 885 l 233 508 l 514 508 z "},"Ŕ":{"ha":953,"x_min":121,"x_max":892,"o":"m 892 0 l 767 0 l 600 314 q 528 392 569 371 q 417 414 488 414 l 233 414 l 233 0 l 121 0 l 121 979 l 524 979 q 767 908 683 979 q 851 700 851 838 q 787 516 851 586 q 603 428 722 446 q 669 390 640 417 q 721 319 697 364 l 892 0 m 514 508 q 684 556 628 508 q 740 699 740 603 q 685 839 740 793 q 514 885 629 885 l 233 885 l 233 508 l 514 508 m 435 1063 l 575 1274 l 697 1274 l 513 1063 l 435 1063 z "},"Ř":{"ha":953,"x_min":121,"x_max":892,"o":"m 892 0 l 767 0 l 600 314 q 528 392 569 371 q 417 414 488 414 l 233 414 l 233 0 l 121 0 l 121 979 l 524 979 q 767 908 683 979 q 851 700 851 838 q 787 516 851 586 q 603 428 722 446 q 669 390 640 417 q 721 319 697 364 l 892 0 m 514 508 q 684 556 628 508 q 740 699 740 603 q 685 839 740 793 q 514 885 629 885 l 233 885 l 233 508 l 514 508 m 676 1274 l 511 1063 l 436 1063 l 271 1274 l 372 1274 l 474 1129 l 575 1274 l 676 1274 z "},"Ŗ":{"ha":953,"x_min":121,"x_max":892,"o":"m 892 0 l 767 0 l 600 314 q 528 392 569 371 q 417 414 488 414 l 233 414 l 233 0 l 121 0 l 121 979 l 524 979 q 767 908 683 979 q 851 700 851 838 q 787 516 851 586 q 603 428 722 446 q 669 390 640 417 q 721 319 697 364 l 892 0 m 514 508 q 684 556 628 508 q 740 699 740 603 q 685 839 740 793 q 514 885 629 885 l 233 885 l 233 508 l 514 508 m 542 -100 l 542 -181 q 526 -279 542 -236 q 471 -360 510 -322 l 419 -322 q 457 -270 446 -296 q 471 -215 468 -244 l 406 -215 l 406 -100 l 542 -100 z "},"Ȑ":{"ha":953,"x_min":121,"x_max":892,"o":"m 892 0 l 767 0 l 600 314 q 528 392 569 371 q 417 414 488 414 l 233 414 l 233 0 l 121 0 l 121 979 l 524 979 q 767 908 683 979 q 851 700 851 838 q 787 516 851 586 q 603 428 722 446 q 669 390 640 417 q 721 319 697 364 l 892 0 m 514 508 q 684 556 628 508 q 740 699 740 603 q 685 839 740 793 q 514 885 629 885 l 233 885 l 233 508 l 514 508 m 225 1274 l 322 1274 l 421 1063 l 360 1063 l 225 1274 m 390 1274 l 489 1274 l 588 1063 l 526 1063 l 390 1274 z "},"Ṛ":{"ha":953,"x_min":121,"x_max":892,"o":"m 892 0 l 767 0 l 600 314 q 528 392 569 371 q 417 414 488 414 l 233 414 l 233 0 l 121 0 l 121 979 l 524 979 q 767 908 683 979 q 851 700 851 838 q 787 516 851 586 q 603 428 722 446 q 669 390 640 417 q 721 319 697 364 l 892 0 m 514 508 q 684 556 628 508 q 740 699 740 603 q 685 839 740 793 q 514 885 629 885 l 233 885 l 233 508 l 514 508 m 538 -131 l 538 -253 l 410 -253 l 410 -131 l 538 -131 z "},"Ȓ":{"ha":953,"x_min":121,"x_max":892,"o":"m 892 0 l 767 0 l 600 314 q 528 392 569 371 q 417 414 488 414 l 233 414 l 233 0 l 121 0 l 121 979 l 524 979 q 767 908 683 979 q 851 700 851 838 q 787 516 851 586 q 603 428 722 446 q 669 390 640 417 q 721 319 697 364 l 892 0 m 514 508 q 684 556 628 508 q 740 699 740 603 q 685 839 740 793 q 514 885 629 885 l 233 885 l 233 508 l 514 508 m 474 1258 q 610 1223 551 1258 q 700 1111 669 1188 l 629 1081 q 562 1157 599 1136 q 474 1178 525 1178 q 385 1157 422 1178 q 318 1081 349 1136 l 247 1111 q 337 1223 278 1188 q 474 1258 396 1258 z "},"Ṟ":{"ha":953,"x_min":121,"x_max":892,"o":"m 892 0 l 767 0 l 600 314 q 528 392 569 371 q 417 414 488 414 l 233 414 l 233 0 l 121 0 l 121 979 l 524 979 q 767 908 683 979 q 851 700 851 838 q 787 516 851 586 q 603 428 722 446 q 669 390 640 417 q 721 319 697 364 l 892 0 m 514 508 q 684 556 628 508 q 740 699 740 603 q 685 839 740 793 q 514 885 629 885 l 233 885 l 233 508 l 514 508 m 265 -151 l 682 -151 l 682 -233 l 265 -233 l 265 -151 z "},"S":{"ha":857,"x_min":65,"x_max":793,"o":"m 432 -11 q 65 113 203 -11 l 110 200 q 258 113 182 139 q 433 86 333 86 q 615 132 551 86 q 679 261 679 178 q 649 340 679 310 q 568 389 618 371 q 433 426 518 407 q 247 482 319 453 q 128 565 174 511 q 83 707 83 619 q 127 855 83 790 q 252 955 171 919 q 440 990 333 990 q 630 958 542 990 q 779 867 718 926 l 736 779 q 595 866 667 839 q 440 893 524 893 q 262 845 326 893 q 197 711 197 797 q 254 600 197 638 q 426 536 311 563 q 625 480 553 506 q 745 403 697 454 q 793 265 793 351 q 749 119 793 182 q 624 23 706 57 q 432 -11 542 -11 z "},"Ś":{"ha":857,"x_min":65,"x_max":793,"o":"m 432 -11 q 65 113 203 -11 l 110 200 q 258 113 182 139 q 433 86 333 86 q 615 132 551 86 q 679 261 679 178 q 649 340 679 310 q 568 389 618 371 q 433 426 518 407 q 247 482 319 453 q 128 565 174 511 q 83 707 83 619 q 127 855 83 790 q 252 955 171 919 q 440 990 333 990 q 630 958 542 990 q 779 867 718 926 l 736 779 q 595 866 667 839 q 440 893 524 893 q 262 845 326 893 q 197 711 197 797 q 254 600 197 638 q 426 536 311 563 q 625 480 553 506 q 745 403 697 454 q 793 265 793 351 q 749 119 793 182 q 624 23 706 57 q 432 -11 542 -11 m 390 1063 l 531 1274 l 653 1274 l 468 1063 l 390 1063 z "},"Ṥ":{"ha":857,"x_min":65,"x_max":793,"o":"m 432 -11 q 65 113 203 -11 l 110 200 q 258 113 182 139 q 433 86 333 86 q 615 132 551 86 q 679 261 679 178 q 649 340 679 310 q 568 389 618 371 q 433 426 518 407 q 247 482 319 453 q 128 565 174 511 q 83 707 83 619 q 127 855 83 790 q 252 955 171 919 q 440 990 333 990 q 630 958 542 990 q 779 867 718 926 l 736 779 q 595 866 667 839 q 440 893 524 893 q 262 845 326 893 q 197 711 197 797 q 254 600 197 638 q 426 536 311 563 q 625 480 553 506 q 745 403 697 454 q 793 265 793 351 q 749 119 793 182 q 624 23 706 57 q 432 -11 542 -11 m 401 1063 l 542 1274 l 664 1274 l 479 1063 l 401 1063 m 342 1272 l 342 1146 l 206 1146 l 206 1272 l 342 1272 z "},"Š":{"ha":857,"x_min":65,"x_max":793,"o":"m 432 -11 q 65 113 203 -11 l 110 200 q 258 113 182 139 q 433 86 333 86 q 615 132 551 86 q 679 261 679 178 q 649 340 679 310 q 568 389 618 371 q 433 426 518 407 q 247 482 319 453 q 128 565 174 511 q 83 707 83 619 q 127 855 83 790 q 252 955 171 919 q 440 990 333 990 q 630 958 542 990 q 779 867 718 926 l 736 779 q 595 866 667 839 q 440 893 524 893 q 262 845 326 893 q 197 711 197 797 q 254 600 197 638 q 426 536 311 563 q 625 480 553 506 q 745 403 697 454 q 793 265 793 351 q 749 119 793 182 q 624 23 706 57 q 432 -11 542 -11 m 632 1274 l 467 1063 l 392 1063 l 226 1274 l 328 1274 l 429 1129 l 531 1274 l 632 1274 z "},"Ṧ":{"ha":857,"x_min":65,"x_max":793,"o":"m 432 -11 q 65 113 203 -11 l 110 200 q 258 113 182 139 q 433 86 333 86 q 615 132 551 86 q 679 261 679 178 q 649 340 679 310 q 568 389 618 371 q 433 426 518 407 q 247 482 319 453 q 128 565 174 511 q 83 707 83 619 q 127 855 83 790 q 252 955 171 919 q 440 990 333 990 q 630 958 542 990 q 779 867 718 926 l 736 779 q 595 866 667 839 q 440 893 524 893 q 262 845 326 893 q 197 711 197 797 q 254 600 197 638 q 426 536 311 563 q 625 480 553 506 q 745 403 697 454 q 793 265 793 351 q 749 119 793 182 q 624 23 706 57 q 432 -11 542 -11 m 632 1274 l 467 1063 l 392 1063 l 226 1274 l 328 1274 l 429 1129 l 531 1274 l 632 1274 m 497 1454 l 497 1328 l 361 1328 l 361 1454 l 497 1454 z "},"Ş":{"ha":857,"x_min":65,"x_max":793,"o":"m 793 265 q 703 69 793 144 q 458 -11 613 -6 l 453 -60 q 486 -57 475 -57 q 561 -81 531 -57 q 592 -153 592 -106 q 549 -235 592 -203 q 431 -268 507 -268 q 368 -261 403 -268 q 308 -242 333 -254 l 326 -182 q 432 -201 376 -201 q 489 -189 469 -201 q 508 -153 508 -176 q 496 -125 508 -135 q 460 -115 483 -115 q 397 -128 429 -115 l 369 -106 l 381 -10 q 65 113 188 3 l 110 200 q 258 113 182 139 q 433 86 333 86 q 615 132 551 86 q 679 261 679 178 q 649 340 679 310 q 568 389 618 371 q 433 426 518 407 q 247 482 319 453 q 128 565 174 511 q 83 707 83 619 q 127 855 83 790 q 252 955 171 919 q 440 990 333 990 q 630 958 542 990 q 779 867 718 926 l 736 779 q 595 866 667 839 q 440 893 524 893 q 262 845 326 893 q 197 711 197 797 q 254 600 197 638 q 426 536 311 563 q 625 480 553 506 q 745 403 697 454 q 793 265 793 351 z "},"Ŝ":{"ha":857,"x_min":65,"x_max":793,"o":"m 432 -11 q 65 113 203 -11 l 110 200 q 258 113 182 139 q 433 86 333 86 q 615 132 551 86 q 679 261 679 178 q 649 340 679 310 q 568 389 618 371 q 433 426 518 407 q 247 482 319 453 q 128 565 174 511 q 83 707 83 619 q 127 855 83 790 q 252 955 171 919 q 440 990 333 990 q 630 958 542 990 q 779 867 718 926 l 736 779 q 595 866 667 839 q 440 893 524 893 q 262 845 326 893 q 197 711 197 797 q 254 600 197 638 q 426 536 311 563 q 625 480 553 506 q 745 403 697 454 q 793 265 793 351 q 749 119 793 182 q 624 23 706 57 q 432 -11 542 -11 m 226 1063 l 392 1274 l 467 1274 l 632 1063 l 531 1063 l 429 1206 l 328 1063 l 226 1063 z "},"Ș":{"ha":857,"x_min":65,"x_max":793,"o":"m 432 -11 q 65 113 203 -11 l 110 200 q 258 113 182 139 q 433 86 333 86 q 615 132 551 86 q 679 261 679 178 q 649 340 679 310 q 568 389 618 371 q 433 426 518 407 q 247 482 319 453 q 128 565 174 511 q 83 707 83 619 q 127 855 83 790 q 252 955 171 919 q 440 990 333 990 q 630 958 542 990 q 779 867 718 926 l 736 779 q 595 866 667 839 q 440 893 524 893 q 262 845 326 893 q 197 711 197 797 q 254 600 197 638 q 426 536 311 563 q 625 480 553 506 q 745 403 697 454 q 793 265 793 351 q 749 119 793 182 q 624 23 706 57 q 432 -11 542 -11 m 501 -100 l 501 -181 q 485 -279 501 -236 q 431 -360 469 -322 l 379 -322 q 417 -270 406 -296 q 431 -215 428 -244 l 365 -215 l 365 -100 l 501 -100 z "},"Ṡ":{"ha":857,"x_min":65,"x_max":793,"o":"m 432 -11 q 65 113 203 -11 l 110 200 q 258 113 182 139 q 433 86 333 86 q 615 132 551 86 q 679 261 679 178 q 649 340 679 310 q 568 389 618 371 q 433 426 518 407 q 247 482 319 453 q 128 565 174 511 q 83 707 83 619 q 127 855 83 790 q 252 955 171 919 q 440 990 333 990 q 630 958 542 990 q 779 867 718 926 l 736 779 q 595 866 667 839 q 440 893 524 893 q 262 845 326 893 q 197 711 197 797 q 254 600 197 638 q 426 536 311 563 q 625 480 553 506 q 745 403 697 454 q 793 265 793 351 q 749 119 793 182 q 624 23 706 57 q 432 -11 542 -11 m 497 1232 l 497 1106 l 361 1106 l 361 1232 l 497 1232 z "},"Ṣ":{"ha":857,"x_min":65,"x_max":793,"o":"m 432 -11 q 65 113 203 -11 l 110 200 q 258 113 182 139 q 433 86 333 86 q 615 132 551 86 q 679 261 679 178 q 649 340 679 310 q 568 389 618 371 q 433 426 518 407 q 247 482 319 453 q 128 565 174 511 q 83 707 83 619 q 127 855 83 790 q 252 955 171 919 q 440 990 333 990 q 630 958 542 990 q 779 867 718 926 l 736 779 q 595 866 667 839 q 440 893 524 893 q 262 845 326 893 q 197 711 197 797 q 254 600 197 638 q 426 536 311 563 q 625 480 553 506 q 745 403 697 454 q 793 265 793 351 q 749 119 793 182 q 624 23 706 57 q 432 -11 542 -11 m 497 -131 l 497 -253 l 369 -253 l 369 -131 l 497 -131 z "},"Ṩ":{"ha":857,"x_min":65,"x_max":793,"o":"m 432 -11 q 65 113 203 -11 l 110 200 q 258 113 182 139 q 433 86 333 86 q 615 132 551 86 q 679 261 679 178 q 649 340 679 310 q 568 389 618 371 q 433 426 518 407 q 247 482 319 453 q 128 565 174 511 q 83 707 83 619 q 127 855 83 790 q 252 955 171 919 q 440 990 333 990 q 630 958 542 990 q 779 867 718 926 l 736 779 q 595 866 667 839 q 440 893 524 893 q 262 845 326 893 q 197 711 197 797 q 254 600 197 638 q 426 536 311 563 q 625 480 553 506 q 745 403 697 454 q 793 265 793 351 q 749 119 793 182 q 624 23 706 57 q 432 -11 542 -11 m 497 -131 l 497 -253 l 369 -253 l 369 -131 l 497 -131 m 497 1232 l 497 1106 l 361 1106 l 361 1232 l 497 1232 z "},"ẞ":{"ha":956,"x_min":121,"x_max":875,"o":"m 669 511 q 822 427 768 490 q 875 268 875 364 q 837 124 875 188 q 730 26 799 61 q 572 -10 661 -10 q 435 13 500 -10 q 318 79 369 36 l 357 167 q 460 106 411 125 q 561 86 510 86 q 709 135 656 86 q 763 272 763 185 q 531 449 763 449 l 354 449 l 354 544 l 488 544 q 642 590 588 544 q 697 721 697 636 q 642 847 697 801 q 488 892 586 892 q 296 827 358 892 q 233 628 233 763 l 233 0 l 121 0 l 121 633 q 214 899 121 810 q 489 989 307 989 q 722 918 636 989 q 808 728 808 847 q 772 594 808 651 q 669 511 735 538 z "},"Ə":{"ha":1031,"x_min":85,"x_max":946,"o":"m 485 990 q 731 930 626 990 q 890 757 835 869 q 946 490 946 644 q 894 226 946 339 q 745 51 842 113 q 519 -11 649 -11 q 288 49 386 -11 q 138 221 190 108 q 85 488 85 333 l 85 544 l 829 544 q 727 803 817 713 q 483 893 638 893 q 175 779 306 893 l 132 867 q 288 958 194 925 q 485 990 382 990 m 517 86 q 740 181 658 86 q 829 449 821 275 l 201 449 q 292 181 210 275 q 517 86 375 86 z "},"T":{"ha":831,"x_min":17,"x_max":814,"o":"m 357 882 l 17 882 l 17 979 l 814 979 l 814 882 l 472 882 l 472 0 l 357 0 l 357 882 z "},"Ŧ":{"ha":831,"x_min":17,"x_max":814,"o":"m 472 882 l 472 543 l 669 543 l 669 450 l 472 450 l 472 0 l 357 0 l 357 450 l 160 450 l 160 543 l 357 543 l 357 882 l 17 882 l 17 979 l 814 979 l 814 882 l 472 882 z "},"Ť":{"ha":831,"x_min":17,"x_max":814,"o":"m 357 882 l 17 882 l 17 979 l 814 979 l 814 882 l 472 882 l 472 0 l 357 0 l 357 882 m 618 1274 l 453 1063 l 378 1063 l 213 1274 l 314 1274 l 415 1129 l 517 1274 l 618 1274 z "},"Ţ":{"ha":831,"x_min":17,"x_max":814,"o":"m 442 0 l 435 -60 q 468 -57 457 -57 q 543 -81 513 -57 q 574 -153 574 -106 q 531 -235 574 -203 q 413 -268 489 -268 q 350 -261 385 -268 q 290 -242 315 -254 l 308 -182 q 414 -201 358 -201 q 471 -189 451 -201 q 490 -153 490 -176 q 478 -125 490 -135 q 442 -115 465 -115 q 379 -128 411 -115 l 351 -106 l 364 0 l 357 0 l 357 882 l 17 882 l 17 979 l 814 979 l 814 882 l 472 882 l 472 0 l 442 0 z "},"Ț":{"ha":831,"x_min":17,"x_max":814,"o":"m 357 882 l 17 882 l 17 979 l 814 979 l 814 882 l 472 882 l 472 0 l 357 0 l 357 882 m 483 -100 l 483 -181 q 467 -279 483 -236 q 413 -360 451 -322 l 361 -322 q 399 -270 388 -296 q 413 -215 410 -244 l 347 -215 l 347 -100 l 483 -100 z "},"Ṭ":{"ha":831,"x_min":17,"x_max":814,"o":"m 357 882 l 17 882 l 17 979 l 814 979 l 814 882 l 472 882 l 472 0 l 357 0 l 357 882 m 479 -131 l 479 -253 l 351 -253 l 351 -131 l 479 -131 z "},"Ṯ":{"ha":831,"x_min":17,"x_max":814,"o":"m 357 882 l 17 882 l 17 979 l 814 979 l 814 882 l 472 882 l 472 0 l 357 0 l 357 882 m 207 -151 l 624 -151 l 624 -233 l 207 -233 l 207 -151 z "},"U":{"ha":1006,"x_min":114,"x_max":892,"o":"m 503 -11 q 213 89 311 -11 q 114 383 114 189 l 114 979 l 226 979 l 226 374 q 297 158 226 231 q 503 86 367 86 q 708 158 639 86 q 778 374 778 231 l 778 979 l 892 979 l 892 383 q 792 90 892 190 q 503 -11 693 -11 z "},"Ú":{"ha":1006,"x_min":114,"x_max":892,"o":"m 503 -11 q 213 89 311 -11 q 114 383 114 189 l 114 979 l 226 979 l 226 374 q 297 158 226 231 q 503 86 367 86 q 708 158 639 86 q 778 374 778 231 l 778 979 l 892 979 l 892 383 q 792 90 892 190 q 503 -11 693 -11 m 464 1063 l 604 1274 l 726 1274 l 542 1063 l 464 1063 z "},"Ŭ":{"ha":1006,"x_min":114,"x_max":892,"o":"m 503 -11 q 213 89 311 -11 q 114 383 114 189 l 114 979 l 226 979 l 226 374 q 297 158 226 231 q 503 86 367 86 q 708 158 639 86 q 778 374 778 231 l 778 979 l 892 979 l 892 383 q 792 90 892 190 q 503 -11 693 -11 m 503 1079 q 366 1115 425 1079 q 276 1226 307 1150 l 347 1257 q 415 1181 378 1201 q 503 1160 451 1160 q 591 1181 554 1160 q 658 1257 628 1201 l 729 1226 q 640 1115 699 1150 q 503 1079 581 1079 z "},"Û":{"ha":1006,"x_min":114,"x_max":892,"o":"m 503 -11 q 213 89 311 -11 q 114 383 114 189 l 114 979 l 226 979 l 226 374 q 297 158 226 231 q 503 86 367 86 q 708 158 639 86 q 778 374 778 231 l 778 979 l 892 979 l 892 383 q 792 90 892 190 q 503 -11 693 -11 m 300 1063 l 465 1274 l 540 1274 l 706 1063 l 604 1063 l 503 1206 l 401 1063 l 300 1063 z "},"Ȕ":{"ha":1006,"x_min":114,"x_max":892,"o":"m 503 -11 q 213 89 311 -11 q 114 383 114 189 l 114 979 l 226 979 l 226 374 q 297 158 226 231 q 503 86 367 86 q 708 158 639 86 q 778 374 778 231 l 778 979 l 892 979 l 892 383 q 792 90 892 190 q 503 -11 693 -11 m 254 1274 l 351 1274 l 450 1063 l 389 1063 l 254 1274 m 419 1274 l 518 1274 l 617 1063 l 556 1063 l 419 1274 z "},"Ü":{"ha":1006,"x_min":114,"x_max":892,"o":"m 503 -11 q 213 89 311 -11 q 114 383 114 189 l 114 979 l 226 979 l 226 374 q 297 158 226 231 q 503 86 367 86 q 708 158 639 86 q 778 374 778 231 l 778 979 l 892 979 l 892 383 q 792 90 892 190 q 503 -11 693 -11 m 446 1229 l 446 1110 l 322 1110 l 322 1229 l 446 1229 m 683 1229 l 683 1110 l 560 1110 l 560 1229 l 683 1229 z "},"Ụ":{"ha":1006,"x_min":114,"x_max":892,"o":"m 503 -11 q 213 89 311 -11 q 114 383 114 189 l 114 979 l 226 979 l 226 374 q 297 158 226 231 q 503 86 367 86 q 708 158 639 86 q 778 374 778 231 l 778 979 l 892 979 l 892 383 q 792 90 892 190 q 503 -11 693 -11 m 567 -131 l 567 -253 l 439 -253 l 439 -131 l 567 -131 z "},"Ù":{"ha":1006,"x_min":114,"x_max":892,"o":"m 503 -11 q 213 89 311 -11 q 114 383 114 189 l 114 979 l 226 979 l 226 374 q 297 158 226 231 q 503 86 367 86 q 708 158 639 86 q 778 374 778 231 l 778 979 l 892 979 l 892 383 q 792 90 892 190 q 503 -11 693 -11 m 279 1274 l 401 1274 l 542 1063 l 464 1063 l 279 1274 z "},"Ủ":{"ha":1006,"x_min":114,"x_max":892,"o":"m 503 -11 q 213 89 311 -11 q 114 383 114 189 l 114 979 l 226 979 l 226 374 q 297 158 226 231 q 503 86 367 86 q 708 158 639 86 q 778 374 778 231 l 778 979 l 892 979 l 892 383 q 792 90 892 190 q 503 -11 693 -11 m 540 1063 l 467 1063 l 467 1088 q 482 1126 467 1111 q 524 1153 497 1140 q 551 1170 543 1164 q 560 1186 560 1176 q 544 1206 560 1199 q 503 1213 529 1213 q 418 1196 463 1213 l 399 1256 q 511 1279 453 1279 q 612 1255 575 1279 q 649 1190 649 1231 q 632 1149 649 1164 q 585 1119 615 1133 q 551 1099 561 1107 q 540 1076 540 1090 l 540 1063 z "},"Ư":{"ha":1006,"x_min":114,"x_max":1054,"o":"m 1054 1153 l 1054 1115 q 1012 981 1054 1033 q 892 914 969 929 l 892 383 q 792 90 892 190 q 503 -11 693 -11 q 213 89 311 -11 q 114 383 114 189 l 114 979 l 226 979 l 226 374 q 297 158 226 231 q 503 86 367 86 q 708 158 639 86 q 778 374 778 231 l 778 979 l 811 979 q 922 1015 889 981 q 954 1132 954 1050 l 954 1153 l 1054 1153 z "},"Ứ":{"ha":1006,"x_min":114,"x_max":1054,"o":"m 1054 1153 l 1054 1115 q 1012 981 1054 1033 q 892 914 969 929 l 892 383 q 792 90 892 190 q 503 -11 693 -11 q 213 89 311 -11 q 114 383 114 189 l 114 979 l 226 979 l 226 374 q 297 158 226 231 q 503 86 367 86 q 708 158 639 86 q 778 374 778 231 l 778 979 l 811 979 q 922 1015 889 981 q 954 1132 954 1050 l 954 1153 l 1054 1153 m 464 1063 l 604 1274 l 726 1274 l 542 1063 l 464 1063 z "},"Ự":{"ha":1006,"x_min":114,"x_max":1054,"o":"m 1054 1153 l 1054 1115 q 1012 981 1054 1033 q 892 914 969 929 l 892 383 q 792 90 892 190 q 503 -11 693 -11 q 213 89 311 -11 q 114 383 114 189 l 114 979 l 226 979 l 226 374 q 297 158 226 231 q 503 86 367 86 q 708 158 639 86 q 778 374 778 231 l 778 979 l 811 979 q 922 1015 889 981 q 954 1132 954 1050 l 954 1153 l 1054 1153 m 567 -131 l 567 -253 l 439 -253 l 439 -131 l 567 -131 z "},"Ừ":{"ha":1006,"x_min":114,"x_max":1054,"o":"m 1054 1153 l 1054 1115 q 1012 981 1054 1033 q 892 914 969 929 l 892 383 q 792 90 892 190 q 503 -11 693 -11 q 213 89 311 -11 q 114 383 114 189 l 114 979 l 226 979 l 226 374 q 297 158 226 231 q 503 86 367 86 q 708 158 639 86 q 778 374 778 231 l 778 979 l 811 979 q 922 1015 889 981 q 954 1132 954 1050 l 954 1153 l 1054 1153 m 279 1274 l 401 1274 l 542 1063 l 464 1063 l 279 1274 z "},"Ử":{"ha":1006,"x_min":114,"x_max":1054,"o":"m 1054 1153 l 1054 1115 q 1012 981 1054 1033 q 892 914 969 929 l 892 383 q 792 90 892 190 q 503 -11 693 -11 q 213 89 311 -11 q 114 383 114 189 l 114 979 l 226 979 l 226 374 q 297 158 226 231 q 503 86 367 86 q 708 158 639 86 q 778 374 778 231 l 778 979 l 811 979 q 922 1015 889 981 q 954 1132 954 1050 l 954 1153 l 1054 1153 m 540 1063 l 467 1063 l 467 1088 q 482 1126 467 1111 q 524 1153 497 1140 q 551 1170 543 1164 q 560 1186 560 1176 q 544 1206 560 1199 q 503 1213 529 1213 q 418 1196 463 1213 l 399 1256 q 511 1279 453 1279 q 612 1255 575 1279 q 649 1190 649 1231 q 632 1149 649 1164 q 585 1119 615 1133 q 551 1099 561 1107 q 540 1076 540 1090 l 540 1063 z "},"Ữ":{"ha":1006,"x_min":114,"x_max":1054,"o":"m 1054 1153 l 1054 1115 q 1012 981 1054 1033 q 892 914 969 929 l 892 383 q 792 90 892 190 q 503 -11 693 -11 q 213 89 311 -11 q 114 383 114 189 l 114 979 l 226 979 l 226 374 q 297 158 226 231 q 503 86 367 86 q 708 158 639 86 q 778 374 778 231 l 778 979 l 811 979 q 922 1015 889 981 q 954 1132 954 1050 l 954 1153 l 1054 1153 m 279 1092 q 313 1209 279 1167 q 403 1251 347 1251 q 458 1240 432 1251 q 519 1206 485 1228 q 566 1179 549 1188 q 600 1171 583 1171 q 647 1193 631 1171 q 664 1247 664 1215 l 726 1247 q 692 1130 726 1172 q 603 1088 658 1088 q 547 1099 574 1088 q 486 1133 521 1111 q 440 1160 457 1151 q 406 1168 422 1168 q 358 1146 375 1168 q 342 1092 342 1124 l 279 1092 z "},"Ű":{"ha":1006,"x_min":114,"x_max":892,"o":"m 503 -11 q 213 89 311 -11 q 114 383 114 189 l 114 979 l 226 979 l 226 374 q 297 158 226 231 q 503 86 367 86 q 708 158 639 86 q 778 374 778 231 l 778 979 l 892 979 l 892 383 q 792 90 892 190 q 503 -11 693 -11 m 389 1063 l 488 1274 l 586 1274 l 450 1063 l 389 1063 m 556 1063 l 654 1274 l 751 1274 l 617 1063 l 556 1063 z "},"Ȗ":{"ha":1006,"x_min":114,"x_max":892,"o":"m 503 -11 q 213 89 311 -11 q 114 383 114 189 l 114 979 l 226 979 l 226 374 q 297 158 226 231 q 503 86 367 86 q 708 158 639 86 q 778 374 778 231 l 778 979 l 892 979 l 892 383 q 792 90 892 190 q 503 -11 693 -11 m 503 1258 q 640 1223 581 1258 q 729 1111 699 1188 l 658 1081 q 591 1157 628 1136 q 503 1178 554 1178 q 415 1157 451 1178 q 347 1081 378 1136 l 276 1111 q 366 1223 307 1188 q 503 1258 425 1258 z "},"Ū":{"ha":1006,"x_min":114,"x_max":892,"o":"m 503 -11 q 213 89 311 -11 q 114 383 114 189 l 114 979 l 226 979 l 226 374 q 297 158 226 231 q 503 86 367 86 q 708 158 639 86 q 778 374 778 231 l 778 979 l 892 979 l 892 383 q 792 90 892 190 q 503 -11 693 -11 m 294 1211 l 711 1211 l 711 1126 l 294 1126 l 294 1211 z "},"Ṻ":{"ha":1006,"x_min":114,"x_max":892,"o":"m 503 -11 q 213 89 311 -11 q 114 383 114 189 l 114 979 l 226 979 l 226 374 q 297 158 226 231 q 503 86 367 86 q 708 158 639 86 q 778 374 778 231 l 778 979 l 892 979 l 892 383 q 792 90 892 190 q 503 -11 693 -11 m 294 1211 l 711 1211 l 711 1126 l 294 1126 l 294 1211 m 446 1451 l 446 1332 l 322 1332 l 322 1451 l 446 1451 m 683 1451 l 683 1332 l 560 1332 l 560 1451 l 683 1451 z "},"Ų":{"ha":1006,"x_min":114,"x_max":892,"o":"m 892 979 l 892 383 q 831 139 892 233 q 654 8 771 44 q 570 -37 597 -10 q 543 -107 543 -65 q 567 -172 543 -149 q 633 -194 590 -194 q 714 -171 669 -194 l 736 -236 q 618 -268 688 -268 q 501 -227 546 -268 q 456 -122 456 -186 q 507 -11 456 -54 l 503 -11 q 213 89 311 -11 q 114 383 114 189 l 114 979 l 226 979 l 226 374 q 297 158 226 231 q 503 86 367 86 q 708 158 639 86 q 778 374 778 231 l 778 979 l 892 979 z "},"Ů":{"ha":1006,"x_min":114,"x_max":892,"o":"m 503 -11 q 213 89 311 -11 q 114 383 114 189 l 114 979 l 226 979 l 226 374 q 297 158 226 231 q 503 86 367 86 q 708 158 639 86 q 778 374 778 231 l 778 979 l 892 979 l 892 383 q 792 90 892 190 q 503 -11 693 -11 m 503 1056 q 403 1095 444 1056 q 363 1193 363 1135 q 403 1291 363 1251 q 503 1331 444 1331 q 602 1291 561 1331 q 643 1193 643 1251 q 602 1095 643 1135 q 503 1056 561 1056 m 503 1124 q 551 1144 532 1124 q 569 1193 569 1164 q 551 1242 569 1222 q 503 1263 532 1263 q 455 1242 474 1263 q 436 1193 436 1222 q 455 1144 436 1164 q 503 1124 474 1124 z "},"Ũ":{"ha":1006,"x_min":114,"x_max":892,"o":"m 503 -11 q 213 89 311 -11 q 114 383 114 189 l 114 979 l 226 979 l 226 374 q 297 158 226 231 q 503 86 367 86 q 708 158 639 86 q 778 374 778 231 l 778 979 l 892 979 l 892 383 q 792 90 892 190 q 503 -11 693 -11 m 279 1092 q 313 1209 279 1167 q 403 1251 347 1251 q 458 1240 432 1251 q 519 1206 485 1228 q 566 1179 549 1188 q 600 1171 583 1171 q 647 1193 631 1171 q 664 1247 664 1215 l 726 1247 q 692 1130 726 1172 q 603 1088 658 1088 q 547 1099 574 1088 q 486 1133 521 1111 q 440 1160 457 1151 q 406 1168 422 1168 q 358 1146 375 1168 q 342 1092 342 1124 l 279 1092 z "},"Ṹ":{"ha":1006,"x_min":114,"x_max":892,"o":"m 503 -11 q 213 89 311 -11 q 114 383 114 189 l 114 979 l 226 979 l 226 374 q 297 158 226 231 q 503 86 367 86 q 708 158 639 86 q 778 374 778 231 l 778 979 l 892 979 l 892 383 q 792 90 892 190 q 503 -11 693 -11 m 279 1092 q 313 1209 279 1167 q 403 1251 347 1251 q 458 1240 432 1251 q 519 1206 485 1228 q 566 1179 549 1188 q 600 1171 583 1171 q 647 1193 631 1171 q 664 1247 664 1215 l 726 1247 q 692 1130 726 1172 q 603 1088 658 1088 q 547 1099 574 1088 q 486 1133 521 1111 q 440 1160 457 1151 q 406 1168 422 1168 q 358 1146 375 1168 q 342 1092 342 1124 l 279 1092 m 464 1285 l 604 1496 l 726 1496 l 542 1285 l 464 1285 z "},"V":{"ha":960,"x_min":3,"x_max":957,"o":"m 957 979 l 529 0 l 431 0 l 3 979 l 122 979 l 481 143 l 840 979 l 957 979 z "},"W":{"ha":1529,"x_min":46,"x_max":1482,"o":"m 1482 979 l 1140 0 l 1043 0 l 764 801 l 485 0 l 389 0 l 46 979 l 161 979 l 439 161 l 724 979 l 810 978 l 1090 160 l 1371 979 l 1482 979 z "},"Ẃ":{"ha":1529,"x_min":46,"x_max":1482,"o":"m 1482 979 l 1140 0 l 1043 0 l 764 801 l 485 0 l 389 0 l 46 979 l 161 979 l 439 161 l 724 979 l 810 978 l 1090 160 l 1371 979 l 1482 979 m 725 1063 l 865 1274 l 988 1274 l 803 1063 l 725 1063 z "},"Ŵ":{"ha":1529,"x_min":46,"x_max":1482,"o":"m 1482 979 l 1140 0 l 1043 0 l 764 801 l 485 0 l 389 0 l 46 979 l 161 979 l 439 161 l 724 979 l 810 978 l 1090 160 l 1371 979 l 1482 979 m 561 1063 l 726 1274 l 801 1274 l 967 1063 l 865 1063 l 764 1206 l 663 1063 l 561 1063 z "},"Ẅ":{"ha":1529,"x_min":46,"x_max":1482,"o":"m 1482 979 l 1140 0 l 1043 0 l 764 801 l 485 0 l 389 0 l 46 979 l 161 979 l 439 161 l 724 979 l 810 978 l 1090 160 l 1371 979 l 1482 979 m 707 1229 l 707 1110 l 583 1110 l 583 1229 l 707 1229 m 944 1229 l 944 1110 l 821 1110 l 821 1229 l 944 1229 z "},"Ẁ":{"ha":1529,"x_min":46,"x_max":1482,"o":"m 1482 979 l 1140 0 l 1043 0 l 764 801 l 485 0 l 389 0 l 46 979 l 161 979 l 439 161 l 724 979 l 810 978 l 1090 160 l 1371 979 l 1482 979 m 540 1274 l 663 1274 l 803 1063 l 725 1063 l 540 1274 z "},"X":{"ha":897,"x_min":11,"x_max":886,"o":"m 886 0 l 751 0 l 449 415 l 146 0 l 11 0 l 383 501 l 29 979 l 164 979 l 450 586 l 736 979 l 869 979 l 514 500 l 886 0 z "},"Y":{"ha":835,"x_min":-25,"x_max":858,"o":"m 474 463 l 474 0 l 360 0 l 360 464 l -25 979 l 107 979 l 418 557 l 729 979 l 858 979 l 474 463 z "},"Ý":{"ha":835,"x_min":-25,"x_max":858,"o":"m 474 463 l 474 0 l 360 0 l 360 464 l -25 979 l 107 979 l 418 557 l 729 979 l 858 979 l 474 463 m 378 1063 l 518 1274 l 640 1274 l 456 1063 l 378 1063 z "},"Ŷ":{"ha":835,"x_min":-25,"x_max":858,"o":"m 474 463 l 474 0 l 360 0 l 360 464 l -25 979 l 107 979 l 418 557 l 729 979 l 858 979 l 474 463 m 214 1063 l 379 1274 l 454 1274 l 619 1063 l 518 1063 l 417 1206 l 315 1063 l 214 1063 z "},"Ÿ":{"ha":835,"x_min":-25,"x_max":858,"o":"m 474 463 l 474 0 l 360 0 l 360 464 l -25 979 l 107 979 l 418 557 l 729 979 l 858 979 l 474 463 m 360 1229 l 360 1110 l 236 1110 l 236 1229 l 360 1229 m 597 1229 l 597 1110 l 474 1110 l 474 1229 l 597 1229 z "},"Ẏ":{"ha":835,"x_min":-25,"x_max":858,"o":"m 474 463 l 474 0 l 360 0 l 360 464 l -25 979 l 107 979 l 418 557 l 729 979 l 858 979 l 474 463 m 485 1232 l 485 1106 l 349 1106 l 349 1232 l 485 1232 z "},"Ỵ":{"ha":835,"x_min":-25,"x_max":858,"o":"m 474 463 l 474 0 l 360 0 l 360 464 l -25 979 l 107 979 l 418 557 l 729 979 l 858 979 l 474 463 m 481 -131 l 481 -253 l 353 -253 l 353 -131 l 481 -131 z "},"Ỳ":{"ha":835,"x_min":-25,"x_max":858,"o":"m 474 463 l 474 0 l 360 0 l 360 464 l -25 979 l 107 979 l 418 557 l 729 979 l 858 979 l 474 463 m 193 1274 l 315 1274 l 456 1063 l 378 1063 l 193 1274 z "},"Ỷ":{"ha":835,"x_min":-25,"x_max":858,"o":"m 474 463 l 474 0 l 360 0 l 360 464 l -25 979 l 107 979 l 418 557 l 729 979 l 858 979 l 474 463 m 454 1063 l 381 1063 l 381 1088 q 396 1126 381 1111 q 438 1153 411 1140 q 465 1170 457 1164 q 474 1186 474 1176 q 458 1206 474 1199 q 417 1213 443 1213 q 332 1196 376 1213 l 313 1256 q 425 1279 367 1279 q 526 1255 489 1279 q 563 1190 563 1231 q 546 1149 563 1164 q 499 1119 529 1133 q 465 1099 475 1107 q 454 1076 454 1090 l 454 1063 z "},"Ȳ":{"ha":835,"x_min":-25,"x_max":858,"o":"m 474 463 l 474 0 l 360 0 l 360 464 l -25 979 l 107 979 l 418 557 l 729 979 l 858 979 l 474 463 m 208 1211 l 625 1211 l 625 1126 l 208 1126 l 208 1211 z "},"Ỹ":{"ha":835,"x_min":-25,"x_max":858,"o":"m 474 463 l 474 0 l 360 0 l 360 464 l -25 979 l 107 979 l 418 557 l 729 979 l 858 979 l 474 463 m 193 1092 q 227 1209 193 1167 q 317 1251 261 1251 q 372 1240 346 1251 q 433 1206 399 1228 q 480 1179 463 1188 q 514 1171 497 1171 q 561 1193 544 1171 q 578 1247 578 1215 l 640 1247 q 606 1130 640 1172 q 517 1088 572 1088 q 461 1099 488 1088 q 400 1133 435 1111 q 353 1160 371 1151 q 319 1168 336 1168 q 272 1146 289 1168 q 256 1092 256 1124 l 193 1092 z "},"Z":{"ha":819,"x_min":63,"x_max":768,"o":"m 768 96 l 768 0 l 63 0 l 63 85 l 622 883 l 63 883 l 63 979 l 754 979 l 754 896 l 193 96 l 768 96 z "},"Ź":{"ha":819,"x_min":63,"x_max":768,"o":"m 768 96 l 768 0 l 63 0 l 63 85 l 622 883 l 63 883 l 63 979 l 754 979 l 754 896 l 193 96 l 768 96 m 371 1063 l 511 1274 l 633 1274 l 449 1063 l 371 1063 z "},"Ž":{"ha":819,"x_min":63,"x_max":768,"o":"m 768 96 l 768 0 l 63 0 l 63 85 l 622 883 l 63 883 l 63 979 l 754 979 l 754 896 l 193 96 l 768 96 m 613 1274 l 447 1063 l 372 1063 l 207 1274 l 308 1274 l 410 1129 l 511 1274 l 613 1274 z "},"Ż":{"ha":819,"x_min":63,"x_max":768,"o":"m 768 96 l 768 0 l 63 0 l 63 85 l 622 883 l 63 883 l 63 979 l 754 979 l 754 896 l 193 96 l 768 96 m 478 1232 l 478 1106 l 342 1106 l 342 1232 l 478 1232 z "},"Ẓ":{"ha":819,"x_min":63,"x_max":768,"o":"m 768 96 l 768 0 l 63 0 l 63 85 l 622 883 l 63 883 l 63 979 l 754 979 l 754 896 l 193 96 l 768 96 m 479 -131 l 479 -253 l 351 -253 l 351 -131 l 479 -131 z "},"a":{"ha":736,"x_min":81,"x_max":635,"o":"m 379 693 q 572 627 508 693 q 635 426 635 561 l 635 0 l 525 0 l 525 115 q 444 23 499 56 q 319 -10 390 -10 q 199 17 254 -10 q 113 90 144 43 q 81 194 81 138 q 119 313 81 271 q 247 374 158 356 q 494 393 336 393 l 525 393 l 525 439 q 490 562 525 524 q 378 600 456 600 q 146 528 261 600 l 108 610 q 235 670 161 647 q 379 693 310 693 m 335 79 q 472 135 418 79 q 525 281 525 192 l 525 321 l 500 321 q 314 310 378 321 q 223 276 250 300 q 196 204 196 251 q 235 115 196 150 q 335 79 275 79 z "},"á":{"ha":736,"x_min":81,"x_max":635,"o":"m 379 693 q 572 627 508 693 q 635 426 635 561 l 635 0 l 525 0 l 525 115 q 444 23 499 56 q 319 -10 390 -10 q 199 17 254 -10 q 113 90 144 43 q 81 194 81 138 q 119 313 81 271 q 247 374 158 356 q 494 393 336 393 l 525 393 l 525 439 q 490 562 525 524 q 378 600 456 600 q 146 528 261 600 l 108 610 q 235 670 161 647 q 379 693 310 693 m 335 79 q 472 135 418 79 q 525 281 525 192 l 525 321 l 500 321 q 314 310 378 321 q 223 276 250 300 q 196 204 196 251 q 235 115 196 150 q 335 79 275 79 m 342 765 l 479 1046 l 608 1046 l 419 765 l 342 765 z "},"ă":{"ha":736,"x_min":81,"x_max":635,"o":"m 379 693 q 572 627 508 693 q 635 426 635 561 l 635 0 l 525 0 l 525 115 q 444 23 499 56 q 319 -10 390 -10 q 199 17 254 -10 q 113 90 144 43 q 81 194 81 138 q 119 313 81 271 q 247 374 158 356 q 494 393 336 393 l 525 393 l 525 439 q 490 562 525 524 q 378 600 456 600 q 146 528 261 600 l 108 610 q 235 670 161 647 q 379 693 310 693 m 335 79 q 472 135 418 79 q 525 281 525 192 l 525 321 l 500 321 q 314 310 378 321 q 223 276 250 300 q 196 204 196 251 q 235 115 196 150 q 335 79 275 79 m 381 807 q 242 850 304 807 q 151 983 181 893 l 222 1013 q 381 890 279 890 q 539 1013 482 890 l 610 983 q 520 850 582 893 q 381 807 458 807 z "},"ắ":{"ha":736,"x_min":81,"x_max":635,"o":"m 379 693 q 572 627 508 693 q 635 426 635 561 l 635 0 l 525 0 l 525 115 q 444 23 499 56 q 319 -10 390 -10 q 199 17 254 -10 q 113 90 144 43 q 81 194 81 138 q 119 313 81 271 q 247 374 158 356 q 494 393 336 393 l 525 393 l 525 439 q 490 562 525 524 q 378 600 456 600 q 146 528 261 600 l 108 610 q 235 670 161 647 q 379 693 310 693 m 335 79 q 472 135 418 79 q 525 281 525 192 l 525 321 l 500 321 q 314 310 378 321 q 223 276 250 300 q 196 204 196 251 q 235 115 196 150 q 335 79 275 79 m 343 908 l 482 1106 l 601 1106 l 418 908 l 343 908 m 381 758 q 244 794 303 758 q 154 906 185 829 l 219 933 q 290 857 250 879 q 381 835 329 835 q 472 857 432 835 q 542 933 511 879 l 607 906 q 517 794 576 829 q 381 758 458 758 z "},"ặ":{"ha":736,"x_min":81,"x_max":635,"o":"m 379 693 q 572 627 508 693 q 635 426 635 561 l 635 0 l 525 0 l 525 115 q 444 23 499 56 q 319 -10 390 -10 q 199 17 254 -10 q 113 90 144 43 q 81 194 81 138 q 119 313 81 271 q 247 374 158 356 q 494 393 336 393 l 525 393 l 525 439 q 490 562 525 524 q 378 600 456 600 q 146 528 261 600 l 108 610 q 235 670 161 647 q 379 693 310 693 m 335 79 q 472 135 418 79 q 525 281 525 192 l 525 321 l 500 321 q 314 310 378 321 q 223 276 250 300 q 196 204 196 251 q 235 115 196 150 q 335 79 275 79 m 440 -131 l 440 -253 l 313 -253 l 313 -131 l 440 -131 m 381 807 q 242 850 304 807 q 151 983 181 893 l 222 1013 q 381 890 279 890 q 539 1013 482 890 l 610 983 q 520 850 582 893 q 381 807 458 807 z "},"ằ":{"ha":736,"x_min":81,"x_max":635,"o":"m 379 693 q 572 627 508 693 q 635 426 635 561 l 635 0 l 525 0 l 525 115 q 444 23 499 56 q 319 -10 390 -10 q 199 17 254 -10 q 113 90 144 43 q 81 194 81 138 q 119 313 81 271 q 247 374 158 356 q 494 393 336 393 l 525 393 l 525 439 q 490 562 525 524 q 378 600 456 600 q 146 528 261 600 l 108 610 q 235 670 161 647 q 379 693 310 693 m 335 79 q 472 135 418 79 q 525 281 525 192 l 525 321 l 500 321 q 314 310 378 321 q 223 276 250 300 q 196 204 196 251 q 235 115 196 150 q 335 79 275 79 m 160 1106 l 279 1106 l 418 908 l 343 908 l 160 1106 m 381 758 q 244 794 303 758 q 154 906 185 829 l 219 933 q 290 857 250 879 q 381 835 329 835 q 472 857 432 835 q 542 933 511 879 l 607 906 q 517 794 576 829 q 381 758 458 758 z "},"ẳ":{"ha":736,"x_min":81,"x_max":635,"o":"m 379 693 q 572 627 508 693 q 635 426 635 561 l 635 0 l 525 0 l 525 115 q 444 23 499 56 q 319 -10 390 -10 q 199 17 254 -10 q 113 90 144 43 q 81 194 81 138 q 119 313 81 271 q 247 374 158 356 q 494 393 336 393 l 525 393 l 525 439 q 490 562 525 524 q 378 600 456 600 q 146 528 261 600 l 108 610 q 235 670 161 647 q 379 693 310 693 m 335 79 q 472 135 418 79 q 525 281 525 192 l 525 321 l 500 321 q 314 310 378 321 q 223 276 250 300 q 196 204 196 251 q 235 115 196 150 q 335 79 275 79 m 418 908 l 344 908 l 344 932 q 360 969 344 956 q 403 993 375 982 q 429 1007 421 1001 q 438 1021 438 1013 q 422 1039 438 1032 q 381 1046 407 1046 q 296 1029 340 1046 l 276 1089 q 389 1113 335 1113 q 490 1088 453 1113 q 526 1025 526 1064 q 511 988 526 1000 q 464 960 496 975 q 430 942 442 950 q 418 921 418 933 l 418 908 m 381 758 q 244 794 303 758 q 154 906 185 829 l 219 933 q 290 857 250 879 q 381 835 329 835 q 472 857 432 835 q 542 933 511 879 l 607 906 q 517 794 576 829 q 381 758 458 758 z "},"ẵ":{"ha":736,"x_min":81,"x_max":635,"o":"m 379 693 q 572 627 508 693 q 635 426 635 561 l 635 0 l 525 0 l 525 115 q 444 23 499 56 q 319 -10 390 -10 q 199 17 254 -10 q 113 90 144 43 q 81 194 81 138 q 119 313 81 271 q 247 374 158 356 q 494 393 336 393 l 525 393 l 525 439 q 490 562 525 524 q 378 600 456 600 q 146 528 261 600 l 108 610 q 235 670 161 647 q 379 693 310 693 m 335 79 q 472 135 418 79 q 525 281 525 192 l 525 321 l 500 321 q 314 310 378 321 q 223 276 250 300 q 196 204 196 251 q 235 115 196 150 q 335 79 275 79 m 157 974 q 191 1077 157 1038 q 281 1117 225 1117 q 335 1106 310 1117 q 397 1075 361 1096 q 445 1051 429 1058 q 478 1044 461 1044 q 525 1064 508 1044 q 542 1113 542 1083 l 604 1113 q 570 1009 604 1049 q 481 969 536 969 q 426 980 451 969 q 364 1011 400 990 q 316 1035 332 1028 q 283 1042 300 1042 q 236 1022 253 1042 q 219 974 219 1003 l 157 974 m 381 758 q 244 794 303 758 q 154 906 185 829 l 219 933 q 290 857 250 879 q 381 835 329 835 q 472 857 432 835 q 542 933 511 879 l 607 906 q 517 794 576 829 q 381 758 458 758 z "},"ǎ":{"ha":736,"x_min":81,"x_max":635,"o":"m 379 693 q 572 627 508 693 q 635 426 635 561 l 635 0 l 525 0 l 525 115 q 444 23 499 56 q 319 -10 390 -10 q 199 17 254 -10 q 113 90 144 43 q 81 194 81 138 q 119 313 81 271 q 247 374 158 356 q 494 393 336 393 l 525 393 l 525 439 q 490 562 525 524 q 378 600 456 600 q 146 528 261 600 l 108 610 q 235 670 161 647 q 379 693 310 693 m 335 79 q 472 135 418 79 q 525 281 525 192 l 525 321 l 500 321 q 314 310 378 321 q 223 276 250 300 q 196 204 196 251 q 235 115 196 150 q 335 79 275 79 m 583 1046 l 419 765 l 342 765 l 178 1046 l 281 1046 l 381 847 l 481 1046 l 583 1046 z "},"â":{"ha":736,"x_min":81,"x_max":635,"o":"m 379 693 q 572 627 508 693 q 635 426 635 561 l 635 0 l 525 0 l 525 115 q 444 23 499 56 q 319 -10 390 -10 q 199 17 254 -10 q 113 90 144 43 q 81 194 81 138 q 119 313 81 271 q 247 374 158 356 q 494 393 336 393 l 525 393 l 525 439 q 490 562 525 524 q 378 600 456 600 q 146 528 261 600 l 108 610 q 235 670 161 647 q 379 693 310 693 m 335 79 q 472 135 418 79 q 525 281 525 192 l 525 321 l 500 321 q 314 310 378 321 q 223 276 250 300 q 196 204 196 251 q 235 115 196 150 q 335 79 275 79 m 178 765 l 342 1046 l 419 1046 l 583 765 l 481 765 l 381 964 l 281 765 l 178 765 z "},"ấ":{"ha":736,"x_min":81,"x_max":743,"o":"m 379 693 q 572 627 508 693 q 635 426 635 561 l 635 0 l 525 0 l 525 115 q 444 23 499 56 q 319 -10 390 -10 q 199 17 254 -10 q 113 90 144 43 q 81 194 81 138 q 119 313 81 271 q 247 374 158 356 q 494 393 336 393 l 525 393 l 525 439 q 490 562 525 524 q 378 600 456 600 q 146 528 261 600 l 108 610 q 235 670 161 647 q 379 693 310 693 m 335 79 q 472 135 418 79 q 525 281 525 192 l 525 321 l 500 321 q 314 310 378 321 q 223 276 250 300 q 196 204 196 251 q 235 115 196 150 q 335 79 275 79 m 499 908 l 625 1106 l 743 1106 l 567 908 l 499 908 m 178 765 l 343 969 l 418 969 l 583 765 l 482 765 l 381 903 l 279 765 l 178 765 z "},"ậ":{"ha":736,"x_min":81,"x_max":635,"o":"m 379 693 q 572 627 508 693 q 635 426 635 561 l 635 0 l 525 0 l 525 115 q 444 23 499 56 q 319 -10 390 -10 q 199 17 254 -10 q 113 90 144 43 q 81 194 81 138 q 119 313 81 271 q 247 374 158 356 q 494 393 336 393 l 525 393 l 525 439 q 490 562 525 524 q 378 600 456 600 q 146 528 261 600 l 108 610 q 235 670 161 647 q 379 693 310 693 m 335 79 q 472 135 418 79 q 525 281 525 192 l 525 321 l 500 321 q 314 310 378 321 q 223 276 250 300 q 196 204 196 251 q 235 115 196 150 q 335 79 275 79 m 440 -131 l 440 -253 l 313 -253 l 313 -131 l 440 -131 m 178 765 l 342 1046 l 419 1046 l 583 765 l 481 765 l 381 964 l 281 765 l 178 765 z "},"ầ":{"ha":736,"x_min":81,"x_max":635,"o":"m 379 693 q 572 627 508 693 q 635 426 635 561 l 635 0 l 525 0 l 525 115 q 444 23 499 56 q 319 -10 390 -10 q 199 17 254 -10 q 113 90 144 43 q 81 194 81 138 q 119 313 81 271 q 247 374 158 356 q 494 393 336 393 l 525 393 l 525 439 q 490 562 525 524 q 378 600 456 600 q 146 528 261 600 l 108 610 q 235 670 161 647 q 379 693 310 693 m 335 79 q 472 135 418 79 q 525 281 525 192 l 525 321 l 500 321 q 314 310 378 321 q 223 276 250 300 q 196 204 196 251 q 235 115 196 150 q 335 79 275 79 m 401 1106 l 519 1106 l 626 908 l 557 908 l 401 1106 m 178 765 l 343 969 l 418 969 l 583 765 l 482 765 l 381 903 l 279 765 l 178 765 z "},"ẩ":{"ha":736,"x_min":81,"x_max":679,"o":"m 379 693 q 572 627 508 693 q 635 426 635 561 l 635 0 l 525 0 l 525 115 q 444 23 499 56 q 319 -10 390 -10 q 199 17 254 -10 q 113 90 144 43 q 81 194 81 138 q 119 313 81 271 q 247 374 158 356 q 494 393 336 393 l 525 393 l 525 439 q 490 562 525 524 q 378 600 456 600 q 146 528 261 600 l 108 610 q 235 670 161 647 q 379 693 310 693 m 335 79 q 472 135 418 79 q 525 281 525 192 l 525 321 l 500 321 q 314 310 378 321 q 223 276 250 300 q 196 204 196 251 q 235 115 196 150 q 335 79 275 79 m 571 908 l 497 908 l 497 932 q 513 969 497 956 q 556 993 528 982 q 582 1007 574 1001 q 590 1021 590 1013 q 575 1039 590 1032 q 533 1046 560 1046 q 449 1029 493 1046 l 429 1089 q 542 1113 488 1113 q 642 1088 606 1113 q 679 1025 679 1064 q 664 988 679 1000 q 617 960 649 975 q 583 942 594 950 q 571 921 571 933 l 571 908 m 178 765 l 343 969 l 418 969 l 583 765 l 482 765 l 381 903 l 279 765 l 178 765 z "},"ẫ":{"ha":736,"x_min":81,"x_max":635,"o":"m 379 693 q 572 627 508 693 q 635 426 635 561 l 635 0 l 525 0 l 525 115 q 444 23 499 56 q 319 -10 390 -10 q 199 17 254 -10 q 113 90 144 43 q 81 194 81 138 q 119 313 81 271 q 247 374 158 356 q 494 393 336 393 l 525 393 l 525 439 q 490 562 525 524 q 378 600 456 600 q 146 528 261 600 l 108 610 q 235 670 161 647 q 379 693 310 693 m 335 79 q 472 135 418 79 q 525 281 525 192 l 525 321 l 500 321 q 314 310 378 321 q 223 276 250 300 q 196 204 196 251 q 235 115 196 150 q 335 79 275 79 m 157 990 q 192 1089 157 1050 q 281 1128 226 1128 q 336 1119 310 1128 q 397 1093 363 1110 q 440 1076 418 1083 q 478 1068 461 1068 q 524 1086 507 1068 q 542 1129 542 1104 l 604 1129 q 570 1031 604 1069 q 481 993 536 993 q 425 1002 451 993 q 364 1028 399 1011 q 322 1045 343 1038 q 283 1053 300 1053 q 237 1034 254 1053 q 219 990 219 1015 l 157 990 m 178 765 l 343 969 l 418 969 l 583 765 l 482 765 l 381 903 l 279 765 l 178 765 z "},"ȁ":{"ha":736,"x_min":81,"x_max":635,"o":"m 379 693 q 572 627 508 693 q 635 426 635 561 l 635 0 l 525 0 l 525 115 q 444 23 499 56 q 319 -10 390 -10 q 199 17 254 -10 q 113 90 144 43 q 81 194 81 138 q 119 313 81 271 q 247 374 158 356 q 494 393 336 393 l 525 393 l 525 439 q 490 562 525 524 q 378 600 456 600 q 146 528 261 600 l 108 610 q 235 670 161 647 q 379 693 310 693 m 335 79 q 472 135 418 79 q 525 281 525 192 l 525 321 l 500 321 q 314 310 378 321 q 223 276 250 300 q 196 204 196 251 q 235 115 196 150 q 335 79 275 79 m 158 1046 l 263 1046 l 325 765 l 268 765 l 158 1046 m 326 1046 l 429 1046 l 493 765 l 436 765 l 326 1046 z "},"ä":{"ha":736,"x_min":81,"x_max":635,"o":"m 379 693 q 572 627 508 693 q 635 426 635 561 l 635 0 l 525 0 l 525 115 q 444 23 499 56 q 319 -10 390 -10 q 199 17 254 -10 q 113 90 144 43 q 81 194 81 138 q 119 313 81 271 q 247 374 158 356 q 494 393 336 393 l 525 393 l 525 439 q 490 562 525 524 q 378 600 456 600 q 146 528 261 600 l 108 610 q 235 670 161 647 q 379 693 310 693 m 335 79 q 472 135 418 79 q 525 281 525 192 l 525 321 l 500 321 q 314 310 378 321 q 223 276 250 300 q 196 204 196 251 q 235 115 196 150 q 335 79 275 79 m 324 965 l 324 847 l 200 847 l 200 965 l 324 965 m 561 965 l 561 847 l 438 847 l 438 965 l 561 965 z "},"ȧ":{"ha":736,"x_min":81,"x_max":635,"o":"m 379 693 q 572 627 508 693 q 635 426 635 561 l 635 0 l 525 0 l 525 115 q 444 23 499 56 q 319 -10 390 -10 q 199 17 254 -10 q 113 90 144 43 q 81 194 81 138 q 119 313 81 271 q 247 374 158 356 q 494 393 336 393 l 525 393 l 525 439 q 490 562 525 524 q 378 600 456 600 q 146 528 261 600 l 108 610 q 235 670 161 647 q 379 693 310 693 m 335 79 q 472 135 418 79 q 525 281 525 192 l 525 321 l 500 321 q 314 310 378 321 q 223 276 250 300 q 196 204 196 251 q 235 115 196 150 q 335 79 275 79 m 449 969 l 449 843 l 313 843 l 313 969 l 449 969 z "},"ạ":{"ha":736,"x_min":81,"x_max":635,"o":"m 379 693 q 572 627 508 693 q 635 426 635 561 l 635 0 l 525 0 l 525 115 q 444 23 499 56 q 319 -10 390 -10 q 199 17 254 -10 q 113 90 144 43 q 81 194 81 138 q 119 313 81 271 q 247 374 158 356 q 494 393 336 393 l 525 393 l 525 439 q 490 562 525 524 q 378 600 456 600 q 146 528 261 600 l 108 610 q 235 670 161 647 q 379 693 310 693 m 335 79 q 472 135 418 79 q 525 281 525 192 l 525 321 l 500 321 q 314 310 378 321 q 223 276 250 300 q 196 204 196 251 q 235 115 196 150 q 335 79 275 79 m 440 -131 l 440 -253 l 313 -253 l 313 -131 l 440 -131 z "},"à":{"ha":736,"x_min":81,"x_max":635,"o":"m 379 693 q 572 627 508 693 q 635 426 635 561 l 635 0 l 525 0 l 525 115 q 444 23 499 56 q 319 -10 390 -10 q 199 17 254 -10 q 113 90 144 43 q 81 194 81 138 q 119 313 81 271 q 247 374 158 356 q 494 393 336 393 l 525 393 l 525 439 q 490 562 525 524 q 378 600 456 600 q 146 528 261 600 l 108 610 q 235 670 161 647 q 379 693 310 693 m 335 79 q 472 135 418 79 q 525 281 525 192 l 525 321 l 500 321 q 314 310 378 321 q 223 276 250 300 q 196 204 196 251 q 235 115 196 150 q 335 79 275 79 m 153 1046 l 282 1046 l 419 765 l 342 765 l 153 1046 z "},"ả":{"ha":736,"x_min":81,"x_max":635,"o":"m 379 693 q 572 627 508 693 q 635 426 635 561 l 635 0 l 525 0 l 525 115 q 444 23 499 56 q 319 -10 390 -10 q 199 17 254 -10 q 113 90 144 43 q 81 194 81 138 q 119 313 81 271 q 247 374 158 356 q 494 393 336 393 l 525 393 l 525 439 q 490 562 525 524 q 378 600 456 600 q 146 528 261 600 l 108 610 q 235 670 161 647 q 379 693 310 693 m 335 79 q 472 135 418 79 q 525 281 525 192 l 525 321 l 500 321 q 314 310 378 321 q 223 276 250 300 q 196 204 196 251 q 235 115 196 150 q 335 79 275 79 m 419 765 l 347 765 l 347 804 q 361 853 347 833 q 400 896 375 874 q 427 925 419 915 q 435 947 435 935 q 420 973 435 964 q 378 982 406 982 q 297 967 342 982 l 276 1028 q 388 1051 332 1051 q 490 1024 453 1051 q 526 956 526 997 q 512 904 526 924 q 468 863 497 885 q 431 827 443 842 q 419 789 419 813 l 419 765 z "},"ȃ":{"ha":736,"x_min":81,"x_max":635,"o":"m 379 693 q 572 627 508 693 q 635 426 635 561 l 635 0 l 525 0 l 525 115 q 444 23 499 56 q 319 -10 390 -10 q 199 17 254 -10 q 113 90 144 43 q 81 194 81 138 q 119 313 81 271 q 247 374 158 356 q 494 393 336 393 l 525 393 l 525 439 q 490 562 525 524 q 378 600 456 600 q 146 528 261 600 l 108 610 q 235 670 161 647 q 379 693 310 693 m 335 79 q 472 135 418 79 q 525 281 525 192 l 525 321 l 500 321 q 314 310 378 321 q 223 276 250 300 q 196 204 196 251 q 235 115 196 150 q 335 79 275 79 m 381 1011 q 519 968 457 1011 q 610 836 581 925 l 539 806 q 381 928 482 928 q 222 806 279 928 l 151 835 q 241 968 179 925 q 381 1011 303 1011 z "},"ā":{"ha":736,"x_min":81,"x_max":635,"o":"m 379 693 q 572 627 508 693 q 635 426 635 561 l 635 0 l 525 0 l 525 115 q 444 23 499 56 q 319 -10 390 -10 q 199 17 254 -10 q 113 90 144 43 q 81 194 81 138 q 119 313 81 271 q 247 374 158 356 q 494 393 336 393 l 525 393 l 525 439 q 490 562 525 524 q 378 600 456 600 q 146 528 261 600 l 108 610 q 235 670 161 647 q 379 693 310 693 m 335 79 q 472 135 418 79 q 525 281 525 192 l 525 321 l 500 321 q 314 310 378 321 q 223 276 250 300 q 196 204 196 251 q 235 115 196 150 q 335 79 275 79 m 172 949 l 589 949 l 589 864 l 172 864 l 172 949 z "},"ą":{"ha":736,"x_min":81,"x_max":696,"o":"m 696 -236 q 578 -268 647 -268 q 460 -227 506 -268 q 415 -121 415 -186 q 444 -29 415 -69 q 525 35 472 11 l 525 115 q 444 23 499 56 q 319 -10 390 -10 q 199 17 254 -10 q 113 90 144 43 q 81 194 81 138 q 119 313 81 269 q 247 374 158 356 q 494 393 336 393 l 525 393 l 525 439 q 490 562 525 524 q 378 600 456 600 q 146 528 261 600 l 108 610 q 235 670 161 647 q 379 693 310 693 q 572 627 508 693 q 635 426 635 561 l 635 0 l 626 0 q 538 -30 572 0 q 503 -107 503 -60 q 526 -172 503 -149 q 593 -194 550 -194 q 674 -171 631 -194 l 696 -236 m 335 79 q 472 135 418 79 q 525 281 525 192 l 525 321 l 500 321 q 315 310 379 321 q 223 275 250 300 q 196 204 196 250 q 235 115 196 150 q 335 79 275 79 z "},"å":{"ha":736,"x_min":81,"x_max":635,"o":"m 379 693 q 572 627 508 693 q 635 426 635 561 l 635 0 l 525 0 l 525 115 q 444 23 499 56 q 319 -10 390 -10 q 199 17 254 -10 q 113 90 144 43 q 81 194 81 138 q 119 313 81 271 q 247 374 158 356 q 494 393 336 393 l 525 393 l 525 439 q 490 562 525 524 q 378 600 456 600 q 146 528 261 600 l 108 610 q 235 670 161 647 q 379 693 310 693 m 335 79 q 472 135 418 79 q 525 281 525 192 l 525 321 l 500 321 q 314 310 378 321 q 223 276 250 300 q 196 204 196 251 q 235 115 196 150 q 335 79 275 79 m 381 768 q 281 808 322 768 q 240 906 240 847 q 281 1003 240 964 q 381 1043 322 1043 q 480 1003 439 1043 q 521 906 521 964 q 480 808 521 847 q 381 768 439 768 m 381 836 q 428 856 410 836 q 447 906 447 876 q 428 955 447 935 q 381 975 410 975 q 333 955 351 975 q 314 906 314 935 q 333 856 314 876 q 381 836 351 836 z "},"ǻ":{"ha":736,"x_min":81,"x_max":681,"o":"m 381 769 q 281 809 322 769 q 240 907 240 849 q 281 1005 240 965 q 381 1044 322 1044 q 453 1025 421 1044 l 557 1181 l 681 1181 l 501 979 q 521 907 521 947 q 480 809 521 849 q 381 769 439 769 m 381 976 q 333 956 351 976 q 314 907 314 936 q 333 858 314 878 q 381 838 351 838 q 428 858 410 838 q 447 907 447 878 q 428 956 447 936 q 381 976 410 976 m 379 693 q 572 627 508 693 q 635 426 635 561 l 635 0 l 525 0 l 525 115 q 444 23 499 56 q 319 -10 390 -10 q 199 17 254 -10 q 113 90 144 43 q 81 194 81 138 q 119 313 81 271 q 247 374 158 356 q 494 393 336 393 l 525 393 l 525 439 q 490 562 525 524 q 378 600 456 600 q 146 528 261 600 l 108 610 q 235 670 161 647 q 379 693 310 693 m 335 79 q 472 135 418 79 q 525 281 525 192 l 525 321 l 500 321 q 314 310 378 321 q 223 276 250 300 q 196 204 196 251 q 235 115 196 150 q 335 79 275 79 z "},"ã":{"ha":736,"x_min":81,"x_max":635,"o":"m 379 693 q 572 627 508 693 q 635 426 635 561 l 635 0 l 525 0 l 525 115 q 444 23 499 56 q 319 -10 390 -10 q 199 17 254 -10 q 113 90 144 43 q 81 194 81 138 q 119 313 81 271 q 247 374 158 356 q 494 393 336 393 l 525 393 l 525 439 q 490 562 525 524 q 378 600 456 600 q 146 528 261 600 l 108 610 q 235 670 161 647 q 379 693 310 693 m 335 79 q 472 135 418 79 q 525 281 525 192 l 525 321 l 500 321 q 314 310 378 321 q 223 276 250 300 q 196 204 196 251 q 235 115 196 150 q 335 79 275 79 m 157 831 q 191 947 157 906 q 281 989 225 989 q 336 977 310 989 q 397 943 363 965 q 445 917 429 925 q 478 910 461 910 q 525 931 508 910 q 542 985 542 953 l 604 985 q 570 868 604 910 q 481 826 536 826 q 425 838 451 826 q 364 872 399 850 q 316 898 332 890 q 283 906 300 906 q 236 884 253 906 q 219 831 219 863 l 157 831 z "},"æ":{"ha":1185,"x_min":81,"x_max":1124,"o":"m 1124 321 l 639 321 q 701 142 644 203 q 861 82 758 82 q 1075 163 974 82 l 1113 81 q 999 15 1068 40 q 861 -10 931 -10 q 686 35 758 -10 q 576 163 614 79 q 486 35 550 81 q 331 -10 422 -10 q 204 17 261 -10 q 114 90 147 43 q 81 194 81 136 q 119 313 81 271 q 248 374 158 356 q 497 393 338 393 l 529 393 l 529 435 q 494 560 529 521 q 382 600 458 600 q 146 528 264 600 l 108 610 q 236 670 161 647 q 381 693 311 693 q 606 572 551 693 q 708 662 646 631 q 844 693 769 693 q 1049 603 975 693 q 1124 360 1124 514 l 1124 321 m 843 606 q 704 550 757 606 q 642 393 651 494 l 1025 393 q 974 551 1021 496 q 843 606 926 606 m 342 79 q 476 138 424 79 q 529 286 529 196 l 529 321 l 503 321 q 315 310 381 321 q 223 275 250 300 q 196 204 196 250 q 237 114 196 149 q 342 79 278 79 z "},"ǽ":{"ha":1185,"x_min":81,"x_max":1124,"o":"m 1124 321 l 639 321 q 701 142 644 203 q 861 82 758 82 q 1075 163 974 82 l 1113 81 q 999 15 1068 40 q 861 -10 931 -10 q 686 35 758 -10 q 576 163 614 79 q 486 35 550 81 q 331 -10 422 -10 q 204 17 261 -10 q 114 90 147 43 q 81 194 81 136 q 119 313 81 271 q 248 374 158 356 q 497 393 338 393 l 529 393 l 529 435 q 494 560 529 521 q 382 600 458 600 q 146 528 264 600 l 108 610 q 236 670 161 647 q 381 693 311 693 q 606 572 551 693 q 708 662 646 631 q 844 693 769 693 q 1049 603 975 693 q 1124 360 1124 514 l 1124 321 m 843 606 q 704 550 757 606 q 642 393 651 494 l 1025 393 q 974 551 1021 496 q 843 606 926 606 m 342 79 q 476 138 424 79 q 529 286 529 196 l 529 321 l 503 321 q 315 310 381 321 q 223 275 250 300 q 196 204 196 250 q 237 114 196 149 q 342 79 278 79 m 546 765 l 683 1046 l 813 1046 l 624 765 l 546 765 z "},"b":{"ha":808,"x_min":104,"x_max":744,"o":"m 444 693 q 601 650 533 693 q 707 528 669 607 q 744 344 744 449 q 707 159 744 239 q 601 35 669 79 q 444 -10 533 -10 q 306 25 365 -10 q 217 124 247 60 l 217 0 l 104 0 l 104 979 l 217 979 l 217 560 q 306 658 247 624 q 444 693 365 693 m 422 83 q 575 152 521 83 q 629 344 629 221 q 575 532 629 465 q 422 599 521 599 q 270 532 324 599 q 217 342 217 465 q 270 151 217 218 q 422 83 324 83 z "},"c":{"ha":665,"x_min":64,"x_max":633,"o":"m 390 -10 q 217 33 290 -10 q 103 155 143 76 q 64 339 64 233 q 105 524 64 444 q 220 649 146 604 q 394 693 294 693 q 528 669 463 693 q 633 604 593 644 l 596 521 q 401 599 500 599 q 239 531 297 599 q 181 339 181 463 q 239 150 181 217 q 401 83 297 83 q 596 161 500 83 l 633 78 q 525 14 590 38 q 390 -10 460 -10 z "},"ć":{"ha":665,"x_min":64,"x_max":633,"o":"m 390 -10 q 217 33 290 -10 q 103 155 143 76 q 64 339 64 233 q 105 524 64 444 q 220 649 146 604 q 394 693 294 693 q 528 669 463 693 q 633 604 593 644 l 596 521 q 401 599 500 599 q 239 531 297 599 q 181 339 181 463 q 239 150 181 217 q 401 83 297 83 q 596 161 500 83 l 633 78 q 525 14 590 38 q 390 -10 460 -10 m 350 765 l 488 1046 l 617 1046 l 428 765 l 350 765 z "},"č":{"ha":665,"x_min":64,"x_max":633,"o":"m 390 -10 q 217 33 290 -10 q 103 155 143 76 q 64 339 64 233 q 105 524 64 444 q 220 649 146 604 q 394 693 294 693 q 528 669 463 693 q 633 604 593 644 l 596 521 q 401 599 500 599 q 239 531 297 599 q 181 339 181 463 q 239 150 181 217 q 401 83 297 83 q 596 161 500 83 l 633 78 q 525 14 590 38 q 390 -10 460 -10 m 592 1046 l 428 765 l 350 765 l 186 1046 l 289 1046 l 389 847 l 489 1046 l 592 1046 z "},"ç":{"ha":665,"x_min":64,"x_max":633,"o":"m 633 78 q 533 17 593 40 q 408 -10 474 -7 l 403 -60 q 436 -57 425 -57 q 511 -81 481 -57 q 542 -153 542 -106 q 499 -235 542 -203 q 381 -268 457 -268 q 317 -261 351 -268 q 258 -242 283 -254 l 276 -182 q 382 -201 326 -201 q 439 -189 419 -201 q 458 -153 458 -176 q 446 -125 458 -135 q 410 -115 433 -115 q 347 -128 379 -115 l 319 -106 l 331 -6 q 135 106 207 14 q 64 339 64 197 q 105 524 64 444 q 220 649 146 604 q 394 693 294 693 q 528 669 463 693 q 633 604 593 644 l 596 521 q 401 599 500 599 q 239 531 297 599 q 181 339 181 463 q 239 150 181 217 q 401 83 297 83 q 596 161 500 83 l 633 78 z "},"ḉ":{"ha":665,"x_min":64,"x_max":633,"o":"m 428 765 l 350 765 l 488 1046 l 617 1046 l 428 765 m 633 78 q 533 17 593 40 q 408 -10 474 -7 l 403 -60 q 436 -57 425 -57 q 511 -81 481 -57 q 542 -153 542 -106 q 499 -235 542 -203 q 381 -268 457 -268 q 317 -261 351 -268 q 258 -242 283 -254 l 276 -182 q 382 -201 326 -201 q 439 -189 419 -201 q 458 -153 458 -176 q 446 -125 458 -135 q 410 -115 433 -115 q 347 -128 379 -115 l 319 -106 l 331 -6 q 135 106 207 14 q 64 339 64 197 q 105 524 64 444 q 220 649 146 604 q 394 693 294 693 q 528 669 463 693 q 633 604 593 644 l 596 521 q 401 599 500 599 q 239 531 297 599 q 181 339 181 463 q 239 150 181 217 q 401 83 297 83 q 596 161 500 83 l 633 78 z "},"ĉ":{"ha":665,"x_min":64,"x_max":633,"o":"m 390 -10 q 217 33 290 -10 q 103 155 143 76 q 64 339 64 233 q 105 524 64 444 q 220 649 146 604 q 394 693 294 693 q 528 669 463 693 q 633 604 593 644 l 596 521 q 401 599 500 599 q 239 531 297 599 q 181 339 181 463 q 239 150 181 217 q 401 83 297 83 q 596 161 500 83 l 633 78 q 525 14 590 38 q 390 -10 460 -10 m 186 765 l 350 1046 l 428 1046 l 592 765 l 489 765 l 389 964 l 289 765 l 186 765 z "},"ċ":{"ha":665,"x_min":64,"x_max":633,"o":"m 390 -10 q 217 33 290 -10 q 103 155 143 76 q 64 339 64 233 q 105 524 64 444 q 220 649 146 604 q 394 693 294 693 q 528 669 463 693 q 633 604 593 644 l 596 521 q 401 599 500 599 q 239 531 297 599 q 181 339 181 463 q 239 150 181 217 q 401 83 297 83 q 596 161 500 83 l 633 78 q 525 14 590 38 q 390 -10 460 -10 m 457 969 l 457 843 l 321 843 l 321 969 l 457 969 z "},"d":{"ha":808,"x_min":64,"x_max":704,"o":"m 704 979 l 704 0 l 592 0 l 592 124 q 502 25 561 60 q 364 -10 443 -10 q 207 35 275 -10 q 101 159 139 79 q 64 344 64 239 q 101 528 64 449 q 207 650 139 607 q 364 693 275 693 q 502 658 443 693 q 592 560 561 624 l 592 979 l 704 979 m 386 83 q 538 151 485 83 q 592 342 592 218 q 538 532 592 465 q 386 599 485 599 q 233 532 288 599 q 178 344 178 465 q 233 152 178 221 q 386 83 288 83 z "},"ð":{"ha":776,"x_min":64,"x_max":713,"o":"m 569 804 q 676 622 640 725 q 713 400 713 519 q 628 94 713 199 q 382 -10 543 -10 q 215 30 288 -10 q 103 142 143 69 q 64 311 64 215 q 103 479 64 407 q 214 592 143 551 q 378 632 285 632 q 594 535 522 632 q 471 769 565 675 l 247 689 l 224 760 l 404 824 q 218 907 325 879 l 246 989 q 508 861 403 950 l 686 925 l 708 854 l 569 804 m 385 83 q 537 144 482 83 q 592 311 592 204 q 538 481 592 421 q 385 540 483 540 q 232 481 286 540 q 178 311 178 421 q 232 142 178 201 q 385 83 286 83 z "},"ď":{"ha":808,"x_min":64,"x_max":839,"o":"m 592 979 l 704 979 l 704 0 l 592 0 l 592 124 q 502 25 561 60 q 364 -10 443 -10 q 207 35 275 -10 q 101 159 139 79 q 64 344 64 239 q 101 528 64 449 q 207 650 139 607 q 364 693 275 693 q 502 658 443 693 q 592 560 561 624 l 592 979 m 839 979 l 803 715 l 750 715 l 750 979 l 839 979 m 386 83 q 538 151 485 83 q 592 342 592 218 q 538 532 592 465 q 386 599 485 599 q 233 532 288 599 q 178 344 178 465 q 233 152 178 221 q 386 83 288 83 z "},"đ":{"ha":808,"x_min":64,"x_max":832,"o":"m 832 771 l 704 771 l 704 0 l 592 0 l 592 124 q 502 25 561 60 q 364 -10 443 -10 q 207 35 275 -10 q 101 159 139 79 q 64 344 64 239 q 101 528 64 449 q 207 650 139 607 q 364 693 275 693 q 502 658 443 693 q 592 560 561 624 l 592 771 l 324 771 l 324 856 l 592 856 l 592 979 l 704 979 l 704 856 l 832 856 l 832 771 m 386 83 q 538 151 485 83 q 592 342 592 218 q 538 532 592 465 q 386 599 485 599 q 233 532 288 599 q 178 344 178 465 q 233 152 178 221 q 386 83 288 83 z "},"ḍ":{"ha":808,"x_min":64,"x_max":704,"o":"m 704 979 l 704 0 l 592 0 l 592 124 q 502 25 561 60 q 364 -10 443 -10 q 207 35 275 -10 q 101 159 139 79 q 64 344 64 239 q 101 528 64 449 q 207 650 139 607 q 364 693 275 693 q 502 658 443 693 q 592 560 561 624 l 592 979 l 704 979 m 386 83 q 538 151 485 83 q 592 342 592 218 q 538 532 592 465 q 386 599 485 599 q 233 532 288 599 q 178 344 178 465 q 233 152 178 221 q 386 83 288 83 m 471 -131 l 471 -253 l 343 -253 l 343 -131 l 471 -131 z "},"ḏ":{"ha":808,"x_min":64,"x_max":704,"o":"m 704 979 l 704 0 l 592 0 l 592 124 q 502 25 561 60 q 364 -10 443 -10 q 207 35 275 -10 q 101 159 139 79 q 64 344 64 239 q 101 528 64 449 q 207 650 139 607 q 364 693 275 693 q 502 658 443 693 q 592 560 561 624 l 592 979 l 704 979 m 386 83 q 538 151 485 83 q 592 342 592 218 q 538 532 592 465 q 386 599 485 599 q 233 532 288 599 q 178 344 178 465 q 233 152 178 221 q 386 83 288 83 m 199 -151 l 615 -151 l 615 -233 l 199 -233 l 199 -151 z "},"ǆ":{"ha":1507,"x_min":64,"x_max":1449,"o":"m 704 979 l 704 0 l 592 0 l 592 124 q 502 25 561 60 q 364 -10 443 -10 q 207 35 275 -10 q 101 159 139 79 q 64 344 64 239 q 101 528 64 449 q 207 650 139 607 q 364 693 275 693 q 502 658 443 693 q 592 560 561 624 l 592 979 l 704 979 m 386 83 q 538 151 485 83 q 592 342 592 218 q 538 532 592 465 q 386 599 485 599 q 233 532 288 599 q 178 344 178 465 q 233 152 178 221 q 386 83 288 83 m 1449 89 l 1449 0 l 875 0 l 875 78 l 1297 588 l 889 588 l 889 676 l 1433 676 l 1433 594 l 1014 89 l 1449 89 m 1367 1046 l 1203 765 l 1125 765 l 961 1046 l 1064 1046 l 1164 847 l 1264 1046 l 1367 1046 z "},"e":{"ha":732,"x_min":64,"x_max":671,"o":"m 671 321 l 176 321 q 240 142 182 203 q 406 82 299 82 q 622 163 524 82 l 660 81 q 546 15 615 39 q 404 -10 476 -10 q 155 83 246 -10 q 64 340 64 176 q 104 524 64 444 q 217 649 144 604 q 383 693 290 693 q 594 605 518 693 q 671 363 671 517 l 671 321 m 385 606 q 242 550 296 606 q 179 393 189 494 l 572 393 q 521 551 569 496 q 385 606 472 606 z "},"é":{"ha":732,"x_min":64,"x_max":671,"o":"m 671 321 l 176 321 q 240 142 182 203 q 406 82 299 82 q 622 163 524 82 l 660 81 q 546 15 615 39 q 404 -10 476 -10 q 155 83 246 -10 q 64 340 64 176 q 104 524 64 444 q 217 649 144 604 q 383 693 290 693 q 594 605 518 693 q 671 363 671 517 l 671 321 m 385 606 q 242 550 296 606 q 179 393 189 494 l 572 393 q 521 551 569 496 q 385 606 472 606 m 344 765 l 482 1046 l 611 1046 l 422 765 l 344 765 z "},"ĕ":{"ha":732,"x_min":64,"x_max":671,"o":"m 671 321 l 176 321 q 240 142 182 203 q 406 82 299 82 q 622 163 524 82 l 660 81 q 546 15 615 39 q 404 -10 476 -10 q 155 83 246 -10 q 64 340 64 176 q 104 524 64 444 q 217 649 144 604 q 383 693 290 693 q 594 605 518 693 q 671 363 671 517 l 671 321 m 385 606 q 242 550 296 606 q 179 393 189 494 l 572 393 q 521 551 569 496 q 385 606 472 606 m 383 807 q 245 850 307 807 q 154 983 183 893 l 225 1013 q 383 890 282 890 q 542 1013 485 890 l 613 983 q 523 850 585 893 q 383 807 461 807 z "},"ě":{"ha":732,"x_min":64,"x_max":671,"o":"m 671 321 l 176 321 q 240 142 182 203 q 406 82 299 82 q 622 163 524 82 l 660 81 q 546 15 615 39 q 404 -10 476 -10 q 155 83 246 -10 q 64 340 64 176 q 104 524 64 444 q 217 649 144 604 q 383 693 290 693 q 594 605 518 693 q 671 363 671 517 l 671 321 m 385 606 q 242 550 296 606 q 179 393 189 494 l 572 393 q 521 551 569 496 q 385 606 472 606 m 586 1046 l 422 765 l 344 765 l 181 1046 l 283 1046 l 383 847 l 483 1046 l 586 1046 z "},"ḝ":{"ha":732,"x_min":64,"x_max":671,"o":"m 383 807 q 245 850 307 807 q 154 983 183 893 l 225 1013 q 383 890 282 890 q 542 1013 485 890 l 613 983 q 523 850 585 893 q 383 807 461 807 m 671 321 l 176 321 q 240 142 182 203 q 406 82 299 82 q 622 163 524 82 l 660 81 q 557 18 619 42 q 428 -8 494 -6 l 422 -60 q 456 -57 444 -57 q 531 -81 500 -57 q 561 -153 561 -106 q 519 -235 561 -203 q 400 -268 476 -268 q 338 -261 372 -268 q 278 -242 303 -254 l 296 -182 q 401 -201 346 -201 q 458 -189 439 -201 q 478 -153 478 -176 q 465 -125 478 -135 q 429 -115 453 -115 q 367 -128 399 -115 l 339 -106 l 350 -7 q 140 100 215 8 q 64 340 64 192 q 104 524 64 444 q 217 649 144 604 q 383 693 290 693 q 594 605 518 693 q 671 363 671 517 l 671 321 m 385 606 q 242 550 296 606 q 179 393 189 494 l 572 393 q 521 551 569 496 q 385 606 472 606 z "},"ê":{"ha":732,"x_min":64,"x_max":671,"o":"m 671 321 l 176 321 q 240 142 182 203 q 406 82 299 82 q 622 163 524 82 l 660 81 q 546 15 615 39 q 404 -10 476 -10 q 155 83 246 -10 q 64 340 64 176 q 104 524 64 444 q 217 649 144 604 q 383 693 290 693 q 594 605 518 693 q 671 363 671 517 l 671 321 m 385 606 q 242 550 296 606 q 179 393 189 494 l 572 393 q 521 551 569 496 q 385 606 472 606 m 181 765 l 344 1046 l 422 1046 l 586 765 l 483 765 l 383 964 l 283 765 l 181 765 z "},"ế":{"ha":732,"x_min":64,"x_max":746,"o":"m 671 321 l 176 321 q 240 142 182 203 q 406 82 299 82 q 622 163 524 82 l 660 81 q 546 15 615 39 q 404 -10 476 -10 q 155 83 246 -10 q 64 340 64 176 q 104 524 64 444 q 217 649 144 604 q 383 693 290 693 q 594 605 518 693 q 671 363 671 517 l 671 321 m 385 606 q 242 550 296 606 q 179 393 189 494 l 572 393 q 521 551 569 496 q 385 606 472 606 m 501 908 l 628 1106 l 746 1106 l 569 908 l 501 908 m 181 765 l 346 969 l 421 969 l 586 765 l 485 765 l 383 903 l 282 765 l 181 765 z "},"ệ":{"ha":732,"x_min":64,"x_max":671,"o":"m 671 321 l 176 321 q 240 142 182 203 q 406 82 299 82 q 622 163 524 82 l 660 81 q 546 15 615 39 q 404 -10 476 -10 q 155 83 246 -10 q 64 340 64 176 q 104 524 64 444 q 217 649 144 604 q 383 693 290 693 q 594 605 518 693 q 671 363 671 517 l 671 321 m 385 606 q 242 550 296 606 q 179 393 189 494 l 572 393 q 521 551 569 496 q 385 606 472 606 m 467 -131 l 467 -253 l 339 -253 l 339 -131 l 467 -131 m 181 765 l 344 1046 l 422 1046 l 586 765 l 483 765 l 383 964 l 283 765 l 181 765 z "},"ề":{"ha":732,"x_min":64,"x_max":671,"o":"m 671 321 l 176 321 q 240 142 182 203 q 406 82 299 82 q 622 163 524 82 l 660 81 q 546 15 615 39 q 404 -10 476 -10 q 155 83 246 -10 q 64 340 64 176 q 104 524 64 444 q 217 649 144 604 q 383 693 290 693 q 594 605 518 693 q 671 363 671 517 l 671 321 m 385 606 q 242 550 296 606 q 179 393 189 494 l 572 393 q 521 551 569 496 q 385 606 472 606 m 404 1106 l 522 1106 l 629 908 l 560 908 l 404 1106 m 181 765 l 346 969 l 421 969 l 586 765 l 485 765 l 383 903 l 282 765 l 181 765 z "},"ể":{"ha":732,"x_min":64,"x_max":682,"o":"m 671 321 l 176 321 q 240 142 182 203 q 406 82 299 82 q 622 163 524 82 l 660 81 q 546 15 615 39 q 404 -10 476 -10 q 155 83 246 -10 q 64 340 64 176 q 104 524 64 444 q 217 649 144 604 q 383 693 290 693 q 594 605 518 693 q 671 363 671 517 l 671 321 m 385 606 q 242 550 296 606 q 179 393 189 494 l 572 393 q 521 551 569 496 q 385 606 472 606 m 574 908 l 500 908 l 500 932 q 515 969 500 956 q 558 993 531 982 q 585 1007 576 1001 q 593 1021 593 1013 q 578 1039 593 1032 q 536 1046 563 1046 q 451 1029 496 1046 l 432 1089 q 544 1113 490 1113 q 645 1088 608 1113 q 682 1025 682 1064 q 667 988 682 1000 q 619 960 651 975 q 585 942 597 950 q 574 921 574 933 l 574 908 m 181 765 l 346 969 l 421 969 l 586 765 l 485 765 l 383 903 l 282 765 l 181 765 z "},"ễ":{"ha":732,"x_min":64,"x_max":671,"o":"m 671 321 l 176 321 q 240 142 182 203 q 406 82 299 82 q 622 163 524 82 l 660 81 q 546 15 615 39 q 404 -10 476 -10 q 155 83 246 -10 q 64 340 64 176 q 104 524 64 444 q 217 649 144 604 q 383 693 290 693 q 594 605 518 693 q 671 363 671 517 l 671 321 m 385 606 q 242 550 296 606 q 179 393 189 494 l 572 393 q 521 551 569 496 q 385 606 472 606 m 160 990 q 194 1089 160 1050 q 283 1128 229 1128 q 339 1119 313 1128 q 400 1093 365 1110 q 442 1076 421 1083 q 481 1068 464 1068 q 527 1086 510 1068 q 544 1129 544 1104 l 607 1129 q 573 1031 607 1069 q 483 993 539 993 q 428 1002 454 993 q 367 1028 401 1011 q 324 1045 346 1038 q 286 1053 303 1053 q 240 1034 257 1053 q 222 990 222 1015 l 160 990 m 181 765 l 346 969 l 421 969 l 586 765 l 485 765 l 383 903 l 282 765 l 181 765 z "},"ȅ":{"ha":732,"x_min":64,"x_max":671,"o":"m 671 321 l 176 321 q 240 142 182 203 q 406 82 299 82 q 622 163 524 82 l 660 81 q 546 15 615 39 q 404 -10 476 -10 q 155 83 246 -10 q 64 340 64 176 q 104 524 64 444 q 217 649 144 604 q 383 693 290 693 q 594 605 518 693 q 671 363 671 517 l 671 321 m 385 606 q 242 550 296 606 q 179 393 189 494 l 572 393 q 521 551 569 496 q 385 606 472 606 m 161 1046 l 265 1046 l 328 765 l 271 765 l 161 1046 m 329 1046 l 432 1046 l 496 765 l 439 765 l 329 1046 z "},"ë":{"ha":732,"x_min":64,"x_max":671,"o":"m 671 321 l 176 321 q 240 142 182 203 q 406 82 299 82 q 622 163 524 82 l 660 81 q 546 15 615 39 q 404 -10 476 -10 q 155 83 246 -10 q 64 340 64 176 q 104 524 64 444 q 217 649 144 604 q 383 693 290 693 q 594 605 518 693 q 671 363 671 517 l 671 321 m 385 606 q 242 550 296 606 q 179 393 189 494 l 572 393 q 521 551 569 496 q 385 606 472 606 m 326 965 l 326 847 l 203 847 l 203 965 l 326 965 m 564 965 l 564 847 l 440 847 l 440 965 l 564 965 z "},"ė":{"ha":732,"x_min":64,"x_max":671,"o":"m 671 321 l 176 321 q 240 142 182 203 q 406 82 299 82 q 622 163 524 82 l 660 81 q 546 15 615 39 q 404 -10 476 -10 q 155 83 246 -10 q 64 340 64 176 q 104 524 64 444 q 217 649 144 604 q 383 693 290 693 q 594 605 518 693 q 671 363 671 517 l 671 321 m 385 606 q 242 550 296 606 q 179 393 189 494 l 572 393 q 521 551 569 496 q 385 606 472 606 m 451 969 l 451 843 l 315 843 l 315 969 l 451 969 z "},"ẹ":{"ha":732,"x_min":64,"x_max":671,"o":"m 671 321 l 176 321 q 240 142 182 203 q 406 82 299 82 q 622 163 524 82 l 660 81 q 546 15 615 39 q 404 -10 476 -10 q 155 83 246 -10 q 64 340 64 176 q 104 524 64 444 q 217 649 144 604 q 383 693 290 693 q 594 605 518 693 q 671 363 671 517 l 671 321 m 385 606 q 242 550 296 606 q 179 393 189 494 l 572 393 q 521 551 569 496 q 385 606 472 606 m 467 -131 l 467 -253 l 339 -253 l 339 -131 l 467 -131 z "},"è":{"ha":732,"x_min":64,"x_max":671,"o":"m 671 321 l 176 321 q 240 142 182 203 q 406 82 299 82 q 622 163 524 82 l 660 81 q 546 15 615 39 q 404 -10 476 -10 q 155 83 246 -10 q 64 340 64 176 q 104 524 64 444 q 217 649 144 604 q 383 693 290 693 q 594 605 518 693 q 671 363 671 517 l 671 321 m 385 606 q 242 550 296 606 q 179 393 189 494 l 572 393 q 521 551 569 496 q 385 606 472 606 m 156 1046 l 285 1046 l 422 765 l 344 765 l 156 1046 z "},"ẻ":{"ha":732,"x_min":64,"x_max":671,"o":"m 671 321 l 176 321 q 240 142 182 203 q 406 82 299 82 q 622 163 524 82 l 660 81 q 546 15 615 39 q 404 -10 476 -10 q 155 83 246 -10 q 64 340 64 176 q 104 524 64 444 q 217 649 144 604 q 383 693 290 693 q 594 605 518 693 q 671 363 671 517 l 671 321 m 385 606 q 242 550 296 606 q 179 393 189 494 l 572 393 q 521 551 569 496 q 385 606 472 606 m 422 765 l 350 765 l 350 804 q 364 853 350 833 q 403 896 378 874 q 430 925 422 915 q 438 947 438 935 q 423 973 438 964 q 381 982 408 982 q 300 967 344 982 l 279 1028 q 390 1051 335 1051 q 492 1024 456 1051 q 529 956 529 997 q 515 904 529 924 q 471 863 500 885 q 434 827 446 842 q 422 789 422 813 l 422 765 z "},"ȇ":{"ha":732,"x_min":64,"x_max":671,"o":"m 671 321 l 176 321 q 240 142 182 203 q 406 82 299 82 q 622 163 524 82 l 660 81 q 546 15 615 39 q 404 -10 476 -10 q 155 83 246 -10 q 64 340 64 176 q 104 524 64 444 q 217 649 144 604 q 383 693 290 693 q 594 605 518 693 q 671 363 671 517 l 671 321 m 385 606 q 242 550 296 606 q 179 393 189 494 l 572 393 q 521 551 569 496 q 385 606 472 606 m 383 1011 q 522 968 460 1011 q 613 836 583 925 l 542 806 q 383 928 485 928 q 225 806 282 928 l 154 835 q 244 968 182 925 q 383 1011 306 1011 z "},"ē":{"ha":732,"x_min":64,"x_max":671,"o":"m 671 321 l 176 321 q 240 142 182 203 q 406 82 299 82 q 622 163 524 82 l 660 81 q 546 15 615 39 q 404 -10 476 -10 q 155 83 246 -10 q 64 340 64 176 q 104 524 64 444 q 217 649 144 604 q 383 693 290 693 q 594 605 518 693 q 671 363 671 517 l 671 321 m 385 606 q 242 550 296 606 q 179 393 189 494 l 572 393 q 521 551 569 496 q 385 606 472 606 m 175 949 l 592 949 l 592 864 l 175 864 l 175 949 z "},"ḗ":{"ha":732,"x_min":64,"x_max":671,"o":"m 671 321 l 176 321 q 240 142 182 203 q 406 82 299 82 q 622 163 524 82 l 660 81 q 546 15 615 39 q 404 -10 476 -10 q 155 83 246 -10 q 64 340 64 176 q 104 524 64 444 q 217 649 144 604 q 383 693 290 693 q 594 605 518 693 q 671 363 671 517 l 671 321 m 385 606 q 242 550 296 606 q 179 393 189 494 l 572 393 q 521 551 569 496 q 385 606 472 606 m 175 949 l 592 949 l 592 864 l 175 864 l 175 949 m 344 1033 l 482 1314 l 611 1314 l 422 1033 l 344 1033 z "},"ḕ":{"ha":732,"x_min":64,"x_max":671,"o":"m 671 321 l 176 321 q 240 142 182 203 q 406 82 299 82 q 622 163 524 82 l 660 81 q 546 15 615 39 q 404 -10 476 -10 q 155 83 246 -10 q 64 340 64 176 q 104 524 64 444 q 217 649 144 604 q 383 693 290 693 q 594 605 518 693 q 671 363 671 517 l 671 321 m 385 606 q 242 550 296 606 q 179 393 189 494 l 572 393 q 521 551 569 496 q 385 606 472 606 m 175 949 l 592 949 l 592 864 l 175 864 l 175 949 m 156 1314 l 285 1314 l 422 1033 l 344 1033 l 156 1314 z "},"ę":{"ha":732,"x_min":64,"x_max":671,"o":"m 671 321 l 176 321 q 240 142 182 203 q 406 82 299 82 q 622 163 524 82 l 660 82 q 634 61 650 72 q 589 35 618 50 q 494 -35 522 -3 q 467 -107 467 -67 q 490 -172 467 -149 q 557 -194 514 -194 q 638 -171 593 -194 l 660 -236 q 542 -268 611 -268 q 424 -228 469 -268 q 379 -122 379 -187 q 428 -8 379 -54 q 404 -10 421 -10 q 155 83 246 -10 q 64 340 64 176 q 104 524 64 444 q 217 649 144 604 q 383 693 290 693 q 594 605 518 693 q 671 363 671 517 l 671 321 m 385 606 q 242 550 296 606 q 179 393 189 494 l 572 393 q 521 551 569 496 q 385 606 472 606 z "},"ẽ":{"ha":732,"x_min":64,"x_max":671,"o":"m 671 321 l 176 321 q 240 142 182 203 q 406 82 299 82 q 622 163 524 82 l 660 81 q 546 15 615 39 q 404 -10 476 -10 q 155 83 246 -10 q 64 340 64 176 q 104 524 64 444 q 217 649 144 604 q 383 693 290 693 q 594 605 518 693 q 671 363 671 517 l 671 321 m 385 606 q 242 550 296 606 q 179 393 189 494 l 572 393 q 521 551 569 496 q 385 606 472 606 m 160 831 q 194 947 160 906 q 283 989 228 989 q 339 977 313 989 q 400 943 365 965 q 448 917 432 925 q 481 910 464 910 q 528 931 511 910 q 544 985 544 953 l 607 985 q 573 868 607 910 q 483 826 539 826 q 428 838 454 826 q 367 872 401 850 q 319 898 335 890 q 286 906 303 906 q 239 884 256 906 q 222 831 222 863 l 160 831 z "},"ə":{"ha":732,"x_min":61,"x_max":669,"o":"m 336 693 q 580 599 490 693 q 669 343 669 506 q 631 156 669 236 q 522 33 592 76 q 358 -10 451 -10 q 140 78 218 -10 q 61 322 61 165 l 61 363 l 557 363 q 494 540 551 479 q 333 600 436 600 q 110 519 222 600 l 72 601 q 194 669 122 644 q 336 693 265 693 m 356 76 q 495 132 443 76 q 557 290 547 188 l 164 290 q 217 131 168 186 q 356 76 267 76 z "},"f":{"ha":456,"x_min":10,"x_max":481,"o":"m 254 676 l 446 676 l 446 588 l 254 588 l 254 0 l 142 0 l 142 588 l 10 588 l 10 676 l 142 676 l 142 699 q 209 903 142 833 q 417 981 276 972 l 472 983 l 481 896 l 417 892 q 293 844 332 886 q 254 714 254 801 l 254 676 z "},"g":{"ha":814,"x_min":64,"x_max":710,"o":"m 710 676 l 710 46 q 632 -183 710 -106 q 401 -260 554 -260 q 103 -168 224 -260 l 140 -85 q 268 -149 208 -129 q 401 -168 328 -168 q 549 -116 499 -168 q 599 36 599 -64 l 599 156 q 509 56 569 90 q 367 21 449 21 q 209 63 278 21 q 102 181 140 104 q 64 357 64 257 q 102 533 64 457 q 209 651 140 610 q 367 693 278 693 q 507 658 447 693 q 597 560 567 624 l 597 676 l 710 676 m 389 114 q 542 178 486 114 q 597 357 597 243 q 542 534 597 469 q 389 599 488 599 q 234 534 290 599 q 178 357 178 469 q 234 178 178 243 q 389 114 290 114 z "},"ğ":{"ha":814,"x_min":64,"x_max":710,"o":"m 710 676 l 710 46 q 632 -183 710 -106 q 401 -260 554 -260 q 103 -168 224 -260 l 140 -85 q 268 -149 208 -129 q 401 -168 328 -168 q 549 -116 499 -168 q 599 36 599 -64 l 599 156 q 509 56 569 90 q 367 21 449 21 q 209 63 278 21 q 102 181 140 104 q 64 357 64 257 q 102 533 64 457 q 209 651 140 610 q 367 693 278 693 q 507 658 447 693 q 597 560 567 624 l 597 676 l 710 676 m 389 114 q 542 178 486 114 q 597 357 597 243 q 542 534 597 469 q 389 599 488 599 q 234 534 290 599 q 178 357 178 469 q 234 178 178 243 q 389 114 290 114 m 410 807 q 272 850 333 807 q 181 983 210 893 l 251 1013 q 410 890 308 890 q 568 1013 511 890 l 639 983 q 549 850 611 893 q 410 807 488 807 z "},"ǧ":{"ha":814,"x_min":64,"x_max":710,"o":"m 710 676 l 710 46 q 632 -183 710 -106 q 401 -260 554 -260 q 103 -168 224 -260 l 140 -85 q 268 -149 208 -129 q 401 -168 328 -168 q 549 -116 499 -168 q 599 36 599 -64 l 599 156 q 509 56 569 90 q 367 21 449 21 q 209 63 278 21 q 102 181 140 104 q 64 357 64 257 q 102 533 64 457 q 209 651 140 610 q 367 693 278 693 q 507 658 447 693 q 597 560 567 624 l 597 676 l 710 676 m 389 114 q 542 178 486 114 q 597 357 597 243 q 542 534 597 469 q 389 599 488 599 q 234 534 290 599 q 178 357 178 469 q 234 178 178 243 q 389 114 290 114 m 613 1046 l 449 765 l 371 765 l 207 1046 l 310 1046 l 410 847 l 510 1046 l 613 1046 z "},"ĝ":{"ha":814,"x_min":64,"x_max":710,"o":"m 710 676 l 710 46 q 632 -183 710 -106 q 401 -260 554 -260 q 103 -168 224 -260 l 140 -85 q 268 -149 208 -129 q 401 -168 328 -168 q 549 -116 499 -168 q 599 36 599 -64 l 599 156 q 509 56 569 90 q 367 21 449 21 q 209 63 278 21 q 102 181 140 104 q 64 357 64 257 q 102 533 64 457 q 209 651 140 610 q 367 693 278 693 q 507 658 447 693 q 597 560 567 624 l 597 676 l 710 676 m 389 114 q 542 178 486 114 q 597 357 597 243 q 542 534 597 469 q 389 599 488 599 q 234 534 290 599 q 178 357 178 469 q 234 178 178 243 q 389 114 290 114 m 207 765 l 371 1046 l 449 1046 l 613 765 l 510 765 l 410 964 l 310 765 l 207 765 z "},"ģ":{"ha":814,"x_min":64,"x_max":710,"o":"m 710 676 l 710 46 q 632 -183 710 -106 q 401 -260 554 -260 q 103 -168 224 -260 l 140 -85 q 268 -149 208 -129 q 401 -168 328 -168 q 549 -116 499 -168 q 599 36 599 -64 l 599 156 q 509 56 569 90 q 367 21 449 21 q 209 63 278 21 q 102 181 140 104 q 64 357 64 257 q 102 533 64 457 q 209 651 140 610 q 367 693 278 693 q 507 658 447 693 q 597 560 567 624 l 597 676 l 710 676 m 389 114 q 542 178 486 114 q 597 357 597 243 q 542 534 597 469 q 389 599 488 599 q 234 534 290 599 q 178 357 178 469 q 234 178 178 243 q 389 114 290 114 m 478 921 l 478 806 l 342 806 l 342 886 q 358 985 342 942 q 413 1065 374 1028 l 463 1028 q 426 976 438 1001 q 413 921 415 950 l 478 921 z "},"ġ":{"ha":814,"x_min":64,"x_max":710,"o":"m 710 676 l 710 46 q 632 -183 710 -106 q 401 -260 554 -260 q 103 -168 224 -260 l 140 -85 q 268 -149 208 -129 q 401 -168 328 -168 q 549 -116 499 -168 q 599 36 599 -64 l 599 156 q 509 56 569 90 q 367 21 449 21 q 209 63 278 21 q 102 181 140 104 q 64 357 64 257 q 102 533 64 457 q 209 651 140 610 q 367 693 278 693 q 507 658 447 693 q 597 560 567 624 l 597 676 l 710 676 m 389 114 q 542 178 486 114 q 597 357 597 243 q 542 534 597 469 q 389 599 488 599 q 234 534 290 599 q 178 357 178 469 q 234 178 178 243 q 389 114 290 114 m 478 969 l 478 843 l 342 843 l 342 969 l 478 969 z "},"ḡ":{"ha":814,"x_min":64,"x_max":710,"o":"m 710 676 l 710 46 q 632 -183 710 -106 q 401 -260 554 -260 q 103 -168 224 -260 l 140 -85 q 268 -149 208 -129 q 401 -168 328 -168 q 549 -116 499 -168 q 599 36 599 -64 l 599 156 q 509 56 569 90 q 367 21 449 21 q 209 63 278 21 q 102 181 140 104 q 64 357 64 257 q 102 533 64 457 q 209 651 140 610 q 367 693 278 693 q 507 658 447 693 q 597 560 567 624 l 597 676 l 710 676 m 389 114 q 542 178 486 114 q 597 357 597 243 q 542 534 597 469 q 389 599 488 599 q 234 534 290 599 q 178 357 178 469 q 234 178 178 243 q 389 114 290 114 m 201 949 l 618 949 l 618 864 l 201 864 l 201 949 z "},"h":{"ha":789,"x_min":104,"x_max":688,"o":"m 444 693 q 688 425 688 693 l 688 0 l 575 0 l 575 418 q 538 556 575 513 q 421 599 501 599 q 272 542 328 599 q 217 388 217 485 l 217 0 l 104 0 l 104 979 l 217 979 l 217 568 q 309 661 250 629 q 444 693 368 693 z "},"ħ":{"ha":789,"x_min":-24,"x_max":688,"o":"m 444 693 q 688 425 688 693 l 688 0 l 575 0 l 575 418 q 538 556 575 513 q 421 599 501 599 q 272 542 328 599 q 217 388 217 485 l 217 0 l 104 0 l 104 771 l -24 771 l -24 856 l 104 856 l 104 979 l 217 979 l 217 856 l 485 856 l 485 771 l 217 771 l 217 568 q 309 661 250 629 q 444 693 368 693 z "},"ḫ":{"ha":789,"x_min":104,"x_max":688,"o":"m 444 693 q 688 425 688 693 l 688 0 l 575 0 l 575 418 q 538 556 575 513 q 421 599 501 599 q 272 542 328 599 q 217 388 217 485 l 217 0 l 104 0 l 104 979 l 217 979 l 217 568 q 309 661 250 629 q 444 693 368 693 m 396 -293 q 258 -250 319 -293 q 167 -118 196 -207 l 238 -87 q 307 -182 268 -153 q 396 -211 346 -211 q 485 -182 446 -211 q 554 -87 524 -153 l 625 -117 q 535 -250 597 -207 q 396 -293 474 -293 z "},"ĥ":{"ha":789,"x_min":-42,"x_max":688,"o":"m 444 693 q 688 425 688 693 l 688 0 l 575 0 l 575 418 q 538 556 575 513 q 421 599 501 599 q 272 542 328 599 q 217 388 217 485 l 217 0 l 104 0 l 104 979 l 217 979 l 217 568 q 309 661 250 629 q 444 693 368 693 m -42 1063 l 124 1274 l 199 1274 l 364 1063 l 263 1063 l 161 1206 l 60 1063 l -42 1063 z "},"ḥ":{"ha":789,"x_min":104,"x_max":688,"o":"m 444 693 q 688 425 688 693 l 688 0 l 575 0 l 575 418 q 538 556 575 513 q 421 599 501 599 q 272 542 328 599 q 217 388 217 485 l 217 0 l 104 0 l 104 979 l 217 979 l 217 568 q 309 661 250 629 q 444 693 368 693 m 460 -131 l 460 -253 l 332 -253 l 332 -131 l 460 -131 z "},"i":{"ha":322,"x_min":93,"x_max":229,"o":"m 104 676 l 217 676 l 217 0 l 104 0 l 104 676 m 229 969 l 229 843 l 93 843 l 93 969 l 229 969 z "},"ı":{"ha":322,"x_min":104,"x_max":217,"o":"m 104 676 l 217 676 l 217 0 l 104 0 l 104 676 z "},"í":{"ha":322,"x_min":104,"x_max":389,"o":"m 104 676 l 217 676 l 217 0 l 104 0 l 104 676 m 122 765 l 260 1046 l 389 1046 l 200 765 l 122 765 z "},"ĭ":{"ha":322,"x_min":-68,"x_max":390,"o":"m 104 676 l 217 676 l 217 0 l 104 0 l 104 676 m 161 807 q 23 850 85 807 q -68 983 -39 893 l 3 1013 q 161 890 60 890 q 319 1013 263 890 l 390 983 q 301 850 363 893 q 161 807 239 807 z "},"î":{"ha":322,"x_min":-42,"x_max":364,"o":"m 104 676 l 217 676 l 217 0 l 104 0 l 104 676 m -42 765 l 122 1046 l 200 1046 l 364 765 l 261 765 l 161 964 l 61 765 l -42 765 z "},"ȉ":{"ha":322,"x_min":-61,"x_max":274,"o":"m 104 676 l 217 676 l 217 0 l 104 0 l 104 676 m -61 1046 l 43 1046 l 106 765 l 49 765 l -61 1046 m 107 1046 l 210 1046 l 274 765 l 217 765 l 107 1046 z "},"ï":{"ha":322,"x_min":-19,"x_max":342,"o":"m 104 676 l 217 676 l 217 0 l 104 0 l 104 676 m 104 965 l 104 847 l -19 847 l -19 965 l 104 965 m 342 965 l 342 847 l 218 847 l 218 965 l 342 965 z "},"ḯ":{"ha":322,"x_min":-19,"x_max":389,"o":"m 104 676 l 217 676 l 217 0 l 104 0 l 104 676 m 104 965 l 104 847 l -19 847 l -19 965 l 104 965 m 342 965 l 342 847 l 218 847 l 218 965 l 342 965 m 122 1033 l 260 1314 l 389 1314 l 200 1033 l 122 1033 z "},"ị":{"ha":322,"x_min":93,"x_max":229,"o":"m 104 676 l 217 676 l 217 0 l 104 0 l 104 676 m 229 969 l 229 843 l 93 843 l 93 969 l 229 969 m 224 -131 l 224 -253 l 96 -253 l 96 -131 l 224 -131 z "},"ì":{"ha":322,"x_min":-67,"x_max":217,"o":"m 104 676 l 217 676 l 217 0 l 104 0 l 104 676 m -67 1046 l 63 1046 l 200 765 l 122 765 l -67 1046 z "},"ỉ":{"ha":322,"x_min":57,"x_max":307,"o":"m 104 676 l 217 676 l 217 0 l 104 0 l 104 676 m 200 765 l 128 765 l 128 804 q 142 853 128 833 q 181 896 156 874 q 208 925 200 915 q 215 947 215 935 q 201 973 215 964 q 158 982 186 982 q 78 967 122 982 l 57 1028 q 168 1051 113 1051 q 270 1024 233 1051 q 307 956 307 997 q 292 904 307 924 q 249 863 278 885 q 212 827 224 842 q 200 789 200 813 l 200 765 z "},"ȋ":{"ha":322,"x_min":-68,"x_max":390,"o":"m 104 676 l 217 676 l 217 0 l 104 0 l 104 676 m 161 1011 q 299 968 238 1011 q 390 836 361 925 l 319 806 q 161 928 263 928 q 3 806 60 928 l -68 835 q 22 968 -40 925 q 161 1011 83 1011 z "},"ī":{"ha":322,"x_min":-47,"x_max":369,"o":"m 104 676 l 217 676 l 217 0 l 104 0 l 104 676 m -47 949 l 369 949 l 369 864 l -47 864 l -47 949 z "},"į":{"ha":322,"x_min":-3,"x_max":279,"o":"m 229 843 l 93 843 l 93 969 l 229 969 l 229 843 m 279 -236 q 160 -268 225 -268 q 42 -227 88 -268 q -3 -121 -3 -186 q 25 -31 -3 -72 q 104 33 53 10 l 104 676 l 217 676 l 217 0 l 210 0 q 119 -31 153 0 q 85 -107 85 -61 q 109 -172 85 -149 q 176 -194 133 -194 q 256 -171 213 -194 l 279 -236 z "},"ĩ":{"ha":322,"x_min":-62,"x_max":385,"o":"m 104 676 l 217 676 l 217 0 l 104 0 l 104 676 m -62 831 q -28 947 -62 906 q 61 989 6 989 q 117 977 90 989 q 178 943 143 965 q 226 917 210 925 q 258 910 242 910 q 306 931 289 910 q 322 985 322 953 l 385 985 q 351 868 385 910 q 261 826 317 826 q 206 838 232 826 q 144 872 179 850 q 97 898 113 890 q 64 906 81 906 q 17 884 33 906 q 0 831 0 863 l -62 831 z "},"j":{"ha":322,"x_min":-104,"x_max":229,"o":"m 217 7 q 156 -181 217 -118 q -33 -251 94 -243 l -96 -256 l -104 -168 l -42 -164 q 104 -8 104 -154 l 104 676 l 217 676 l 217 7 m 229 969 l 229 843 l 93 843 l 93 969 l 229 969 z "},"ȷ":{"ha":322,"x_min":-104,"x_max":217,"o":"m 217 7 q 156 -181 217 -118 q -33 -251 94 -243 l -96 -256 l -104 -168 l -42 -164 q 104 -8 104 -154 l 104 676 l 217 676 l 217 7 z "},"ĵ":{"ha":322,"x_min":-104,"x_max":364,"o":"m 217 7 q 156 -181 217 -118 q -33 -251 94 -243 l -96 -256 l -104 -168 l -42 -164 q 104 -8 104 -154 l 104 676 l 217 676 l 217 7 m -42 765 l 122 1046 l 200 1046 l 364 765 l 261 765 l 161 964 l 61 765 l -42 765 z "},"k":{"ha":694,"x_min":104,"x_max":707,"o":"m 561 0 l 217 324 l 217 0 l 104 0 l 104 979 l 217 979 l 217 369 l 532 675 l 675 675 l 339 351 l 707 0 l 561 0 z "},"ķ":{"ha":694,"x_min":104,"x_max":707,"o":"m 561 0 l 217 324 l 217 0 l 104 0 l 104 979 l 217 979 l 217 369 l 532 675 l 675 675 l 339 351 l 707 0 l 561 0 m 415 -100 l 415 -181 q 399 -279 415 -236 q 344 -360 383 -322 l 293 -322 q 331 -270 319 -296 q 344 -215 342 -244 l 279 -215 l 279 -100 l 415 -100 z "},"ĸ":{"ha":694,"x_min":104,"x_max":707,"o":"m 561 0 l 217 324 l 217 0 l 104 0 l 104 676 l 217 676 l 217 369 l 532 675 l 675 675 l 339 351 l 707 0 l 561 0 z "},"l":{"ha":322,"x_min":104,"x_max":217,"o":"m 104 979 l 217 979 l 217 0 l 104 0 l 104 979 z "},"ĺ":{"ha":322,"x_min":104,"x_max":385,"o":"m 104 979 l 217 979 l 217 0 l 104 0 l 104 979 m 122 1063 l 263 1274 l 385 1274 l 200 1063 l 122 1063 z "},"ľ":{"ha":322,"x_min":104,"x_max":356,"o":"m 104 979 l 217 979 l 217 0 l 104 0 l 104 979 m 267 715 l 267 979 l 356 979 l 319 715 l 267 715 z "},"ļ":{"ha":322,"x_min":93,"x_max":229,"o":"m 104 979 l 217 979 l 217 0 l 104 0 l 104 979 m 229 -100 l 229 -181 q 213 -279 229 -236 q 158 -360 197 -322 l 107 -322 q 144 -270 133 -296 q 158 -215 156 -244 l 93 -215 l 93 -100 l 229 -100 z "},"ŀ":{"ha":363,"x_min":104,"x_max":411,"o":"m 104 979 l 217 979 l 217 0 l 104 0 l 104 979 m 411 556 l 411 425 l 269 425 l 269 556 l 411 556 z "},"ḷ":{"ha":322,"x_min":97,"x_max":225,"o":"m 104 979 l 217 979 l 217 0 l 104 0 l 104 979 m 225 -131 l 225 -253 l 97 -253 l 97 -131 l 225 -131 z "},"ǉ":{"ha":644,"x_min":104,"x_max":551,"o":"m 104 979 l 217 979 l 217 0 l 104 0 l 104 979 m 539 7 q 478 -181 539 -118 q 289 -251 417 -243 l 226 -256 l 218 -168 l 281 -164 q 426 -8 426 -154 l 426 676 l 539 676 l 539 7 m 551 969 l 551 843 l 415 843 l 415 969 l 551 969 z "},"ḻ":{"ha":322,"x_min":-47,"x_max":369,"o":"m 104 979 l 217 979 l 217 0 l 104 0 l 104 979 m -47 -151 l 369 -151 l 369 -233 l -47 -233 l -47 -151 z "},"ł":{"ha":392,"x_min":-10,"x_max":403,"o":"m 253 474 l 253 0 l 140 0 l 140 408 l 36 349 l -10 429 l 140 517 l 140 979 l 253 979 l 253 582 l 357 642 l 403 561 l 253 474 z "},"m":{"ha":1183,"x_min":104,"x_max":1082,"o":"m 857 693 q 1082 425 1082 693 l 1082 0 l 969 0 l 969 419 q 937 556 969 513 q 832 599 904 599 q 699 542 747 599 q 650 386 650 485 l 650 0 l 538 0 l 538 419 q 504 556 538 514 q 399 599 471 599 q 265 542 314 599 q 217 386 217 485 l 217 0 l 104 0 l 104 676 l 215 676 l 215 569 q 300 661 246 629 q 425 693 354 693 q 632 560 582 693 q 721 658 661 622 q 857 693 781 693 z "},"ṃ":{"ha":1183,"x_min":104,"x_max":1082,"o":"m 857 693 q 1082 425 1082 693 l 1082 0 l 969 0 l 969 419 q 937 556 969 513 q 832 599 904 599 q 699 542 747 599 q 650 386 650 485 l 650 0 l 538 0 l 538 419 q 504 556 538 514 q 399 599 471 599 q 265 542 314 599 q 217 386 217 485 l 217 0 l 104 0 l 104 676 l 215 676 l 215 569 q 300 661 246 629 q 425 693 354 693 q 632 560 582 693 q 721 658 661 622 q 857 693 781 693 m 657 -131 l 657 -253 l 529 -253 l 529 -131 l 657 -131 z "},"n":{"ha":789,"x_min":104,"x_max":688,"o":"m 444 693 q 688 425 688 693 l 688 0 l 575 0 l 575 418 q 538 556 575 513 q 421 599 501 599 q 272 542 328 599 q 217 388 217 485 l 217 0 l 104 0 l 104 676 l 215 676 l 215 565 q 308 660 249 628 q 444 693 368 693 z "},"ń":{"ha":789,"x_min":104,"x_max":688,"o":"m 444 693 q 688 425 688 693 l 688 0 l 575 0 l 575 418 q 538 556 575 513 q 421 599 501 599 q 272 542 328 599 q 217 388 217 485 l 217 0 l 104 0 l 104 676 l 215 676 l 215 565 q 308 660 249 628 q 444 693 368 693 m 357 765 l 494 1046 l 624 1046 l 435 765 l 357 765 z "},"ŉ":{"ha":789,"x_min":104,"x_max":688,"o":"m 272 1046 l 272 967 q 256 868 272 911 q 201 788 240 825 l 151 825 q 188 878 176 853 q 201 932 199 903 l 136 932 l 136 1046 l 272 1046 m 444 693 q 688 425 688 693 l 688 0 l 575 0 l 575 418 q 538 556 575 513 q 421 599 501 599 q 272 542 328 599 q 217 388 217 485 l 217 0 l 104 0 l 104 676 l 215 676 l 215 565 q 308 660 249 628 q 444 693 368 693 z "},"ň":{"ha":789,"x_min":104,"x_max":688,"o":"m 444 693 q 688 425 688 693 l 688 0 l 575 0 l 575 418 q 538 556 575 513 q 421 599 501 599 q 272 542 328 599 q 217 388 217 485 l 217 0 l 104 0 l 104 676 l 215 676 l 215 565 q 308 660 249 628 q 444 693 368 693 m 599 1046 l 435 765 l 357 765 l 193 1046 l 296 1046 l 396 847 l 496 1046 l 599 1046 z "},"ņ":{"ha":789,"x_min":104,"x_max":688,"o":"m 444 693 q 688 425 688 693 l 688 0 l 575 0 l 575 418 q 538 556 575 513 q 421 599 501 599 q 272 542 328 599 q 217 388 217 485 l 217 0 l 104 0 l 104 676 l 215 676 l 215 565 q 308 660 249 628 q 444 693 368 693 m 464 -100 l 464 -181 q 448 -279 464 -236 q 393 -360 432 -322 l 342 -322 q 379 -270 368 -296 q 393 -215 390 -244 l 328 -215 l 328 -100 l 464 -100 z "},"ṅ":{"ha":789,"x_min":104,"x_max":688,"o":"m 444 693 q 688 425 688 693 l 688 0 l 575 0 l 575 418 q 538 556 575 513 q 421 599 501 599 q 272 542 328 599 q 217 388 217 485 l 217 0 l 104 0 l 104 676 l 215 676 l 215 565 q 308 660 249 628 q 444 693 368 693 m 464 969 l 464 843 l 328 843 l 328 969 l 464 969 z "},"ṇ":{"ha":789,"x_min":104,"x_max":688,"o":"m 444 693 q 688 425 688 693 l 688 0 l 575 0 l 575 418 q 538 556 575 513 q 421 599 501 599 q 272 542 328 599 q 217 388 217 485 l 217 0 l 104 0 l 104 676 l 215 676 l 215 565 q 308 660 249 628 q 444 693 368 693 m 460 -131 l 460 -253 l 332 -253 l 332 -131 l 460 -131 z "},"ŋ":{"ha":789,"x_min":104,"x_max":688,"o":"m 444 693 q 688 425 688 693 l 688 7 q 628 -178 688 -114 q 438 -251 569 -242 l 375 -256 l 367 -168 l 429 -164 q 575 -8 575 -154 l 575 418 q 537 557 575 515 q 421 599 499 599 q 274 543 331 599 q 217 388 217 488 l 217 0 l 104 0 l 104 676 l 215 676 l 215 565 q 308 660 249 628 q 444 693 368 693 z "},"ǌ":{"ha":1111,"x_min":104,"x_max":1018,"o":"m 444 693 q 688 425 688 693 l 688 0 l 575 0 l 575 418 q 538 556 575 513 q 421 599 501 599 q 272 542 328 599 q 217 388 217 485 l 217 0 l 104 0 l 104 676 l 215 676 l 215 565 q 308 660 249 628 q 444 693 368 693 m 1006 7 q 944 -181 1006 -118 q 756 -251 883 -243 l 693 -256 l 685 -168 l 747 -164 q 893 -8 893 -154 l 893 676 l 1006 676 l 1006 7 m 1018 969 l 1018 843 l 882 843 l 882 969 l 1018 969 z "},"ṉ":{"ha":789,"x_min":104,"x_max":688,"o":"m 444 693 q 688 425 688 693 l 688 0 l 575 0 l 575 418 q 538 556 575 513 q 421 599 501 599 q 272 542 328 599 q 217 388 217 485 l 217 0 l 104 0 l 104 676 l 215 676 l 215 565 q 308 660 249 628 q 444 693 368 693 m 188 -151 l 604 -151 l 604 -233 l 188 -233 l 188 -151 z "},"ñ":{"ha":789,"x_min":104,"x_max":688,"o":"m 444 693 q 688 425 688 693 l 688 0 l 575 0 l 575 418 q 538 556 575 513 q 421 599 501 599 q 272 542 328 599 q 217 388 217 485 l 217 0 l 104 0 l 104 676 l 215 676 l 215 565 q 308 660 249 628 q 444 693 368 693 m 172 831 q 206 947 172 906 q 296 989 240 989 q 351 977 325 989 q 413 943 378 965 q 460 917 444 925 q 493 910 476 910 q 540 931 524 910 q 557 985 557 953 l 619 985 q 585 868 619 910 q 496 826 551 826 q 440 838 467 826 q 379 872 414 850 q 331 898 347 890 q 299 906 315 906 q 251 884 268 906 q 235 831 235 863 l 172 831 z "},"o":{"ha":771,"x_min":64,"x_max":707,"o":"m 385 -10 q 216 33 289 -10 q 103 156 143 76 q 64 342 64 236 q 103 527 64 447 q 216 650 143 607 q 385 693 289 693 q 554 650 481 693 q 667 527 628 607 q 707 342 707 447 q 667 156 707 236 q 554 33 628 76 q 385 -10 481 -10 m 385 83 q 538 149 485 83 q 592 342 592 215 q 538 533 592 465 q 385 600 483 600 q 232 533 286 600 q 178 342 178 465 q 231 150 178 217 q 385 83 285 83 z "},"ó":{"ha":771,"x_min":64,"x_max":707,"o":"m 385 -10 q 216 33 289 -10 q 103 156 143 76 q 64 342 64 236 q 103 527 64 447 q 216 650 143 607 q 385 693 289 693 q 554 650 481 693 q 667 527 628 607 q 707 342 707 447 q 667 156 707 236 q 554 33 628 76 q 385 -10 481 -10 m 385 83 q 538 149 485 83 q 592 342 592 215 q 538 533 592 465 q 385 600 483 600 q 232 533 286 600 q 178 342 178 465 q 231 150 178 217 q 385 83 285 83 m 346 765 l 483 1046 l 613 1046 l 424 765 l 346 765 z "},"ŏ":{"ha":771,"x_min":64,"x_max":707,"o":"m 385 -10 q 216 33 289 -10 q 103 156 143 76 q 64 342 64 236 q 103 527 64 447 q 216 650 143 607 q 385 693 289 693 q 554 650 481 693 q 667 527 628 607 q 707 342 707 447 q 667 156 707 236 q 554 33 628 76 q 385 -10 481 -10 m 385 83 q 538 149 485 83 q 592 342 592 215 q 538 533 592 465 q 385 600 483 600 q 232 533 286 600 q 178 342 178 465 q 231 150 178 217 q 385 83 285 83 m 385 807 q 247 850 308 807 q 156 983 185 893 l 226 1013 q 385 890 283 890 q 543 1013 486 890 l 614 983 q 524 850 586 893 q 385 807 463 807 z "},"ô":{"ha":771,"x_min":64,"x_max":707,"o":"m 385 -10 q 216 33 289 -10 q 103 156 143 76 q 64 342 64 236 q 103 527 64 447 q 216 650 143 607 q 385 693 289 693 q 554 650 481 693 q 667 527 628 607 q 707 342 707 447 q 667 156 707 236 q 554 33 628 76 q 385 -10 481 -10 m 385 83 q 538 149 485 83 q 592 342 592 215 q 538 533 592 465 q 385 600 483 600 q 232 533 286 600 q 178 342 178 465 q 231 150 178 217 q 385 83 285 83 m 182 765 l 346 1046 l 424 1046 l 588 765 l 485 765 l 385 964 l 285 765 l 182 765 z "},"ố":{"ha":771,"x_min":64,"x_max":747,"o":"m 385 -10 q 216 33 289 -10 q 103 156 143 76 q 64 342 64 236 q 103 527 64 447 q 216 650 143 607 q 385 693 289 693 q 554 650 481 693 q 667 527 628 607 q 707 342 707 447 q 667 156 707 236 q 554 33 628 76 q 385 -10 481 -10 m 385 83 q 538 149 485 83 q 592 342 592 215 q 538 533 592 465 q 385 600 483 600 q 232 533 286 600 q 178 342 178 465 q 231 150 178 217 q 385 83 285 83 m 503 908 l 629 1106 l 747 1106 l 571 908 l 503 908 m 182 765 l 347 969 l 422 969 l 588 765 l 486 765 l 385 903 l 283 765 l 182 765 z "},"ộ":{"ha":771,"x_min":64,"x_max":707,"o":"m 385 -10 q 216 33 289 -10 q 103 156 143 76 q 64 342 64 236 q 103 527 64 447 q 216 650 143 607 q 385 693 289 693 q 554 650 481 693 q 667 527 628 607 q 707 342 707 447 q 667 156 707 236 q 554 33 628 76 q 385 -10 481 -10 m 385 83 q 538 149 485 83 q 592 342 592 215 q 538 533 592 465 q 385 600 483 600 q 232 533 286 600 q 178 342 178 465 q 231 150 178 217 q 385 83 285 83 m 449 -131 l 449 -253 l 321 -253 l 321 -131 l 449 -131 m 182 765 l 346 1046 l 424 1046 l 588 765 l 485 765 l 385 964 l 285 765 l 182 765 z "},"ồ":{"ha":771,"x_min":64,"x_max":707,"o":"m 385 -10 q 216 33 289 -10 q 103 156 143 76 q 64 342 64 236 q 103 527 64 447 q 216 650 143 607 q 385 693 289 693 q 554 650 481 693 q 667 527 628 607 q 707 342 707 447 q 667 156 707 236 q 554 33 628 76 q 385 -10 481 -10 m 385 83 q 538 149 485 83 q 592 342 592 215 q 538 533 592 465 q 385 600 483 600 q 232 533 286 600 q 178 342 178 465 q 231 150 178 217 q 385 83 285 83 m 406 1106 l 524 1106 l 631 908 l 561 908 l 406 1106 m 182 765 l 347 969 l 422 969 l 588 765 l 486 765 l 385 903 l 283 765 l 182 765 z "},"ổ":{"ha":771,"x_min":64,"x_max":707,"o":"m 385 -10 q 216 33 289 -10 q 103 156 143 76 q 64 342 64 236 q 103 527 64 447 q 216 650 143 607 q 385 693 289 693 q 554 650 481 693 q 667 527 628 607 q 707 342 707 447 q 667 156 707 236 q 554 33 628 76 q 385 -10 481 -10 m 385 83 q 538 149 485 83 q 592 342 592 215 q 538 533 592 465 q 385 600 483 600 q 232 533 286 600 q 178 342 178 465 q 231 150 178 217 q 385 83 285 83 m 575 908 l 501 908 l 501 932 q 517 969 501 956 q 560 993 532 982 q 586 1007 578 1001 q 594 1021 594 1013 q 579 1039 594 1032 q 538 1046 564 1046 q 453 1029 497 1046 l 433 1089 q 546 1113 492 1113 q 647 1088 610 1113 q 683 1025 683 1064 q 668 988 683 1000 q 621 960 653 975 q 587 942 599 950 q 575 921 575 933 l 575 908 m 182 765 l 347 969 l 422 969 l 588 765 l 486 765 l 385 903 l 283 765 l 182 765 z "},"ỗ":{"ha":771,"x_min":64,"x_max":707,"o":"m 385 -10 q 216 33 289 -10 q 103 156 143 76 q 64 342 64 236 q 103 527 64 447 q 216 650 143 607 q 385 693 289 693 q 554 650 481 693 q 667 527 628 607 q 707 342 707 447 q 667 156 707 236 q 554 33 628 76 q 385 -10 481 -10 m 385 83 q 538 149 485 83 q 592 342 592 215 q 538 533 592 465 q 385 600 483 600 q 232 533 286 600 q 178 342 178 465 q 231 150 178 217 q 385 83 285 83 m 161 990 q 196 1089 161 1050 q 285 1128 231 1128 q 340 1119 314 1128 q 401 1093 367 1110 q 444 1076 422 1083 q 482 1068 465 1068 q 528 1086 511 1068 q 546 1129 546 1104 l 608 1129 q 574 1031 608 1069 q 485 993 540 993 q 429 1002 456 993 q 368 1028 403 1011 q 326 1045 347 1038 q 288 1053 304 1053 q 241 1034 258 1053 q 224 990 224 1015 l 161 990 m 182 765 l 347 969 l 422 969 l 588 765 l 486 765 l 385 903 l 283 765 l 182 765 z "},"ȍ":{"ha":771,"x_min":64,"x_max":707,"o":"m 385 -10 q 216 33 289 -10 q 103 156 143 76 q 64 342 64 236 q 103 527 64 447 q 216 650 143 607 q 385 693 289 693 q 554 650 481 693 q 667 527 628 607 q 707 342 707 447 q 667 156 707 236 q 554 33 628 76 q 385 -10 481 -10 m 385 83 q 538 149 485 83 q 592 342 592 215 q 538 533 592 465 q 385 600 483 600 q 232 533 286 600 q 178 342 178 465 q 231 150 178 217 q 385 83 285 83 m 163 1046 l 267 1046 l 329 765 l 272 765 l 163 1046 m 331 1046 l 433 1046 l 497 765 l 440 765 l 331 1046 z "},"ö":{"ha":771,"x_min":64,"x_max":707,"o":"m 385 -10 q 216 33 289 -10 q 103 156 143 76 q 64 342 64 236 q 103 527 64 447 q 216 650 143 607 q 385 693 289 693 q 554 650 481 693 q 667 527 628 607 q 707 342 707 447 q 667 156 707 236 q 554 33 628 76 q 385 -10 481 -10 m 385 83 q 538 149 485 83 q 592 342 592 215 q 538 533 592 465 q 385 600 483 600 q 232 533 286 600 q 178 342 178 465 q 231 150 178 217 q 385 83 285 83 m 328 965 l 328 847 l 204 847 l 204 965 l 328 965 m 565 965 l 565 847 l 442 847 l 442 965 l 565 965 z "},"ȫ":{"ha":771,"x_min":64,"x_max":707,"o":"m 385 -10 q 216 33 289 -10 q 103 156 143 76 q 64 342 64 236 q 103 527 64 447 q 216 650 143 607 q 385 693 289 693 q 554 650 481 693 q 667 527 628 607 q 707 342 707 447 q 667 156 707 236 q 554 33 628 76 q 385 -10 481 -10 m 385 83 q 538 149 485 83 q 592 342 592 215 q 538 533 592 465 q 385 600 483 600 q 232 533 286 600 q 178 342 178 465 q 231 150 178 217 q 385 83 285 83 m 328 965 l 328 847 l 204 847 l 204 965 l 328 965 m 565 965 l 565 847 l 442 847 l 442 965 l 565 965 m 176 1217 l 593 1217 l 593 1132 l 176 1132 l 176 1217 z "},"ȱ":{"ha":771,"x_min":64,"x_max":707,"o":"m 385 -10 q 216 33 289 -10 q 103 156 143 76 q 64 342 64 236 q 103 527 64 447 q 216 650 143 607 q 385 693 289 693 q 554 650 481 693 q 667 527 628 607 q 707 342 707 447 q 667 156 707 236 q 554 33 628 76 q 385 -10 481 -10 m 385 83 q 538 149 485 83 q 592 342 592 215 q 538 533 592 465 q 385 600 483 600 q 232 533 286 600 q 178 342 178 465 q 231 150 178 217 q 385 83 285 83 m 453 969 l 453 843 l 317 843 l 317 969 l 453 969 m 176 1217 l 593 1217 l 593 1132 l 176 1132 l 176 1217 z "},"ọ":{"ha":771,"x_min":64,"x_max":707,"o":"m 385 -10 q 216 33 289 -10 q 103 156 143 76 q 64 342 64 236 q 103 527 64 447 q 216 650 143 607 q 385 693 289 693 q 554 650 481 693 q 667 527 628 607 q 707 342 707 447 q 667 156 707 236 q 554 33 628 76 q 385 -10 481 -10 m 385 83 q 538 149 485 83 q 592 342 592 215 q 538 533 592 465 q 385 600 483 600 q 232 533 286 600 q 178 342 178 465 q 231 150 178 217 q 385 83 285 83 m 449 -131 l 449 -253 l 321 -253 l 321 -131 l 449 -131 z "},"ò":{"ha":771,"x_min":64,"x_max":707,"o":"m 385 -10 q 216 33 289 -10 q 103 156 143 76 q 64 342 64 236 q 103 527 64 447 q 216 650 143 607 q 385 693 289 693 q 554 650 481 693 q 667 527 628 607 q 707 342 707 447 q 667 156 707 236 q 554 33 628 76 q 385 -10 481 -10 m 385 83 q 538 149 485 83 q 592 342 592 215 q 538 533 592 465 q 385 600 483 600 q 232 533 286 600 q 178 342 178 465 q 231 150 178 217 q 385 83 285 83 m 157 1046 l 286 1046 l 424 765 l 346 765 l 157 1046 z "},"ỏ":{"ha":771,"x_min":64,"x_max":707,"o":"m 385 -10 q 216 33 289 -10 q 103 156 143 76 q 64 342 64 236 q 103 527 64 447 q 216 650 143 607 q 385 693 289 693 q 554 650 481 693 q 667 527 628 607 q 707 342 707 447 q 667 156 707 236 q 554 33 628 76 q 385 -10 481 -10 m 385 83 q 538 149 485 83 q 592 342 592 215 q 538 533 592 465 q 385 600 483 600 q 232 533 286 600 q 178 342 178 465 q 231 150 178 217 q 385 83 285 83 m 424 765 l 351 765 l 351 804 q 365 853 351 833 q 404 896 379 874 q 431 925 424 915 q 439 947 439 935 q 424 973 439 964 q 382 982 410 982 q 301 967 346 982 l 281 1028 q 392 1051 336 1051 q 494 1024 457 1051 q 531 956 531 997 q 516 904 531 924 q 472 863 501 885 q 435 827 447 842 q 424 789 424 813 l 424 765 z "},"ơ":{"ha":771,"x_min":64,"x_max":711,"o":"m 711 819 q 678 697 711 747 q 585 626 646 647 q 676 508 644 582 q 707 342 707 435 q 667 156 707 236 q 554 33 628 76 q 385 -10 481 -10 q 216 33 289 -10 q 103 156 143 76 q 64 342 64 236 q 103 527 64 447 q 216 650 143 607 q 385 693 289 693 q 447 688 406 693 q 485 683 469 683 q 580 719 549 683 q 611 835 611 754 l 611 856 l 711 856 l 711 819 m 385 83 q 538 149 485 83 q 592 342 592 215 q 538 533 592 465 q 385 600 483 600 q 232 533 286 600 q 178 342 178 465 q 231 150 178 217 q 385 83 285 83 z "},"ớ":{"ha":771,"x_min":64,"x_max":711,"o":"m 711 819 q 678 697 711 747 q 585 626 646 647 q 676 508 644 582 q 707 342 707 435 q 667 156 707 236 q 554 33 628 76 q 385 -10 481 -10 q 216 33 289 -10 q 103 156 143 76 q 64 342 64 236 q 103 527 64 447 q 216 650 143 607 q 385 693 289 693 q 447 688 406 693 q 485 683 469 683 q 580 719 549 683 q 611 835 611 754 l 611 856 l 711 856 l 711 819 m 385 83 q 538 149 485 83 q 592 342 592 215 q 538 533 592 465 q 385 600 483 600 q 232 533 286 600 q 178 342 178 465 q 231 150 178 217 q 385 83 285 83 m 346 765 l 483 1046 l 613 1046 l 424 765 l 346 765 z "},"ợ":{"ha":771,"x_min":64,"x_max":711,"o":"m 711 819 q 678 697 711 747 q 585 626 646 647 q 676 508 644 582 q 707 342 707 435 q 667 156 707 236 q 554 33 628 76 q 385 -10 481 -10 q 216 33 289 -10 q 103 156 143 76 q 64 342 64 236 q 103 527 64 447 q 216 650 143 607 q 385 693 289 693 q 447 688 406 693 q 485 683 469 683 q 580 719 549 683 q 611 835 611 754 l 611 856 l 711 856 l 711 819 m 385 83 q 538 149 485 83 q 592 342 592 215 q 538 533 592 465 q 385 600 483 600 q 232 533 286 600 q 178 342 178 465 q 231 150 178 217 q 385 83 285 83 m 449 -131 l 449 -253 l 321 -253 l 321 -131 l 449 -131 z "},"ờ":{"ha":771,"x_min":64,"x_max":711,"o":"m 711 819 q 678 697 711 747 q 585 626 646 647 q 676 508 644 582 q 707 342 707 435 q 667 156 707 236 q 554 33 628 76 q 385 -10 481 -10 q 216 33 289 -10 q 103 156 143 76 q 64 342 64 236 q 103 527 64 447 q 216 650 143 607 q 385 693 289 693 q 447 688 406 693 q 485 683 469 683 q 580 719 549 683 q 611 835 611 754 l 611 856 l 711 856 l 711 819 m 385 83 q 538 149 485 83 q 592 342 592 215 q 538 533 592 465 q 385 600 483 600 q 232 533 286 600 q 178 342 178 465 q 231 150 178 217 q 385 83 285 83 m 157 1046 l 286 1046 l 424 765 l 346 765 l 157 1046 z "},"ở":{"ha":771,"x_min":64,"x_max":711,"o":"m 711 819 q 678 697 711 747 q 585 626 646 647 q 676 508 644 582 q 707 342 707 435 q 667 156 707 236 q 554 33 628 76 q 385 -10 481 -10 q 216 33 289 -10 q 103 156 143 76 q 64 342 64 236 q 103 527 64 447 q 216 650 143 607 q 385 693 289 693 q 447 688 406 693 q 485 683 469 683 q 580 719 549 683 q 611 835 611 754 l 611 856 l 711 856 l 711 819 m 385 83 q 538 149 485 83 q 592 342 592 215 q 538 533 592 465 q 385 600 483 600 q 232 533 286 600 q 178 342 178 465 q 231 150 178 217 q 385 83 285 83 m 424 765 l 351 765 l 351 804 q 365 853 351 833 q 404 896 379 874 q 431 925 424 915 q 439 947 439 935 q 424 973 439 964 q 382 982 410 982 q 301 967 346 982 l 281 1028 q 392 1051 336 1051 q 494 1024 457 1051 q 531 956 531 997 q 516 904 531 924 q 472 863 501 885 q 435 827 447 842 q 424 789 424 813 l 424 765 z "},"ỡ":{"ha":771,"x_min":64,"x_max":711,"o":"m 711 819 q 678 697 711 747 q 585 626 646 647 q 676 508 644 582 q 707 342 707 435 q 667 156 707 236 q 554 33 628 76 q 385 -10 481 -10 q 216 33 289 -10 q 103 156 143 76 q 64 342 64 236 q 103 527 64 447 q 216 650 143 607 q 385 693 289 693 q 447 688 406 693 q 485 683 469 683 q 580 719 549 683 q 611 835 611 754 l 611 856 l 711 856 l 711 819 m 385 83 q 538 149 485 83 q 592 342 592 215 q 538 533 592 465 q 385 600 483 600 q 232 533 286 600 q 178 342 178 465 q 231 150 178 217 q 385 83 285 83 m 161 831 q 195 947 161 906 q 285 989 229 989 q 340 977 314 989 q 401 943 367 965 q 449 917 433 925 q 482 910 465 910 q 529 931 513 910 q 546 985 546 953 l 608 985 q 574 868 608 910 q 485 826 540 826 q 429 838 456 826 q 368 872 403 850 q 320 898 336 890 q 288 906 304 906 q 240 884 257 906 q 224 831 224 863 l 161 831 z "},"ő":{"ha":771,"x_min":64,"x_max":707,"o":"m 385 -10 q 216 33 289 -10 q 103 156 143 76 q 64 342 64 236 q 103 527 64 447 q 216 650 143 607 q 385 693 289 693 q 554 650 481 693 q 667 527 628 607 q 707 342 707 447 q 667 156 707 236 q 554 33 628 76 q 385 -10 481 -10 m 385 83 q 538 149 485 83 q 592 342 592 215 q 538 533 592 465 q 385 600 483 600 q 232 533 286 600 q 178 342 178 465 q 231 150 178 217 q 385 83 285 83 m 272 765 l 336 1046 l 439 1046 l 329 765 l 272 765 m 440 765 l 503 1046 l 607 1046 l 497 765 l 440 765 z "},"ȏ":{"ha":771,"x_min":64,"x_max":707,"o":"m 385 -10 q 216 33 289 -10 q 103 156 143 76 q 64 342 64 236 q 103 527 64 447 q 216 650 143 607 q 385 693 289 693 q 554 650 481 693 q 667 527 628 607 q 707 342 707 447 q 667 156 707 236 q 554 33 628 76 q 385 -10 481 -10 m 385 83 q 538 149 485 83 q 592 342 592 215 q 538 533 592 465 q 385 600 483 600 q 232 533 286 600 q 178 342 178 465 q 231 150 178 217 q 385 83 285 83 m 385 1011 q 523 968 461 1011 q 614 836 585 925 l 543 806 q 385 928 486 928 q 226 806 283 928 l 156 835 q 245 968 183 925 q 385 1011 307 1011 z "},"ō":{"ha":771,"x_min":64,"x_max":707,"o":"m 385 -10 q 216 33 289 -10 q 103 156 143 76 q 64 342 64 236 q 103 527 64 447 q 216 650 143 607 q 385 693 289 693 q 554 650 481 693 q 667 527 628 607 q 707 342 707 447 q 667 156 707 236 q 554 33 628 76 q 385 -10 481 -10 m 385 83 q 538 149 485 83 q 592 342 592 215 q 538 533 592 465 q 385 600 483 600 q 232 533 286 600 q 178 342 178 465 q 231 150 178 217 q 385 83 285 83 m 176 949 l 593 949 l 593 864 l 176 864 l 176 949 z "},"ṓ":{"ha":771,"x_min":64,"x_max":707,"o":"m 385 -10 q 216 33 289 -10 q 103 156 143 76 q 64 342 64 236 q 103 527 64 447 q 216 650 143 607 q 385 693 289 693 q 554 650 481 693 q 667 527 628 607 q 707 342 707 447 q 667 156 707 236 q 554 33 628 76 q 385 -10 481 -10 m 385 83 q 538 149 485 83 q 592 342 592 215 q 538 533 592 465 q 385 600 483 600 q 232 533 286 600 q 178 342 178 465 q 231 150 178 217 q 385 83 285 83 m 176 949 l 593 949 l 593 864 l 176 864 l 176 949 m 346 1033 l 483 1314 l 613 1314 l 424 1033 l 346 1033 z "},"ṑ":{"ha":771,"x_min":64,"x_max":707,"o":"m 385 -10 q 216 33 289 -10 q 103 156 143 76 q 64 342 64 236 q 103 527 64 447 q 216 650 143 607 q 385 693 289 693 q 554 650 481 693 q 667 527 628 607 q 707 342 707 447 q 667 156 707 236 q 554 33 628 76 q 385 -10 481 -10 m 385 83 q 538 149 485 83 q 592 342 592 215 q 538 533 592 465 q 385 600 483 600 q 232 533 286 600 q 178 342 178 465 q 231 150 178 217 q 385 83 285 83 m 176 949 l 593 949 l 593 864 l 176 864 l 176 949 m 157 1314 l 286 1314 l 424 1033 l 346 1033 l 157 1314 z "},"ǫ":{"ha":771,"x_min":64,"x_max":707,"o":"m 503 10 q 415 -36 442 -8 q 388 -107 388 -64 q 412 -172 388 -149 q 479 -194 436 -194 q 560 -171 515 -194 l 582 -236 q 463 -268 533 -268 q 346 -228 390 -268 q 301 -122 301 -187 q 349 -8 301 -53 q 141 98 218 4 q 64 342 64 192 q 103 527 64 447 q 216 650 143 607 q 385 693 289 693 q 554 650 481 693 q 667 527 628 607 q 707 342 707 447 q 653 128 707 217 q 503 10 599 40 m 178 342 q 231 150 178 217 q 385 83 285 83 q 538 149 485 83 q 592 342 592 215 q 538 533 592 465 q 385 600 483 600 q 232 533 286 600 q 178 342 178 465 z "},"ø":{"ha":771,"x_min":64,"x_max":707,"o":"m 593 622 q 677 504 647 576 q 707 342 707 432 q 667 156 707 236 q 554 33 628 76 q 385 -10 481 -10 q 244 19 306 -10 l 196 -64 l 128 -24 l 176 61 q 93 179 122 107 q 64 342 64 251 q 103 527 64 447 q 216 650 143 607 q 385 693 289 693 q 528 664 465 693 l 575 746 l 643 707 l 593 622 m 178 342 q 229 151 178 218 l 479 581 q 385 600 436 600 q 232 533 286 600 q 178 342 178 465 m 385 83 q 540 149 486 83 q 593 342 593 215 q 540 531 593 463 l 292 101 q 385 83 329 83 z "},"ǿ":{"ha":771,"x_min":64,"x_max":707,"o":"m 593 622 q 677 504 647 576 q 707 342 707 432 q 667 156 707 236 q 554 33 628 76 q 385 -10 481 -10 q 244 19 306 -10 l 196 -64 l 128 -24 l 176 61 q 93 179 122 107 q 64 342 64 251 q 103 527 64 447 q 216 650 143 607 q 385 693 289 693 q 528 664 465 693 l 575 746 l 643 707 l 593 622 m 178 342 q 229 151 178 218 l 479 581 q 385 600 436 600 q 232 533 286 600 q 178 342 178 465 m 385 83 q 540 149 486 83 q 593 342 593 215 q 540 531 593 463 l 292 101 q 385 83 329 83 m 346 765 l 483 1046 l 613 1046 l 424 765 l 346 765 z "},"õ":{"ha":771,"x_min":64,"x_max":707,"o":"m 385 -10 q 216 33 289 -10 q 103 156 143 76 q 64 342 64 236 q 103 527 64 447 q 216 650 143 607 q 385 693 289 693 q 554 650 481 693 q 667 527 628 607 q 707 342 707 447 q 667 156 707 236 q 554 33 628 76 q 385 -10 481 -10 m 385 83 q 538 149 485 83 q 592 342 592 215 q 538 533 592 465 q 385 600 483 600 q 232 533 286 600 q 178 342 178 465 q 231 150 178 217 q 385 83 285 83 m 161 831 q 195 947 161 906 q 285 989 229 989 q 340 977 314 989 q 401 943 367 965 q 449 917 433 925 q 482 910 465 910 q 529 931 513 910 q 546 985 546 953 l 608 985 q 574 868 608 910 q 485 826 540 826 q 429 838 456 826 q 368 872 403 850 q 320 898 336 890 q 288 906 304 906 q 240 884 257 906 q 224 831 224 863 l 161 831 z "},"ṍ":{"ha":771,"x_min":64,"x_max":707,"o":"m 385 -10 q 216 33 289 -10 q 103 156 143 76 q 64 342 64 236 q 103 527 64 447 q 216 650 143 607 q 385 693 289 693 q 554 650 481 693 q 667 527 628 607 q 707 342 707 447 q 667 156 707 236 q 554 33 628 76 q 385 -10 481 -10 m 385 83 q 538 149 485 83 q 592 342 592 215 q 538 533 592 465 q 385 600 483 600 q 232 533 286 600 q 178 342 178 465 q 231 150 178 217 q 385 83 285 83 m 161 831 q 195 947 161 906 q 285 989 229 989 q 340 977 314 989 q 401 943 367 965 q 449 917 433 925 q 482 910 465 910 q 529 931 513 910 q 546 985 546 953 l 608 985 q 574 868 608 910 q 485 826 540 826 q 429 838 456 826 q 368 872 403 850 q 320 898 336 890 q 288 906 304 906 q 240 884 257 906 q 224 831 224 863 l 161 831 m 346 1033 l 483 1314 l 613 1314 l 424 1033 l 346 1033 z "},"ṏ":{"ha":771,"x_min":64,"x_max":707,"o":"m 385 -10 q 216 33 289 -10 q 103 156 143 76 q 64 342 64 236 q 103 527 64 447 q 216 650 143 607 q 385 693 289 693 q 554 650 481 693 q 667 527 628 607 q 707 342 707 447 q 667 156 707 236 q 554 33 628 76 q 385 -10 481 -10 m 385 83 q 538 149 485 83 q 592 342 592 215 q 538 533 592 465 q 385 600 483 600 q 232 533 286 600 q 178 342 178 465 q 231 150 178 217 q 385 83 285 83 m 161 831 q 195 947 161 906 q 285 989 229 989 q 340 977 314 989 q 401 943 367 965 q 449 917 433 925 q 482 910 465 910 q 529 931 513 910 q 546 985 546 953 l 608 985 q 574 868 608 910 q 485 826 540 826 q 429 838 456 826 q 368 872 403 850 q 320 898 336 890 q 288 906 304 906 q 240 884 257 906 q 224 831 224 863 l 161 831 m 328 1233 l 328 1115 l 204 1115 l 204 1233 l 328 1233 m 565 1233 l 565 1115 l 442 1115 l 442 1233 l 565 1233 z "},"ȭ":{"ha":771,"x_min":64,"x_max":707,"o":"m 385 -10 q 216 33 289 -10 q 103 156 143 76 q 64 342 64 236 q 103 527 64 447 q 216 650 143 607 q 385 693 289 693 q 554 650 481 693 q 667 527 628 607 q 707 342 707 447 q 667 156 707 236 q 554 33 628 76 q 385 -10 481 -10 m 385 83 q 538 149 485 83 q 592 342 592 215 q 538 533 592 465 q 385 600 483 600 q 232 533 286 600 q 178 342 178 465 q 231 150 178 217 q 385 83 285 83 m 161 831 q 195 947 161 906 q 285 989 229 989 q 340 977 314 989 q 401 943 367 965 q 449 917 433 925 q 482 910 465 910 q 529 931 513 910 q 546 985 546 953 l 608 985 q 574 868 608 910 q 485 826 540 826 q 429 838 456 826 q 368 872 403 850 q 320 898 336 890 q 288 906 304 906 q 240 884 257 906 q 224 831 224 863 l 161 831 m 176 1217 l 593 1217 l 593 1132 l 176 1132 l 176 1217 z "},"œ":{"ha":1256,"x_min":64,"x_max":1194,"o":"m 1194 321 l 706 321 q 768 142 711 203 q 929 82 825 82 q 1146 163 1042 82 l 1183 81 q 1069 15 1139 40 q 931 -10 1000 -10 q 760 31 832 -10 q 650 150 689 72 q 544 32 613 74 q 383 -10 475 -10 q 215 33 288 -10 q 103 156 143 76 q 64 342 64 236 q 103 527 64 447 q 215 650 143 607 q 383 693 288 693 q 544 651 475 693 q 649 533 613 610 q 756 651 688 610 q 914 693 825 693 q 1119 604 1043 693 q 1194 363 1194 515 l 1194 321 m 913 606 q 772 550 825 606 q 708 393 718 494 l 1096 393 q 1045 551 1093 496 q 913 606 997 606 m 383 83 q 537 149 483 83 q 590 342 590 215 q 536 533 590 465 q 385 600 482 600 q 232 533 286 600 q 178 342 178 465 q 231 150 178 217 q 383 83 285 83 z "},"p":{"ha":808,"x_min":104,"x_max":744,"o":"m 444 693 q 601 649 533 693 q 707 524 669 604 q 744 339 744 444 q 707 155 744 233 q 602 33 669 76 q 444 -10 535 -10 q 306 25 365 -10 q 217 124 247 60 l 217 -250 l 104 -250 l 104 676 l 217 676 l 217 560 q 306 658 247 624 q 444 693 365 693 m 422 83 q 575 150 521 83 q 629 339 629 217 q 575 530 629 461 q 422 599 521 599 q 270 532 324 599 q 217 342 217 465 q 270 151 217 218 q 422 83 324 83 z "},"þ":{"ha":808,"x_min":104,"x_max":744,"o":"m 444 693 q 599 650 531 693 q 706 526 668 607 q 744 339 744 446 q 706 153 744 232 q 600 32 668 74 q 444 -10 532 -10 q 306 25 365 -10 q 217 124 247 60 l 217 -250 l 104 -250 l 104 979 l 217 979 l 217 560 q 306 658 247 624 q 444 693 365 693 m 422 83 q 576 151 522 83 q 629 339 629 218 q 575 529 629 460 q 422 599 521 599 q 270 532 324 599 q 217 342 217 465 q 270 151 217 218 q 422 83 324 83 z "},"q":{"ha":808,"x_min":64,"x_max":704,"o":"m 704 676 l 704 -250 l 592 -250 l 592 124 q 502 25 561 60 q 364 -10 443 -10 q 206 33 274 -10 q 101 155 139 76 q 64 339 64 233 q 101 524 64 444 q 207 649 139 604 q 364 693 275 693 q 502 658 443 693 q 592 560 561 624 l 592 676 l 704 676 m 386 83 q 538 151 485 83 q 592 342 592 218 q 538 532 592 465 q 386 599 485 599 q 233 530 288 599 q 178 339 178 461 q 233 150 178 217 q 386 83 288 83 z "},"r":{"ha":490,"x_min":104,"x_max":488,"o":"m 488 596 l 414 589 q 263 524 310 579 q 217 386 217 468 l 217 0 l 104 0 l 104 676 l 214 676 l 214 558 q 438 690 271 676 l 478 693 l 488 596 z "},"ŕ":{"ha":490,"x_min":104,"x_max":525,"o":"m 488 596 l 414 589 q 263 524 310 579 q 217 386 217 468 l 217 0 l 104 0 l 104 676 l 214 676 l 214 558 q 438 690 271 676 l 478 693 l 488 596 m 258 765 l 396 1046 l 525 1046 l 336 765 l 258 765 z "},"ř":{"ha":490,"x_min":94,"x_max":500,"o":"m 488 596 l 414 589 q 263 524 310 579 q 217 386 217 468 l 217 0 l 104 0 l 104 676 l 214 676 l 214 558 q 438 690 271 676 l 478 693 l 488 596 m 500 1046 l 336 765 l 258 765 l 94 1046 l 197 1046 l 297 847 l 397 1046 l 500 1046 z "},"ŗ":{"ha":490,"x_min":93,"x_max":488,"o":"m 488 596 l 414 589 q 263 524 310 579 q 217 386 217 468 l 217 0 l 104 0 l 104 676 l 214 676 l 214 558 q 438 690 271 676 l 478 693 l 488 596 m 229 -100 l 229 -181 q 213 -279 229 -236 q 158 -360 197 -322 l 107 -322 q 144 -270 133 -296 q 158 -215 156 -244 l 93 -215 l 93 -100 l 229 -100 z "},"ȑ":{"ha":490,"x_min":75,"x_max":488,"o":"m 488 596 l 414 589 q 263 524 310 579 q 217 386 217 468 l 217 0 l 104 0 l 104 676 l 214 676 l 214 558 q 438 690 271 676 l 478 693 l 488 596 m 75 1046 l 179 1046 l 242 765 l 185 765 l 75 1046 m 243 1046 l 346 1046 l 410 765 l 353 765 l 243 1046 z "},"ṛ":{"ha":490,"x_min":97,"x_max":488,"o":"m 488 596 l 414 589 q 263 524 310 579 q 217 386 217 468 l 217 0 l 104 0 l 104 676 l 214 676 l 214 558 q 438 690 271 676 l 478 693 l 488 596 m 225 -131 l 225 -253 l 97 -253 l 97 -131 l 225 -131 z "},"ȓ":{"ha":490,"x_min":68,"x_max":526,"o":"m 488 596 l 414 589 q 263 524 310 579 q 217 386 217 468 l 217 0 l 104 0 l 104 676 l 214 676 l 214 558 q 438 690 271 676 l 478 693 l 488 596 m 297 1011 q 435 968 374 1011 q 526 836 497 925 l 456 806 q 297 928 399 928 q 139 806 196 928 l 68 835 q 158 968 96 925 q 297 1011 219 1011 z "},"ṟ":{"ha":490,"x_min":-47,"x_max":488,"o":"m 488 596 l 414 589 q 263 524 310 579 q 217 386 217 468 l 217 0 l 104 0 l 104 676 l 214 676 l 214 558 q 438 690 271 676 l 478 693 l 488 596 m -47 -151 l 369 -151 l 369 -233 l -47 -233 l -47 -151 z "},"s":{"ha":667,"x_min":63,"x_max":600,"o":"m 333 -10 q 63 78 163 -10 l 100 161 q 210 99 154 118 q 338 81 267 81 q 452 106 413 81 q 492 181 492 132 q 465 244 492 221 q 378 282 439 268 l 264 308 q 132 375 178 328 q 86 492 86 422 q 157 638 86 582 q 346 693 228 693 q 481 670 417 693 q 588 604 544 647 l 550 522 q 346 601 457 601 q 235 574 275 601 q 196 499 196 547 q 220 434 196 458 q 299 397 244 410 l 414 369 q 554 302 508 347 q 600 185 600 257 q 528 43 600 96 q 333 -10 457 -10 z "},"ś":{"ha":667,"x_min":63,"x_max":600,"o":"m 333 -10 q 63 78 163 -10 l 100 161 q 210 99 154 118 q 338 81 267 81 q 452 106 413 81 q 492 181 492 132 q 465 244 492 221 q 378 282 439 268 l 264 308 q 132 375 178 328 q 86 492 86 422 q 157 638 86 582 q 346 693 228 693 q 481 670 417 693 q 588 604 544 647 l 550 522 q 346 601 457 601 q 235 574 275 601 q 196 499 196 547 q 220 434 196 458 q 299 397 244 410 l 414 369 q 554 302 508 347 q 600 185 600 257 q 528 43 600 96 q 333 -10 457 -10 m 307 765 l 444 1046 l 574 1046 l 385 765 l 307 765 z "},"ṥ":{"ha":667,"x_min":63,"x_max":600,"o":"m 333 -10 q 63 78 163 -10 l 100 161 q 210 99 154 118 q 338 81 267 81 q 452 106 413 81 q 492 181 492 132 q 465 244 492 221 q 378 282 439 268 l 264 308 q 132 375 178 328 q 86 492 86 422 q 157 638 86 582 q 346 693 228 693 q 481 670 417 693 q 588 604 544 647 l 550 522 q 346 601 457 601 q 235 574 275 601 q 196 499 196 547 q 220 434 196 458 q 299 397 244 410 l 414 369 q 554 302 508 347 q 600 185 600 257 q 528 43 600 96 q 333 -10 457 -10 m 313 765 l 450 1046 l 579 1046 l 390 765 l 313 765 m 282 1046 l 282 919 l 146 919 l 146 1046 l 282 1046 z "},"š":{"ha":667,"x_min":63,"x_max":600,"o":"m 333 -10 q 63 78 163 -10 l 100 161 q 210 99 154 118 q 338 81 267 81 q 452 106 413 81 q 492 181 492 132 q 465 244 492 221 q 378 282 439 268 l 264 308 q 132 375 178 328 q 86 492 86 422 q 157 638 86 582 q 346 693 228 693 q 481 670 417 693 q 588 604 544 647 l 550 522 q 346 601 457 601 q 235 574 275 601 q 196 499 196 547 q 220 434 196 458 q 299 397 244 410 l 414 369 q 554 302 508 347 q 600 185 600 257 q 528 43 600 96 q 333 -10 457 -10 m 549 1046 l 385 765 l 307 765 l 143 1046 l 246 1046 l 346 847 l 446 1046 l 549 1046 z "},"ṧ":{"ha":667,"x_min":63,"x_max":600,"o":"m 333 -10 q 63 78 163 -10 l 100 161 q 210 99 154 118 q 338 81 267 81 q 452 106 413 81 q 492 181 492 132 q 465 244 492 221 q 378 282 439 268 l 264 308 q 132 375 178 328 q 86 492 86 422 q 157 638 86 582 q 346 693 228 693 q 481 670 417 693 q 588 604 544 647 l 550 522 q 346 601 457 601 q 235 574 275 601 q 196 499 196 547 q 220 434 196 458 q 299 397 244 410 l 414 369 q 554 302 508 347 q 600 185 600 257 q 528 43 600 96 q 333 -10 457 -10 m 549 1046 l 385 765 l 307 765 l 143 1046 l 246 1046 l 346 847 l 446 1046 l 549 1046 m 414 1238 l 414 1111 l 278 1111 l 278 1238 l 414 1238 z "},"ş":{"ha":667,"x_min":63,"x_max":600,"o":"m 600 185 q 535 48 600 100 q 357 -10 469 -4 l 351 -60 q 385 -57 374 -57 q 460 -81 429 -57 q 490 -153 490 -106 q 448 -235 490 -203 q 329 -268 406 -268 q 267 -261 301 -268 q 207 -242 232 -254 l 225 -182 q 331 -201 275 -201 q 388 -189 368 -201 q 407 -153 407 -176 q 394 -125 407 -135 q 358 -115 382 -115 q 296 -128 328 -115 l 268 -106 l 279 -7 q 63 78 144 6 l 100 161 q 210 99 154 118 q 338 81 267 81 q 452 106 413 81 q 492 181 492 132 q 465 244 492 221 q 378 282 439 268 l 264 308 q 132 375 178 328 q 86 492 86 422 q 157 638 86 582 q 346 693 228 693 q 481 670 417 693 q 588 604 544 647 l 550 522 q 346 601 457 601 q 235 574 275 601 q 196 499 196 547 q 220 434 196 458 q 299 397 244 410 l 414 369 q 554 302 508 347 q 600 185 600 257 z "},"ŝ":{"ha":667,"x_min":63,"x_max":600,"o":"m 333 -10 q 63 78 163 -10 l 100 161 q 210 99 154 118 q 338 81 267 81 q 452 106 413 81 q 492 181 492 132 q 465 244 492 221 q 378 282 439 268 l 264 308 q 132 375 178 328 q 86 492 86 422 q 157 638 86 582 q 346 693 228 693 q 481 670 417 693 q 588 604 544 647 l 550 522 q 346 601 457 601 q 235 574 275 601 q 196 499 196 547 q 220 434 196 458 q 299 397 244 410 l 414 369 q 554 302 508 347 q 600 185 600 257 q 528 43 600 96 q 333 -10 457 -10 m 143 765 l 307 1046 l 385 1046 l 549 765 l 446 765 l 346 964 l 246 765 l 143 765 z "},"ș":{"ha":667,"x_min":63,"x_max":600,"o":"m 333 -10 q 63 78 163 -10 l 100 161 q 210 99 154 118 q 338 81 267 81 q 452 106 413 81 q 492 181 492 132 q 465 244 492 221 q 378 282 439 268 l 264 308 q 132 375 178 328 q 86 492 86 422 q 157 638 86 582 q 346 693 228 693 q 481 670 417 693 q 588 604 544 647 l 550 522 q 346 601 457 601 q 235 574 275 601 q 196 499 196 547 q 220 434 196 458 q 299 397 244 410 l 414 369 q 554 302 508 347 q 600 185 600 257 q 528 43 600 96 q 333 -10 457 -10 m 400 -100 l 400 -181 q 384 -279 400 -236 q 329 -360 368 -322 l 278 -322 q 315 -270 304 -296 q 329 -215 326 -244 l 264 -215 l 264 -100 l 400 -100 z "},"ṡ":{"ha":667,"x_min":63,"x_max":600,"o":"m 333 -10 q 63 78 163 -10 l 100 161 q 210 99 154 118 q 338 81 267 81 q 452 106 413 81 q 492 181 492 132 q 465 244 492 221 q 378 282 439 268 l 264 308 q 132 375 178 328 q 86 492 86 422 q 157 638 86 582 q 346 693 228 693 q 481 670 417 693 q 588 604 544 647 l 550 522 q 346 601 457 601 q 235 574 275 601 q 196 499 196 547 q 220 434 196 458 q 299 397 244 410 l 414 369 q 554 302 508 347 q 600 185 600 257 q 528 43 600 96 q 333 -10 457 -10 m 414 969 l 414 843 l 278 843 l 278 969 l 414 969 z "},"ṣ":{"ha":667,"x_min":63,"x_max":600,"o":"m 333 -10 q 63 78 163 -10 l 100 161 q 210 99 154 118 q 338 81 267 81 q 452 106 413 81 q 492 181 492 132 q 465 244 492 221 q 378 282 439 268 l 264 308 q 132 375 178 328 q 86 492 86 422 q 157 638 86 582 q 346 693 228 693 q 481 670 417 693 q 588 604 544 647 l 550 522 q 346 601 457 601 q 235 574 275 601 q 196 499 196 547 q 220 434 196 458 q 299 397 244 410 l 414 369 q 554 302 508 347 q 600 185 600 257 q 528 43 600 96 q 333 -10 457 -10 m 396 -131 l 396 -253 l 268 -253 l 268 -131 l 396 -131 z "},"ṩ":{"ha":667,"x_min":63,"x_max":600,"o":"m 333 -10 q 63 78 163 -10 l 100 161 q 210 99 154 118 q 338 81 267 81 q 452 106 413 81 q 492 181 492 132 q 465 244 492 221 q 378 282 439 268 l 264 308 q 132 375 178 328 q 86 492 86 422 q 157 638 86 582 q 346 693 228 693 q 481 670 417 693 q 588 604 544 647 l 550 522 q 346 601 457 601 q 235 574 275 601 q 196 499 196 547 q 220 434 196 458 q 299 397 244 410 l 414 369 q 554 302 508 347 q 600 185 600 257 q 528 43 600 96 q 333 -10 457 -10 m 396 -131 l 396 -253 l 268 -253 l 268 -131 l 396 -131 m 414 969 l 414 843 l 278 843 l 278 969 l 414 969 z "},"ß":{"ha":856,"x_min":104,"x_max":814,"o":"m 104 663 q 187 901 104 815 q 418 986 269 986 q 590 938 528 986 q 653 804 653 890 q 624 707 653 747 q 543 619 596 667 q 485 561 504 586 q 465 507 465 536 q 501 439 465 463 q 610 390 536 415 q 715 347 674 368 q 785 288 756 326 q 814 189 814 249 q 744 45 814 100 q 560 -10 674 -10 q 419 13 486 -10 q 306 78 353 36 l 343 161 q 561 82 451 82 q 667 109 629 82 q 704 185 704 136 q 667 255 704 231 q 554 306 631 279 q 451 347 490 326 q 383 403 411 367 q 356 496 356 439 q 381 582 356 546 q 457 664 407 618 q 523 734 501 706 q 544 800 544 763 q 511 871 544 846 q 417 896 478 896 q 269 838 321 896 q 217 675 217 781 l 217 0 l 104 0 l 104 663 z "},"t":{"ha":472,"x_min":10,"x_max":463,"o":"m 401 81 q 463 85 432 81 l 457 -4 q 388 -10 425 -10 q 203 54 265 -10 q 142 232 142 118 l 142 588 l 10 588 l 10 676 l 142 676 l 142 882 l 254 882 l 254 676 l 446 676 l 446 588 l 254 588 l 254 240 q 401 81 254 81 z "},"ŧ":{"ha":486,"x_min":17,"x_max":469,"o":"m 408 81 q 469 85 439 81 l 464 -4 q 394 -10 432 -10 q 210 54 272 -10 q 149 232 149 118 l 149 346 l 44 346 l 44 432 l 149 432 l 149 588 l 17 588 l 17 676 l 149 676 l 149 882 l 261 882 l 261 676 l 453 676 l 453 588 l 261 588 l 261 432 l 425 432 l 425 346 l 261 346 l 261 240 q 408 81 261 81 z "},"ť":{"ha":472,"x_min":10,"x_max":463,"o":"m 392 742 l 328 742 l 328 979 l 431 979 l 392 742 m 401 81 q 463 85 432 81 l 457 -4 q 388 -10 425 -10 q 203 54 265 -10 q 142 232 142 118 l 142 588 l 10 588 l 10 676 l 142 676 l 142 882 l 254 882 l 254 676 l 446 676 l 446 588 l 254 588 l 254 240 q 401 81 254 81 z "},"ţ":{"ha":472,"x_min":10,"x_max":463,"o":"m 357 -57 q 432 -81 401 -57 q 463 -153 463 -106 q 420 -235 463 -203 q 301 -268 378 -268 q 239 -261 274 -268 q 179 -242 204 -254 l 197 -182 q 303 -201 247 -201 q 360 -189 340 -201 q 379 -153 379 -176 q 367 -125 379 -135 q 331 -115 354 -115 q 268 -128 300 -115 l 240 -106 l 254 18 q 142 232 142 74 l 142 588 l 10 588 l 10 676 l 142 676 l 142 882 l 254 882 l 254 676 l 446 676 l 446 588 l 254 588 l 254 240 q 401 81 254 81 q 463 85 432 81 l 457 -4 q 388 -10 425 -10 q 329 -6 357 -10 l 324 -60 q 357 -57 346 -57 z "},"ț":{"ha":472,"x_min":10,"x_max":463,"o":"m 401 81 q 463 85 432 81 l 457 -4 q 388 -10 425 -10 q 203 54 265 -10 q 142 232 142 118 l 142 588 l 10 588 l 10 676 l 142 676 l 142 882 l 254 882 l 254 676 l 446 676 l 446 588 l 254 588 l 254 240 q 401 81 254 81 m 372 -100 l 372 -181 q 356 -279 372 -236 q 301 -360 340 -322 l 250 -322 q 288 -270 276 -296 q 301 -215 299 -244 l 236 -215 l 236 -100 l 372 -100 z "},"ẗ":{"ha":472,"x_min":10,"x_max":463,"o":"m 401 81 q 463 85 432 81 l 457 -4 q 388 -10 425 -10 q 203 54 265 -10 q 142 232 142 118 l 142 588 l 10 588 l 10 676 l 142 676 l 142 882 l 254 882 l 254 676 l 446 676 l 446 588 l 254 588 l 254 240 q 401 81 254 81 m 142 1132 l 142 1013 l 18 1013 l 18 1132 l 142 1132 m 379 1132 l 379 1013 l 256 1013 l 256 1132 l 379 1132 z "},"ṭ":{"ha":472,"x_min":10,"x_max":463,"o":"m 401 81 q 463 85 432 81 l 457 -4 q 388 -10 425 -10 q 203 54 265 -10 q 142 232 142 118 l 142 588 l 10 588 l 10 676 l 142 676 l 142 882 l 254 882 l 254 676 l 446 676 l 446 588 l 254 588 l 254 240 q 401 81 254 81 m 368 -131 l 368 -253 l 240 -253 l 240 -131 l 368 -131 z "},"ṯ":{"ha":472,"x_min":10,"x_max":513,"o":"m 401 81 q 463 85 432 81 l 457 -4 q 388 -10 425 -10 q 203 54 265 -10 q 142 232 142 118 l 142 588 l 10 588 l 10 676 l 142 676 l 142 882 l 254 882 l 254 676 l 446 676 l 446 588 l 254 588 l 254 240 q 401 81 254 81 m 96 -151 l 513 -151 l 513 -233 l 96 -233 l 96 -151 z "},"u":{"ha":779,"x_min":101,"x_max":674,"o":"m 674 676 l 674 0 l 564 0 l 564 115 q 474 22 532 54 q 344 -10 417 -10 q 163 58 224 -10 q 101 257 101 125 l 101 676 l 214 676 l 214 260 q 250 127 214 169 q 364 85 286 85 q 507 142 453 85 q 561 294 561 200 l 561 676 l 674 676 z "},"ú":{"ha":779,"x_min":101,"x_max":674,"o":"m 674 676 l 674 0 l 564 0 l 564 115 q 474 22 532 54 q 344 -10 417 -10 q 163 58 224 -10 q 101 257 101 125 l 101 676 l 214 676 l 214 260 q 250 127 214 169 q 364 85 286 85 q 507 142 453 85 q 561 294 561 200 l 561 676 l 674 676 m 350 765 l 488 1046 l 617 1046 l 428 765 l 350 765 z "},"ŭ":{"ha":779,"x_min":101,"x_max":674,"o":"m 674 676 l 674 0 l 564 0 l 564 115 q 474 22 532 54 q 344 -10 417 -10 q 163 58 224 -10 q 101 257 101 125 l 101 676 l 214 676 l 214 260 q 250 127 214 169 q 364 85 286 85 q 507 142 453 85 q 561 294 561 200 l 561 676 l 674 676 m 389 807 q 251 850 313 807 q 160 983 189 893 l 231 1013 q 389 890 288 890 q 547 1013 490 890 l 618 983 q 528 850 590 893 q 389 807 467 807 z "},"û":{"ha":779,"x_min":101,"x_max":674,"o":"m 674 676 l 674 0 l 564 0 l 564 115 q 474 22 532 54 q 344 -10 417 -10 q 163 58 224 -10 q 101 257 101 125 l 101 676 l 214 676 l 214 260 q 250 127 214 169 q 364 85 286 85 q 507 142 453 85 q 561 294 561 200 l 561 676 l 674 676 m 186 765 l 350 1046 l 428 1046 l 592 765 l 489 765 l 389 964 l 289 765 l 186 765 z "},"ȕ":{"ha":779,"x_min":101,"x_max":674,"o":"m 674 676 l 674 0 l 564 0 l 564 115 q 474 22 532 54 q 344 -10 417 -10 q 163 58 224 -10 q 101 257 101 125 l 101 676 l 214 676 l 214 260 q 250 127 214 169 q 364 85 286 85 q 507 142 453 85 q 561 294 561 200 l 561 676 l 674 676 m 167 1046 l 271 1046 l 333 765 l 276 765 l 167 1046 m 335 1046 l 438 1046 l 501 765 l 444 765 l 335 1046 z "},"ü":{"ha":779,"x_min":101,"x_max":674,"o":"m 674 676 l 674 0 l 564 0 l 564 115 q 474 22 532 54 q 344 -10 417 -10 q 163 58 224 -10 q 101 257 101 125 l 101 676 l 214 676 l 214 260 q 250 127 214 169 q 364 85 286 85 q 507 142 453 85 q 561 294 561 200 l 561 676 l 674 676 m 332 965 l 332 847 l 208 847 l 208 965 l 332 965 m 569 965 l 569 847 l 446 847 l 446 965 l 569 965 z "},"ụ":{"ha":779,"x_min":101,"x_max":674,"o":"m 674 676 l 674 0 l 564 0 l 564 115 q 474 22 532 54 q 344 -10 417 -10 q 163 58 224 -10 q 101 257 101 125 l 101 676 l 214 676 l 214 260 q 250 127 214 169 q 364 85 286 85 q 507 142 453 85 q 561 294 561 200 l 561 676 l 674 676 m 453 -131 l 453 -253 l 325 -253 l 325 -131 l 453 -131 z "},"ù":{"ha":779,"x_min":101,"x_max":674,"o":"m 674 676 l 674 0 l 564 0 l 564 115 q 474 22 532 54 q 344 -10 417 -10 q 163 58 224 -10 q 101 257 101 125 l 101 676 l 214 676 l 214 260 q 250 127 214 169 q 364 85 286 85 q 507 142 453 85 q 561 294 561 200 l 561 676 l 674 676 m 161 1046 l 290 1046 l 428 765 l 350 765 l 161 1046 z "},"ủ":{"ha":779,"x_min":101,"x_max":674,"o":"m 674 676 l 674 0 l 564 0 l 564 115 q 474 22 532 54 q 344 -10 417 -10 q 163 58 224 -10 q 101 257 101 125 l 101 676 l 214 676 l 214 260 q 250 127 214 169 q 364 85 286 85 q 507 142 453 85 q 561 294 561 200 l 561 676 l 674 676 m 428 765 l 356 765 l 356 804 q 369 853 356 833 q 408 896 383 874 q 435 925 428 915 q 443 947 443 935 q 428 973 443 964 q 386 982 414 982 q 306 967 350 982 l 285 1028 q 396 1051 340 1051 q 498 1024 461 1051 q 535 956 535 997 q 520 904 535 924 q 476 863 506 885 q 440 827 451 842 q 428 789 428 813 l 428 765 z "},"ư":{"ha":799,"x_min":101,"x_max":838,"o":"m 838 856 l 838 819 q 794 681 838 735 q 674 615 751 628 l 674 0 l 564 0 l 564 115 q 474 22 532 54 q 344 -10 417 -10 q 163 58 224 -10 q 101 257 101 125 l 101 676 l 214 676 l 214 260 q 250 127 214 169 q 364 85 286 85 q 507 142 453 85 q 561 294 561 200 l 561 676 l 594 676 q 703 713 669 676 q 736 835 736 750 l 736 856 l 838 856 z "},"ứ":{"ha":799,"x_min":101,"x_max":838,"o":"m 838 856 l 838 819 q 794 681 838 735 q 674 615 751 628 l 674 0 l 564 0 l 564 115 q 474 22 532 54 q 344 -10 417 -10 q 163 58 224 -10 q 101 257 101 125 l 101 676 l 214 676 l 214 260 q 250 127 214 169 q 364 85 286 85 q 507 142 453 85 q 561 294 561 200 l 561 676 l 594 676 q 703 713 669 676 q 736 835 736 750 l 736 856 l 838 856 m 350 765 l 488 1046 l 617 1046 l 428 765 l 350 765 z "},"ự":{"ha":799,"x_min":101,"x_max":838,"o":"m 838 856 l 838 819 q 794 681 838 735 q 674 615 751 628 l 674 0 l 564 0 l 564 115 q 474 22 532 54 q 344 -10 417 -10 q 163 58 224 -10 q 101 257 101 125 l 101 676 l 214 676 l 214 260 q 250 127 214 169 q 364 85 286 85 q 507 142 453 85 q 561 294 561 200 l 561 676 l 594 676 q 703 713 669 676 q 736 835 736 750 l 736 856 l 838 856 m 453 -131 l 453 -253 l 325 -253 l 325 -131 l 453 -131 z "},"ừ":{"ha":799,"x_min":101,"x_max":838,"o":"m 838 856 l 838 819 q 794 681 838 735 q 674 615 751 628 l 674 0 l 564 0 l 564 115 q 474 22 532 54 q 344 -10 417 -10 q 163 58 224 -10 q 101 257 101 125 l 101 676 l 214 676 l 214 260 q 250 127 214 169 q 364 85 286 85 q 507 142 453 85 q 561 294 561 200 l 561 676 l 594 676 q 703 713 669 676 q 736 835 736 750 l 736 856 l 838 856 m 161 1046 l 290 1046 l 428 765 l 350 765 l 161 1046 z "},"ử":{"ha":799,"x_min":101,"x_max":838,"o":"m 838 856 l 838 819 q 794 681 838 735 q 674 615 751 628 l 674 0 l 564 0 l 564 115 q 474 22 532 54 q 344 -10 417 -10 q 163 58 224 -10 q 101 257 101 125 l 101 676 l 214 676 l 214 260 q 250 127 214 169 q 364 85 286 85 q 507 142 453 85 q 561 294 561 200 l 561 676 l 594 676 q 703 713 669 676 q 736 835 736 750 l 736 856 l 838 856 m 428 765 l 356 765 l 356 804 q 369 853 356 833 q 408 896 383 874 q 435 925 428 915 q 443 947 443 935 q 428 973 443 964 q 386 982 414 982 q 306 967 350 982 l 285 1028 q 396 1051 340 1051 q 498 1024 461 1051 q 535 956 535 997 q 520 904 535 924 q 476 863 506 885 q 440 827 451 842 q 428 789 428 813 l 428 765 z "},"ữ":{"ha":799,"x_min":101,"x_max":838,"o":"m 838 856 l 838 819 q 794 681 838 735 q 674 615 751 628 l 674 0 l 564 0 l 564 115 q 474 22 532 54 q 344 -10 417 -10 q 163 58 224 -10 q 101 257 101 125 l 101 676 l 214 676 l 214 260 q 250 127 214 169 q 364 85 286 85 q 507 142 453 85 q 561 294 561 200 l 561 676 l 594 676 q 703 713 669 676 q 736 835 736 750 l 736 856 l 838 856 m 165 831 q 199 947 165 906 q 289 989 233 989 q 344 977 318 989 q 406 943 371 965 q 453 917 438 925 q 486 910 469 910 q 533 931 517 910 q 550 985 550 953 l 613 985 q 578 868 613 910 q 489 826 544 826 q 433 838 460 826 q 372 872 407 850 q 324 898 340 890 q 292 906 308 906 q 244 884 261 906 q 228 831 228 863 l 165 831 z "},"ű":{"ha":779,"x_min":101,"x_max":674,"o":"m 674 676 l 674 0 l 564 0 l 564 115 q 474 22 532 54 q 344 -10 417 -10 q 163 58 224 -10 q 101 257 101 125 l 101 676 l 214 676 l 214 260 q 250 127 214 169 q 364 85 286 85 q 507 142 453 85 q 561 294 561 200 l 561 676 l 674 676 m 276 765 l 340 1046 l 443 1046 l 333 765 l 276 765 m 444 765 l 507 1046 l 611 1046 l 501 765 l 444 765 z "},"ȗ":{"ha":779,"x_min":101,"x_max":674,"o":"m 674 676 l 674 0 l 564 0 l 564 115 q 474 22 532 54 q 344 -10 417 -10 q 163 58 224 -10 q 101 257 101 125 l 101 676 l 214 676 l 214 260 q 250 127 214 169 q 364 85 286 85 q 507 142 453 85 q 561 294 561 200 l 561 676 l 674 676 m 389 1011 q 527 968 465 1011 q 618 836 589 925 l 547 806 q 389 928 490 928 q 231 806 288 928 l 160 835 q 249 968 188 925 q 389 1011 311 1011 z "},"ū":{"ha":779,"x_min":101,"x_max":674,"o":"m 674 676 l 674 0 l 564 0 l 564 115 q 474 22 532 54 q 344 -10 417 -10 q 163 58 224 -10 q 101 257 101 125 l 101 676 l 214 676 l 214 260 q 250 127 214 169 q 364 85 286 85 q 507 142 453 85 q 561 294 561 200 l 561 676 l 674 676 m 181 949 l 597 949 l 597 864 l 181 864 l 181 949 z "},"ṻ":{"ha":779,"x_min":101,"x_max":674,"o":"m 674 676 l 674 0 l 564 0 l 564 115 q 474 22 532 54 q 344 -10 417 -10 q 163 58 224 -10 q 101 257 101 125 l 101 676 l 214 676 l 214 260 q 250 127 214 169 q 364 85 286 85 q 507 142 453 85 q 561 294 561 200 l 561 676 l 674 676 m 181 949 l 597 949 l 597 864 l 181 864 l 181 949 m 332 1233 l 332 1115 l 208 1115 l 208 1233 l 332 1233 m 569 1233 l 569 1115 l 446 1115 l 446 1233 l 569 1233 z "},"ų":{"ha":779,"x_min":101,"x_max":736,"o":"m 736 -236 q 617 -268 685 -268 q 499 -227 544 -268 q 454 -121 454 -186 q 483 -29 454 -69 q 564 35 511 11 l 564 115 q 474 22 532 54 q 344 -10 417 -10 q 163 58 224 -10 q 101 257 101 125 l 101 676 l 214 676 l 214 260 q 250 127 214 169 q 364 85 286 85 q 507 142 453 85 q 561 294 561 200 l 561 676 l 674 676 l 674 0 l 667 0 q 576 -30 611 0 q 542 -107 542 -60 q 566 -172 542 -149 q 633 -194 590 -194 q 714 -171 669 -194 l 736 -236 z "},"ů":{"ha":779,"x_min":101,"x_max":674,"o":"m 674 676 l 674 0 l 564 0 l 564 115 q 474 22 532 54 q 344 -10 417 -10 q 163 58 224 -10 q 101 257 101 125 l 101 676 l 214 676 l 214 260 q 250 127 214 169 q 364 85 286 85 q 507 142 453 85 q 561 294 561 200 l 561 676 l 674 676 m 389 768 q 290 808 331 768 q 249 906 249 847 q 290 1003 249 964 q 389 1043 331 1043 q 488 1003 447 1043 q 529 906 529 964 q 488 808 529 847 q 389 768 447 768 m 389 836 q 437 856 418 836 q 456 906 456 876 q 437 955 456 935 q 389 975 418 975 q 341 955 360 975 q 322 906 322 935 q 341 856 322 876 q 389 836 360 836 z "},"ũ":{"ha":779,"x_min":101,"x_max":674,"o":"m 674 676 l 674 0 l 564 0 l 564 115 q 474 22 532 54 q 344 -10 417 -10 q 163 58 224 -10 q 101 257 101 125 l 101 676 l 214 676 l 214 260 q 250 127 214 169 q 364 85 286 85 q 507 142 453 85 q 561 294 561 200 l 561 676 l 674 676 m 165 831 q 199 947 165 906 q 289 989 233 989 q 344 977 318 989 q 406 943 371 965 q 453 917 438 925 q 486 910 469 910 q 533 931 517 910 q 550 985 550 953 l 613 985 q 578 868 613 910 q 489 826 544 826 q 433 838 460 826 q 372 872 407 850 q 324 898 340 890 q 292 906 308 906 q 244 884 261 906 q 228 831 228 863 l 165 831 z "},"ṹ":{"ha":779,"x_min":101,"x_max":674,"o":"m 674 676 l 674 0 l 564 0 l 564 115 q 474 22 532 54 q 344 -10 417 -10 q 163 58 224 -10 q 101 257 101 125 l 101 676 l 214 676 l 214 260 q 250 127 214 169 q 364 85 286 85 q 507 142 453 85 q 561 294 561 200 l 561 676 l 674 676 m 165 831 q 199 947 165 906 q 289 989 233 989 q 344 977 318 989 q 406 943 371 965 q 453 917 438 925 q 486 910 469 910 q 533 931 517 910 q 550 985 550 953 l 613 985 q 578 868 613 910 q 489 826 544 826 q 433 838 460 826 q 372 872 407 850 q 324 898 340 890 q 292 906 308 906 q 244 884 261 906 q 228 831 228 863 l 165 831 m 350 1033 l 488 1314 l 617 1314 l 428 1033 l 350 1033 z "},"v":{"ha":714,"x_min":14,"x_max":701,"o":"m 701 675 l 410 0 l 304 0 l 14 675 l 133 675 l 360 122 l 589 675 l 701 675 z "},"w":{"ha":1169,"x_min":35,"x_max":1135,"o":"m 1135 676 l 883 0 l 775 0 l 585 524 l 393 0 l 286 0 l 35 676 l 151 676 l 343 133 l 539 676 l 636 676 l 829 133 l 1022 676 l 1135 676 z "},"ẃ":{"ha":1169,"x_min":35,"x_max":1135,"o":"m 1135 676 l 883 0 l 775 0 l 585 524 l 393 0 l 286 0 l 35 676 l 151 676 l 343 133 l 539 676 l 636 676 l 829 133 l 1022 676 l 1135 676 m 546 765 l 683 1046 l 813 1046 l 624 765 l 546 765 z "},"ŵ":{"ha":1169,"x_min":35,"x_max":1135,"o":"m 1135 676 l 883 0 l 775 0 l 585 524 l 393 0 l 286 0 l 35 676 l 151 676 l 343 133 l 539 676 l 636 676 l 829 133 l 1022 676 l 1135 676 m 382 765 l 546 1046 l 624 1046 l 788 765 l 685 765 l 585 964 l 485 765 l 382 765 z "}}}
